<svg width="548" height="442" viewBox="0 0 548 442" fill="none" xmlns="http://www.w3.org/2000/svg">
<path d="M274 442C425.326 442 548 433.764 548 423.605C548 413.446 425.326 405.21 274 405.21C122.674 405.21 0 413.446 0 423.605C0 433.764 122.674 442 274 442Z" fill="#3598DB"/>
<path opacity="0.1" d="M339.39 435.693C438.351 435.693 518.574 429.575 518.574 422.029C518.574 414.482 438.351 408.364 339.39 408.364C240.429 408.364 160.206 414.482 160.206 422.029C160.206 429.575 240.429 435.693 339.39 435.693Z" fill="black"/>
<path d="M100.553 371.434L103.358 403.704L115.983 406.51L118.789 398.092C118.789 398.092 113.879 374.942 113.879 370.733L100.553 371.434Z" fill="#F1B7B7"/>
<path d="M135.622 348.986C135.622 348.986 130.011 363.016 127.907 364.419C125.803 365.822 134.219 384.061 134.219 384.061L146.844 381.957C146.844 381.957 142.636 367.225 146.143 358.807L135.622 348.986Z" fill="#F1B7B7"/>
<path d="M131.764 357.053C131.764 357.053 126.504 358.807 124.4 366.524C122.296 374.24 122.296 374.942 122.296 374.942L125.802 382.658H127.907C127.907 382.658 131.414 394.584 130.712 398.793C130.011 403.002 135.622 419.137 145.441 418.436C155.261 417.734 153.156 405.808 153.156 405.808L148.247 381.255C148.247 381.255 148.247 374.942 146.844 374.942C145.441 374.942 134.219 377.046 134.219 377.046V379.151C134.219 379.151 126.153 368.277 131.764 357.053Z" fill="#CCF7FF"/>
<path d="M113.879 400.196V395.987C113.879 395.987 99.1501 398.092 99.1501 400.196V405.107C99.1501 405.107 86.5252 431.764 100.553 431.764C114.58 431.764 117.386 426.152 117.386 426.152V418.436C117.386 418.436 124.4 414.928 124.4 412.823C124.4 410.719 117.555 392.128 117.555 392.128C117.555 392.128 117.386 403.002 113.879 400.196Z" fill="#CCF7FF"/>
<path d="M97.0459 52.9471C109.442 52.9471 119.49 42.8966 119.49 30.4987C119.49 18.1007 109.442 8.05023 97.0459 8.05023C84.6503 8.05023 74.6017 18.1007 74.6017 30.4987C74.6017 42.8966 84.6503 52.9471 97.0459 52.9471Z" fill="#F1B7B7"/>
<path d="M88.2786 47.6858C88.2786 47.6858 91.0841 61.0145 91.0841 62.4175C91.0841 63.8206 104.41 70.1342 104.41 70.1342L116.334 68.0297L120.542 55.4024C120.542 55.4024 113.528 44.8797 113.528 40.6707L88.2786 47.6858Z" fill="#F1B7B7"/>
<path d="M90.1564 56.9337C90.1564 56.9337 97.3966 68.7312 107.917 65.2236C110.843 64.3354 113.413 62.5455 115.262 60.1093C117.11 57.6731 118.141 54.7153 118.209 51.6579L152.806 63.8206L146.493 115.031L152.104 174.66L147.896 182.376H86.1745C86.1745 182.376 84.0704 171.854 83.369 171.854C82.6676 171.854 81.2649 169.749 81.9663 169.048C82.6676 168.346 84.0704 167.645 83.369 165.54C82.6676 163.435 81.9663 140.286 81.9663 140.286L60.9248 79.2539L90.1564 56.9337Z" fill="#CCF7FF"/>
<path d="M63.3795 190.444L76.0044 207.28C76.0044 207.28 78.1085 189.742 80.9141 189.041L73.9002 184.13L63.3795 190.444Z" fill="#F1B7B7"/>
<path d="M203.656 177.115C203.656 177.115 222.593 189.041 220.489 196.757C218.385 204.474 196.642 183.429 196.642 182.727C196.642 182.026 203.656 177.115 203.656 177.115Z" fill="#F1B7B7"/>
<path d="M85.8239 177.115H84.4212L82.317 186.936C82.317 186.936 71.0949 196.757 76.706 212.191L87.9281 285.849L89.3308 371.434L101.956 374.942L115.983 372.136L119.49 257.789C119.49 257.789 124.4 247.266 122.296 243.759C120.192 240.251 122.997 240.953 122.997 240.953L137.726 281.64C137.726 281.64 132.816 294.969 137.726 299.178C137.726 299.178 137.025 301.283 137.726 301.984C138.428 302.686 141.934 305.492 140.532 306.895C139.129 308.298 138.428 306.895 138.428 308.999C138.428 311.104 131.414 328.642 134.219 351.09L143.337 365.12L151.754 360.21L167.184 316.716C167.184 316.716 163.677 310.402 167.184 308.999C170.691 307.596 171.392 306.193 169.99 304.089C168.587 301.984 168.587 294.969 170.691 291.462C172.795 287.954 170.691 282.342 170.691 282.342L162.976 211.489C162.976 211.489 166.483 192.548 154.559 182.727L152.455 175.01C152.455 175.01 134.921 187.638 85.8239 177.115Z" fill="#3598DB"/>
<path d="M77.5823 12.4127C77.5823 12.4127 84.7083 -3.02974 98.3664 0.533912C112.024 4.09756 119.744 9.44303 120.338 14.7885C120.932 20.134 120.041 28.1522 120.041 28.1522C120.041 28.1522 118.557 17.1643 109.055 19.54C99.5541 21.9158 84.7083 20.134 84.7083 20.134L82.333 41.5158C82.333 41.5158 79.6608 37.6552 76.6916 40.031C73.7224 42.4068 68.0811 17.1643 77.5823 12.4127Z" fill="#3598DB"/>
<path d="M71.4456 79.2539H60.9248C60.9248 79.2539 51.8069 86.9705 52.5083 101.702L47.5986 143.092C47.5986 143.092 47.5986 163.436 56.0152 178.167L65.1331 195.705C65.1331 195.705 68.64 185.884 79.1608 187.287L73.5497 172.555V169.048C73.5497 169.048 71.4456 166.242 71.4456 165.54C71.4456 164.839 74.2511 164.839 72.1469 163.436C70.0428 162.032 67.9387 148.002 67.9387 148.002C67.9387 148.002 68.64 145.196 69.3414 144.495C70.0428 143.793 68.64 141.689 68.64 141.689L70.0428 139.584L79.1608 105.21L71.4456 79.2539Z" fill="#CCF7FF"/>
<path d="M140.882 61.716L152.806 63.8206C152.806 63.8206 159.819 70.8357 162.625 79.2539L168.236 104.508L177.354 122.748C177.354 122.748 187.875 133.27 195.59 157.122L206.812 178.167L194.889 185.182C194.889 185.182 161.924 146.599 157.715 133.27L139.479 98.1947L140.882 61.716Z" fill="#CCF7FF"/>
<path d="M494.928 166.078H207.498V425.182H494.928V166.078Z" fill="#CCF7FF"/>
<path d="M211.631 202.868H203.595V395.75H211.631V202.868Z" fill="#3598DB"/>
<path d="M421.625 204.182H384.317V205.233H421.625V204.182Z" fill="#152850"/>
<path d="M422.151 195.773H384.317V202.08H422.151V195.773Z" fill="#152850"/>
<path d="M422.676 395.488H398.505V381.823H415.977V382.874H399.556V394.436H421.625V387.848H422.676V395.488Z" fill="#152850"/>
<path d="M421.625 226.256H247.696V230.46H421.625V226.256Z" fill="#152850"/>
<path d="M421.625 245.702H247.696V249.906H421.625V245.702Z" fill="#152850"/>
<path d="M421.625 265.147H247.696V269.352H421.625V265.147Z" fill="#152850"/>
<path d="M421.625 284.593H247.696V288.798H421.625V284.593Z" fill="#152850"/>
<path d="M421.625 304.039H247.696V308.244H421.625V304.039Z" fill="#152850"/>
<path d="M421.625 323.485H247.696V327.69H421.625V323.485Z" fill="#152850"/>
<path d="M421.625 342.931H247.696V347.136H421.625V342.931Z" fill="#152850"/>
<path d="M421.625 362.377H247.696V366.581H421.625V362.377Z" fill="#152850"/>
<path d="M447.899 235.19C451.671 235.19 454.73 232.131 454.73 228.358C454.73 224.585 451.671 221.526 447.899 221.526C444.126 221.526 441.068 224.585 441.068 228.358C441.068 232.131 444.126 235.19 447.899 235.19Z" fill="#3598DB"/>
<path d="M447.899 254.636C451.671 254.636 454.73 251.577 454.73 247.804C454.73 244.03 451.671 240.971 447.899 240.971C444.126 240.971 441.068 244.03 441.068 247.804C441.068 251.577 444.126 254.636 447.899 254.636Z" fill="#152850"/>
<path d="M447.899 274.082C451.671 274.082 454.73 271.023 454.73 267.25C454.73 263.476 451.671 260.417 447.899 260.417C444.126 260.417 441.068 263.476 441.068 267.25C441.068 271.023 444.126 274.082 447.899 274.082Z" fill="#3598DB"/>
<path d="M447.899 293.528C451.671 293.528 454.73 290.469 454.73 286.696C454.73 282.922 451.671 279.863 447.899 279.863C444.126 279.863 441.068 282.922 441.068 286.696C441.068 290.469 444.126 293.528 447.899 293.528Z" fill="#152850"/>
<path d="M447.899 312.974C451.671 312.974 454.73 309.915 454.73 306.141C454.73 302.368 451.671 299.309 447.899 299.309C444.126 299.309 441.068 302.368 441.068 306.141C441.068 309.915 444.126 312.974 447.899 312.974Z" fill="#152850"/>
<path d="M447.899 332.42C451.671 332.42 454.73 329.361 454.73 325.587C454.73 321.814 451.671 318.755 447.899 318.755C444.126 318.755 441.068 321.814 441.068 325.587C441.068 329.361 444.126 332.42 447.899 332.42Z" fill="#152850"/>
<path d="M447.899 351.866C451.671 351.866 454.73 348.807 454.73 345.033C454.73 341.26 451.671 338.201 447.899 338.201C444.126 338.201 441.068 341.26 441.068 345.033C441.068 348.807 444.126 351.866 447.899 351.866Z" fill="#3598DB"/>
<path d="M447.899 371.312C451.671 371.312 454.73 368.253 454.73 364.479C454.73 360.706 451.671 357.647 447.899 357.647C444.126 357.647 441.068 360.706 441.068 364.479C441.068 368.253 444.126 371.312 447.899 371.312Z" fill="#3598DB"/>
<path d="M410.853 392.289L404.965 386.399L405.708 385.656L410.853 390.803L426.246 375.407L426.989 376.15L410.853 392.289Z" fill="#3598DB"/>
<path opacity="0.1" d="M410.853 405.21C430.878 405.21 447.111 404.269 447.111 403.108C447.111 401.947 430.878 401.006 410.853 401.006C390.829 401.006 374.596 401.947 374.596 403.108C374.596 404.269 390.829 405.21 410.853 405.21Z" fill="black"/>
<path d="M42.8721 417.31C42.7515 417.113 39.9082 412.364 38.9224 402.504C38.0182 393.457 38.5996 378.209 46.5062 356.938C61.4851 316.643 43.0543 284.13 42.8659 283.806L43.7753 283.278C43.823 283.361 48.5788 291.65 51.3883 304.85C55.1006 322.35 53.7488 340.545 47.4915 357.305C32.5383 397.531 43.6552 416.574 43.7691 416.762L42.8721 417.31Z" fill="#3598DB"/>
<path d="M37.015 281.44C40.7877 281.44 43.846 278.381 43.846 274.608C43.846 270.834 40.7877 267.775 37.015 267.775C33.2423 267.775 30.1839 270.834 30.1839 274.608C30.1839 278.381 33.2423 281.44 37.015 281.44Z" fill="#CCF7FF"/>
<path d="M58.5591 306.667C62.3318 306.667 65.3901 303.608 65.3901 299.835C65.3901 296.061 62.3318 293.002 58.5591 293.002C54.7864 293.002 51.728 296.061 51.728 299.835C51.728 303.608 54.7864 306.667 58.5591 306.667Z" fill="#CCF7FF"/>
<path d="M43.846 323.485C47.6187 323.485 50.6771 320.426 50.6771 316.653C50.6771 312.879 47.6187 309.82 43.846 309.82C40.0734 309.82 37.015 312.879 37.015 316.653C37.015 320.426 40.0734 323.485 43.846 323.485Z" fill="#CCF7FF"/>
<path d="M61.7119 337.675C65.4846 337.675 68.5429 334.616 68.5429 330.843C68.5429 327.07 65.4846 324.011 61.7119 324.011C57.9392 324.011 54.8808 327.07 54.8808 330.843C54.8808 334.616 57.9392 337.675 61.7119 337.675Z" fill="#CCF7FF"/>
<path d="M38.5914 359.749C42.3641 359.749 45.4224 356.69 45.4224 352.917C45.4224 349.143 42.3641 346.084 38.5914 346.084C34.8187 346.084 31.7603 349.143 31.7603 352.917C31.7603 356.69 34.8187 359.749 38.5914 359.749Z" fill="#CCF7FF"/>
<path d="M46.9986 417.561C46.9986 417.561 40.1676 400.743 60.6608 388.13L46.9986 417.561Z" fill="#3598DB"/>
<path d="M38.5976 417.256C38.5976 417.256 35.4887 399.371 11.4265 399.525L38.5976 417.256Z" fill="#3598DB"/>
</svg>