<svg width="499" height="386" viewBox="0 0 499 386" fill="none" xmlns="http://www.w3.org/2000/svg">
<g clip-path="url(#clip0)">
<path d="M247.052 311.034C215.436 311.034 184.797 300.07 160.358 280.009C135.918 259.949 119.189 232.034 113.021 201.02C106.853 170.006 111.628 137.813 126.532 109.926C141.435 82.0382 165.546 60.182 194.756 48.0811C223.966 35.9802 256.467 34.3833 286.722 43.5625C316.977 52.7417 343.113 72.1291 360.678 98.4212C378.243 124.713 386.15 156.283 383.051 187.752C379.952 219.221 366.039 248.642 343.683 271.002C331.023 283.733 315.964 293.827 299.377 300.699C282.79 307.57 265.005 311.083 247.052 311.034ZM247.052 38.5668C172.19 38.5668 111.285 99.4812 111.285 174.355C111.285 249.229 172.19 310.144 247.052 310.144C321.914 310.144 382.819 249.229 382.819 174.355C382.819 99.4812 321.914 38.5668 247.052 38.5668Z" fill="#CCF7FF"/>
<path d="M258.563 295.942C256.032 305.298 247.364 311.092 247.364 311.092C247.364 311.092 242.799 301.717 245.329 292.361C247.86 283.005 256.528 277.21 256.528 277.21C256.528 277.21 261.093 286.585 258.563 295.942Z" fill="#CCF7FF"/>
<path d="M235.541 295.942C238.072 305.298 246.74 311.092 246.74 311.092C246.74 311.092 251.305 301.717 248.774 292.361C246.243 283.005 237.575 277.21 237.575 277.21C237.575 277.21 233.01 286.585 235.541 295.942Z" fill="#CCF7FF"/>
<path d="M239.259 293.931C246.204 300.692 247.052 311.085 247.052 311.085C247.052 311.085 236.641 310.516 229.697 303.755C222.753 296.994 221.905 286.601 221.905 286.601C221.905 286.601 232.315 287.17 239.259 293.931Z" fill="#3598DB"/>
<path d="M254.844 293.931C247.9 300.692 247.052 311.085 247.052 311.085C247.052 311.085 257.462 310.516 264.406 303.755C271.35 296.994 272.199 286.601 272.199 286.601C272.199 286.601 261.788 287.17 254.844 293.931Z" fill="#3598DB"/>
<path d="M235.541 53.2845C238.072 43.9282 246.74 38.1337 246.74 38.1337C246.74 38.1337 251.305 47.5086 248.774 56.8648C246.243 66.221 237.575 72.0156 237.575 72.0156C237.575 72.0156 233.01 62.6407 235.541 53.2845Z" fill="#CCF7FF"/>
<path d="M258.563 53.2845C256.032 43.9282 247.364 38.1337 247.364 38.1337C247.364 38.1337 242.799 47.5086 245.329 56.8648C247.86 66.221 256.528 72.0156 256.528 72.0156C256.528 72.0156 261.093 62.6407 258.563 53.2845Z" fill="#CCF7FF"/>
<path d="M254.844 55.2953C247.9 48.5344 247.052 38.1414 247.052 38.1414C247.052 38.1414 257.462 38.7099 264.406 45.4707C271.35 52.2316 272.199 62.6246 272.199 62.6246C272.199 62.6246 261.788 62.0561 254.844 55.2953Z" fill="#3598DB"/>
<path d="M239.259 55.2953C246.204 48.5344 247.052 38.1414 247.052 38.1414C247.052 38.1414 236.641 38.7099 229.697 45.4707C222.753 52.2316 221.905 62.6246 221.905 62.6246C221.905 62.6246 232.315 62.0561 239.259 55.2953Z" fill="#3598DB"/>
<path d="M183.434 5.64386H6.51147V185.582H183.434V5.64386Z" fill="#2F7FB7"/>
<path d="M176.749 10.2108H19.1423H10.2092V19.7837V178.691H19.1423V19.7837H176.749V10.2108Z" fill="#152850"/>
<path opacity="0.3" d="M176.749 10.2108H19.1423H10.2092V19.7837V178.691H19.1423V19.7837H176.749V10.2108Z" fill="#152850"/>
<path opacity="0.1" d="M151.226 19.7837H144.207H19.1423V42.7582H144.207V178.691H176.749V19.7837H151.226Z" fill="#CCF7FF"/>
<path d="M0 0V188.902H186.958V0H0ZM176.749 178.691H10.2093V10.2109H176.749V178.691Z" fill="#3598DB"/>
<path d="M131.204 195.866C131.204 195.866 139.658 212.248 144.414 215.948C149.169 219.647 136.752 224.139 136.752 224.139L122.222 201.415L131.204 195.866Z" fill="#C67C48"/>
<path d="M79.9523 155.968C79.9523 155.968 119.316 166.273 122.751 173.143C126.185 180.013 136.752 196.659 136.752 196.659L121.165 209.078L105.843 186.09L63.5728 167.065L79.9523 155.968Z" fill="#CCF7FF"/>
<path d="M135.431 217.533C135.431 217.533 131.733 214.362 130.676 216.476C129.619 218.59 126.449 229.423 126.449 229.423C126.449 229.423 130.94 233.651 140.187 231.009C140.187 231.009 142.565 229.159 146.263 231.009C149.962 232.858 163.699 229.159 163.171 223.082C162.643 217.005 148.641 217.533 148.641 217.533C148.641 217.533 142.743 210.925 141.993 213.436C141.244 215.948 142.3 216.212 142.3 216.212C142.3 216.212 137.545 221.232 135.431 217.533Z" fill="#3598DB"/>
<path d="M90.2556 211.984L87.6138 234.179H100.559C100.559 234.179 99.5022 217.004 99.7664 214.891C100.031 212.777 90.2556 211.984 90.2556 211.984Z" fill="#C67C48"/>
<path d="M97.6528 163.102C97.6528 163.102 104.786 173.671 100.559 174.464C96.3318 175.257 92.8974 163.102 92.8974 163.102H97.6528Z" fill="#C67C48"/>
<path d="M43.7587 162.045C43.7587 162.045 38.475 177.635 59.3457 181.862C80.2164 186.09 86.5569 189.525 86.5569 189.525L89.1988 216.476L107.428 217.533C107.428 217.533 116.146 176.578 104.786 171.293C93.4258 166.009 69.3848 159.931 69.3848 159.931L43.7587 162.045Z" fill="#CCF7FF"/>
<path d="M89.1988 230.744C89.1988 230.744 92.8974 228.895 93.4258 228.895C93.4258 228.895 95.7479 223.538 100.003 224.103L109.277 237.614C109.277 237.614 123.279 247.655 113.504 250.297C103.729 252.94 96.0677 250.826 96.0677 250.826L92.1048 247.919C92.1048 247.919 92.6332 245.013 89.1988 245.541C89.1988 245.541 82.0658 242.635 82.3299 240.521C82.5941 238.407 88.2057 229.206 88.2057 229.206L89.1988 230.744Z" fill="#3598DB"/>
<path d="M91.4443 110.653C97.2806 110.653 102.012 105.921 102.012 100.084C102.012 94.2465 97.2806 89.5145 91.4443 89.5145C85.6081 89.5145 80.8769 94.2465 80.8769 100.084C80.8769 105.921 85.6081 110.653 91.4443 110.653Z" fill="#C67C48"/>
<path d="M82.8584 96.7808C82.8584 96.7808 73.3476 103.651 71.4983 103.915C69.649 104.179 80.2165 117.126 80.2165 117.126C80.2165 117.126 85.236 108.935 88.4063 107.878C91.5765 106.821 82.8584 96.7808 82.8584 96.7808Z" fill="#C67C48"/>
<path d="M75.7253 105.5C75.7253 105.5 71.7625 100.216 69.3849 100.216C67.0072 100.216 45.6081 102.594 43.7588 120.297C41.9095 138 42.9662 168.915 42.9662 168.915C42.9662 168.915 41.3811 161.252 59.0816 164.423C59.0816 164.423 80.2165 159.931 83.9151 159.931C87.6137 159.931 89.1989 122.147 89.1989 122.147L83.1836 112.819C83.1836 112.819 80.4807 117.919 75.7253 105.5Z" fill="#3598DB"/>
<path d="M85.2359 120.033L89.1987 122.147L93.9541 151.212L100.559 166.273C100.559 166.273 93.4257 163.817 92.8974 166.762L82.3299 151.476L85.2359 120.033Z" fill="#3598DB"/>
<path d="M89.0685 91.4157L94.8175 92.134C94.7077 93.304 94.7382 94.7536 95.7748 95.3071C96.2621 95.5672 96.8804 95.5539 97.3123 95.8984C98.3511 96.7268 97.335 98.5081 97.9215 99.7004L99.6029 100.145C99.8049 100.523 100.08 100.858 100.411 101.129C100.743 101.4 101.125 101.604 101.536 101.727C101.946 101.85 102.377 101.891 102.803 101.847C103.229 101.803 103.643 101.675 104.019 101.47C105.149 100.792 105.725 99.4952 106.233 98.2792C106.841 96.8263 107.46 95.2653 107.156 93.7202C106.83 92.0602 105.474 90.6807 105.412 88.9899C105.385 88.2335 105.544 87.2906 104.907 86.8828C104.614 86.7449 104.298 86.6611 103.975 86.6353C102.506 86.3286 101.688 84.8083 100.593 83.7827C98.2976 81.6334 94.7726 81.6898 91.6339 81.8773C90.7355 81.8805 89.844 82.0359 88.9974 82.3369C88.0405 82.8169 87.1944 83.4917 86.5135 84.318C84.8302 86.1136 83.1914 87.9942 82.081 90.1908C80.9706 92.3874 80.4235 94.9539 81.027 97.3401C80.9676 97.1105 82.9654 95.608 83.214 95.3672C83.9948 94.611 84.0659 94.2499 84.4884 93.3798C85.4734 91.3514 86.8429 91.1377 89.0685 91.4157Z" fill="#152850"/>
<path opacity="0.1" d="M72.1587 125.449L72.9515 143.946L84.7027 157.729L74.0082 142.36L72.1587 125.449Z" fill="black"/>
<path opacity="0.1" d="M51.024 130.47L60.2704 151.872L72.1587 161.649L59.4776 152.929L51.024 130.47Z" fill="black"/>
<path d="M101.25 147.817L106.837 151.661C107.115 151.88 107.31 152.189 107.387 152.535C107.465 152.88 107.421 153.242 107.264 153.56L106.517 155.102L106.69 155.221L105.841 156.973L105.668 156.854L99.5134 169.556C99.4496 169.723 99.3489 169.874 99.219 169.996C99.0891 170.119 98.9332 170.211 98.763 170.265C98.5927 170.32 98.4124 170.335 98.2354 170.31C98.0584 170.286 97.8892 170.221 97.7404 170.122L92.4899 166.51C92.17 166.258 91.9466 165.903 91.8572 165.506C91.7678 165.108 91.8179 164.692 91.9991 164.327L99.7692 148.29C99.8226 148.151 99.9066 148.025 100.015 147.923C100.124 147.82 100.254 147.743 100.396 147.698C100.538 147.652 100.689 147.64 100.837 147.66C100.984 147.681 101.126 147.735 101.25 147.817Z" fill="#CCF7FF"/>
<path d="M92.578 164.187L98.5914 168.324L106.436 152.133L100.422 147.996L92.578 164.187Z" fill="#152850"/>
<path d="M89.9672 160.623C89.9672 160.623 100.447 167.886 96.7946 170.158C93.1426 172.429 85.5354 162.347 85.5354 162.347L89.9672 160.623Z" fill="#C67C48"/>
<path d="M58.8173 106.821C58.8173 106.821 45.0796 110.785 49.0424 122.939C49.9983 125.871 51.1541 129.019 52.3577 132.107C56.1435 141.82 60.4024 150.947 60.4024 150.947L72.3434 161.746L88.4062 166.273L90.2555 164.687C90.2555 164.687 90.7839 159.667 88.4062 159.139C86.0285 158.61 82.3299 156.496 82.3299 156.496L72.8192 142.492C72.8192 142.492 72.555 107.614 58.8173 106.821Z" fill="#3598DB"/>
<path d="M319.934 314.945H492.644V139.291L319.934 139.291V314.945Z" fill="#2F7FB7"/>
<path d="M326.459 143.749H480.313H489.034V153.094V308.218H480.313V153.094H326.459V143.749Z" fill="#3F3D56"/>
<path opacity="0.8" d="M326.459 143.749H480.313H489.034V153.094V308.218H480.313V153.094H326.459V143.749Z" fill="#152850"/>
<path opacity="0.1" d="M351.375 153.094H358.227H480.313V175.521H358.227V308.218H326.459V153.094H351.375Z" fill="#152850"/>
<path d="M316.493 133.781V318.186H499V133.781H316.493ZM326.46 143.749H489.034V308.218H326.46V143.749Z" fill="#3598DB"/>
<path d="M423.137 220.72C419.207 214.079 411.432 213.769 411.432 213.769C411.432 213.769 403.855 212.8 398.995 222.915C394.465 232.344 388.213 241.447 397.989 243.654L399.754 238.157L400.848 244.063C402.24 244.163 403.636 244.187 405.031 244.135C415.5 243.797 425.47 244.234 425.149 240.476C424.722 235.481 426.919 227.111 423.137 220.72Z" fill="#152850"/>
<path d="M394.81 274.324L393.983 289.209L418.236 291.69L419.063 276.253L410.795 271.016L394.81 274.324Z" fill="#C67C48"/>
<path d="M459.99 306.988C459.263 299.956 430.388 296.764 423.449 296.098L420.855 294.584L420.028 285.763C420.028 285.763 394.397 283.558 392.468 283.282C390.538 283.007 388.885 286.59 388.885 287.417C388.885 288.015 388.524 292.283 387.076 294.812C383.949 297.325 374.416 305.232 374.416 308.228C374.416 311.812 381.995 356.88 381.995 356.88L382.822 366.252L390.538 367.63L389.987 338.411C389.987 338.411 392.743 321.597 388.885 316.911V314.982C388.885 314.982 400.202 312.033 404.19 308.822C405.346 308.574 408.594 307.962 410.387 308.494C410.633 308.639 410.917 308.787 411.232 308.939C411.273 308.975 411.311 309.014 411.346 309.055L411.377 309.008C416.537 311.423 429.773 314.47 435.186 313.603C439.361 312.966 443.629 313.742 447.312 315.809C444.281 319.668 446.485 330.693 446.485 330.693L446.761 354.399L450.619 359.085H455.856V346.129C455.856 346.129 460.817 314.982 459.99 306.988Z" fill="#CCF7FF"/>
<path d="M409.004 238.904C414.027 238.904 418.099 234.831 418.099 229.807C418.099 224.784 414.027 220.711 409.004 220.711C403.981 220.711 399.909 224.784 399.909 229.807C399.909 234.831 403.981 238.904 409.004 238.904Z" fill="#C67C48"/>
<path d="M403.492 235.596C403.492 235.596 404.87 241.66 402.941 242.211C401.414 242.717 399.938 243.363 398.531 244.141L396.326 251.308V258.474L423.059 261.506L423.886 259.026V255.442L420.855 249.929L419.477 248.551C419.477 248.551 413.413 241.936 414.791 235.596H403.492Z" fill="#C67C48"/>
<path d="M427.331 257.51C427.331 257.51 428.158 267.157 427.331 271.567C426.504 275.978 426.78 282.593 426.78 282.593L420.717 281.491V266.606L422.095 258.612L427.331 257.51Z" fill="#C67C48"/>
<path d="M412.383 219.426C415.488 219.426 418.005 216.908 418.005 213.803C418.005 210.697 415.488 208.18 412.383 208.18C409.279 208.18 406.762 210.697 406.762 213.803C406.762 216.908 409.279 219.426 412.383 219.426Z" fill="#152850"/>
<path d="M406.17 212.323C406.17 210.934 406.684 209.595 407.613 208.563C408.541 207.53 409.819 206.878 411.2 206.732C411.003 206.711 410.806 206.701 410.608 206.7C409.117 206.7 407.687 207.293 406.633 208.347C405.578 209.402 404.986 210.832 404.986 212.323C404.986 213.814 405.578 215.245 406.633 216.299C407.687 217.354 409.117 217.946 410.608 217.946C410.806 217.946 411.003 217.935 411.2 217.914C409.819 217.768 408.541 217.116 407.613 216.084C406.684 215.051 406.17 213.712 406.17 212.323Z" fill="#152850"/>
<path d="M421.4 220.08L413.718 216.056L403.11 217.702L400.916 227.397L406.379 227.187L407.905 223.625V227.128L410.426 227.031L411.889 221.361L412.804 227.397L421.765 227.214L421.4 220.08Z" fill="#152850"/>
<path d="M390.11 356.995C390.11 356.995 394.021 358.836 395.171 359.526C396.321 360.216 400.922 358.836 400.002 362.977C399.082 367.119 395.171 371.03 395.171 371.03C395.171 371.03 393.33 373.101 393.33 374.481C393.33 375.862 388.73 386.446 383.208 385.986C377.687 385.525 378.607 380.003 378.607 380.003L379.758 374.021C379.758 374.021 382.058 363.897 382.518 364.128C382.978 364.358 384.129 365.968 384.129 365.968C384.129 365.968 389.88 363.667 390.11 356.995Z" fill="#3598DB"/>
<path d="M447.466 350.104C447.466 350.104 443.555 351.944 442.405 352.635C441.254 353.325 436.653 351.944 437.574 356.086C438.494 360.227 442.405 364.139 442.405 364.139C442.405 364.139 444.245 366.21 444.245 367.59C444.245 368.971 448.846 379.554 454.367 379.094C459.888 378.634 458.968 373.112 458.968 373.112L457.818 367.13C457.818 367.13 455.517 357.006 455.057 357.236C454.597 357.466 453.447 359.077 453.447 359.077C453.447 359.077 447.696 356.776 447.466 350.104Z" fill="#3598DB"/>
<path d="M417.144 284.521V282.334H416.658V281.361C416.658 281.138 416.614 280.917 416.528 280.71C416.443 280.504 416.317 280.316 416.159 280.158C416.001 280 415.814 279.875 415.607 279.79C415.401 279.704 415.18 279.66 414.956 279.66H409.124C408.673 279.66 408.24 279.839 407.921 280.158C407.602 280.477 407.423 280.91 407.423 281.361V297.647C407.423 298.098 407.602 298.531 407.921 298.85C408.24 299.169 408.673 299.348 409.124 299.348H414.956C415.408 299.348 415.84 299.169 416.159 298.85C416.478 298.531 416.658 298.098 416.658 297.647V287.438H417.144V285.25H416.658V284.521H417.144Z" fill="#152850"/>
<path d="M412.283 285.494C412.82 285.494 413.255 285.058 413.255 284.521C413.255 283.984 412.82 283.549 412.283 283.549C411.746 283.549 411.311 283.984 411.311 284.521C411.311 285.058 411.746 285.494 412.283 285.494Z" fill="#3598DB"/>
<path d="M387.92 252.824L382.959 273.221C382.959 273.221 381.03 277.632 385.44 280.388C389.849 283.145 399.771 286.728 399.771 286.728C399.771 286.728 408.59 298.856 409.693 293.895C410.795 288.933 403.078 282.593 403.078 282.593L389.574 274.048L394.81 259.715L387.92 252.824Z" fill="#C67C48"/>
<path d="M423.748 278.458C423.748 278.458 427.882 277.907 427.607 282.593C427.331 287.279 421.819 287.83 421.819 287.83C421.819 287.83 419.339 298.305 415.756 296.375C412.173 294.446 417.685 283.971 417.685 283.971L422.37 280.388L423.748 278.458Z" fill="#C67C48"/>
<path d="M397.153 251.032L401.562 241.936L392.743 244.968C392.743 244.968 387.782 247.449 387.507 253.237C387.231 259.026 393.846 262.058 393.846 262.058C393.846 262.058 394.948 270.327 394.397 271.43C393.846 272.532 394.397 276.943 394.397 276.943C394.397 276.943 405.007 274.048 410.244 277.632C415.48 281.215 419.752 279.148 419.752 279.148C419.752 279.148 419.477 272.257 421.681 271.154C423.886 270.051 425.815 264.814 423.886 261.506C423.886 261.506 428.296 262.058 428.02 257.923C427.745 253.788 425.54 250.205 421.957 248.551C418.374 246.897 417.978 246.633 417.978 246.633L423.059 255.994V258.474C423.059 258.474 414.064 252.732 405.164 252.253C402.261 252.12 399.41 253.059 397.153 254.891L397.153 254.891V251.032Z" fill="#152850"/>
</g>
<defs>
<clipPath id="clip0">
<rect width="499" height="386" fill="white"/>
</clipPath>
</defs>
</svg>