<svg width="502" height="327" viewBox="0 0 502 327" fill="none" xmlns="http://www.w3.org/2000/svg">
<path d="M433.298 327C471.241 327 502 323.953 502 320.194C502 316.435 471.241 313.388 433.298 313.388C395.355 313.388 364.596 316.435 364.596 320.194C364.596 323.953 395.355 327 433.298 327Z" fill="#3598DB"/>
<path d="M42.551 320.459C56.1399 320.459 67.1558 318.935 67.1558 317.056C67.1558 315.176 56.1399 313.652 42.551 313.652C28.9621 313.652 17.9461 315.176 17.9461 317.056C17.9461 318.935 28.9621 320.459 42.551 320.459Z" fill="#CCF7FF"/>
<path d="M322.052 0H0V161.506H322.052V0Z" fill="#3598DB"/>
<path d="M307.263 13.1395H14.788V148.367H307.263V13.1395Z" fill="#152850"/>
<path d="M15.175 148.754L14.4005 147.979L53.6751 108.722L65.9989 121.04L87.6329 99.4142L114.197 125.967L159.383 80.7998L179.922 101.331L224.833 56.437L250.028 81.6211L296.196 35.4728L296.97 36.247L250.028 83.1695L224.833 57.9854L179.922 102.879L159.383 82.3482L114.197 127.515L87.6329 100.963L65.9989 122.588L53.6751 110.27L15.175 148.754Z" fill="#CCF7FF"/>
<path d="M225.107 64.6024C228.737 64.6024 231.68 61.6611 231.68 58.0327C231.68 54.4043 228.737 51.463 225.107 51.463C221.478 51.463 218.535 54.4043 218.535 58.0327C218.535 61.6611 221.478 64.6024 225.107 64.6024Z" fill="#CCF7FF"/>
<path d="M88.1807 107.306C91.8106 107.306 94.7532 104.364 94.7532 100.736C94.7532 97.1076 91.8106 94.1663 88.1807 94.1663C84.5509 94.1663 81.6083 97.1076 81.6083 100.736C81.6083 104.364 84.5509 107.306 88.1807 107.306Z" fill="#CCF7FF"/>
<path d="M180.195 107.853C183.825 107.853 186.768 104.912 186.768 101.283C186.768 97.6551 183.825 94.7137 180.195 94.7137C176.566 94.7137 173.623 97.6551 173.623 101.283C173.623 104.912 176.566 107.853 180.195 107.853Z" fill="#CCF7FF"/>
<path d="M116.114 132.49C119.744 132.49 122.686 129.548 122.686 125.92C122.686 122.292 119.744 119.35 116.114 119.35C112.484 119.35 109.541 122.292 109.541 125.92C109.541 129.548 112.484 132.49 116.114 132.49Z" fill="#CCF7FF"/>
<path d="M158.287 89.239C161.917 89.239 164.86 86.2976 164.86 82.6692C164.86 79.0409 161.917 76.0995 158.287 76.0995C154.657 76.0995 151.715 79.0409 151.715 82.6692C151.715 86.2976 154.657 89.239 158.287 89.239Z" fill="#CCF7FF"/>
<path d="M249.754 89.239C253.384 89.239 256.327 86.2976 256.327 82.6692C256.327 79.0409 253.384 76.0995 249.754 76.0995C246.124 76.0995 243.182 79.0409 243.182 82.6692C243.182 86.2976 246.124 89.239 249.754 89.239Z" fill="#CCF7FF"/>
<path d="M34.8208 300.328C37.4876 310.182 46.6222 316.285 46.6222 316.285C46.6222 316.285 51.4329 306.411 48.7661 296.557C46.0992 286.703 36.9647 280.6 36.9647 280.6C36.9647 280.6 32.1539 290.474 34.8208 300.328Z" fill="#3598DB"/>
<path d="M38.7395 298.21C46.0574 305.331 46.9512 316.277 46.9512 316.277C46.9512 316.277 35.9804 315.678 28.6625 308.557C21.3447 301.437 20.4508 290.49 20.4508 290.49C20.4508 290.49 31.4216 291.089 38.7395 298.21Z" fill="#3598DB"/>
<path d="M410.236 76.1139L414.428 117.548H448.924L447.266 54.5684C447.266 41.0126 437.891 29.1558 424.33 29.1558C410.769 29.1558 401.946 40.4602 401.946 54.016L399.735 117.548H405.36L410.236 76.1139Z" fill="#CCF7FF"/>
<path d="M430.854 293.393C430.854 293.393 429.366 302.818 426.884 304.307C424.403 305.795 439.788 309.268 439.788 309.268L442.269 294.385L430.854 293.393Z" fill="#F1B7B7"/>
<path d="M449.218 185.74L454.677 192.189L452.195 214.513L450.21 258.666C450.21 258.666 454.181 296.865 450.21 297.857C446.24 298.85 428.373 298.354 428.869 295.873C429.365 293.393 429.862 291.408 430.854 287.936C431.847 284.463 429.862 272.061 429.862 272.061L432.343 258.17L423.41 198.142L449.218 185.74Z" fill="#3598DB"/>
<path d="M431.351 302.818C431.351 302.818 425.891 301.826 425.395 302.818C424.899 303.811 415.469 314.229 413.98 314.229C412.491 314.229 401.573 324.15 412.987 324.647C424.402 325.143 443.262 316.213 443.262 316.213C443.262 316.213 440.486 303.589 440.633 304.196C440.78 304.803 431.351 305.299 431.351 302.818Z" fill="#CCF7FF"/>
<path d="M425.395 279.998C425.395 279.998 439.292 295.377 439.788 296.865C440.284 298.354 447.729 296.865 447.729 296.865L450.707 286.943L448.225 283.471L434.328 272.06L425.395 279.998Z" fill="#F1B7B7"/>
<path d="M445.247 291.408L438.051 298.179C438.051 298.179 447.232 312.244 447.232 313.732C447.232 315.221 447.729 327.623 452.692 325.639C457.655 323.654 458.151 303.811 458.151 303.811C458.151 303.811 457.655 283.471 454.677 281.982C451.699 280.494 445.173 280.964 445.173 280.964C445.173 280.964 449.218 290.912 445.247 291.408Z" fill="#CCF7FF"/>
<path d="M404.054 141.587C404.054 141.587 401.573 149.525 401.076 151.509C400.58 153.494 397.602 158.951 397.602 167.384C397.602 175.818 398.595 185.74 397.602 186.732C396.61 187.724 380.728 243.287 387.676 249.24C394.624 255.193 417.454 275.037 418.943 277.518C420.432 279.998 420.928 285.951 423.906 284.959C426.884 283.967 438.299 274.045 438.795 272.061C439.292 270.076 432.343 266.603 432.343 266.603C432.343 266.603 418.447 246.264 414.973 246.76C411.499 247.256 411.995 244.279 412.491 242.791C412.988 241.303 413.98 240.31 412.491 240.31C411.002 240.31 411.995 236.342 412.491 234.357C412.988 232.373 424.403 205.584 424.403 205.584L454.677 192.189C454.677 192.189 453.188 155.974 442.269 146.052L439.788 140.099C439.788 140.099 411.995 138.115 404.054 141.587Z" fill="#3598DB"/>
<path d="M416.462 63.2044C416.462 63.2044 418.943 80.5678 412.987 81.56C407.032 82.5522 402.069 82.0561 402.069 82.5522C402.069 83.0482 416.958 98.4272 416.958 98.4272L430.854 97.435L443.262 84.0404C443.262 84.0404 431.847 82.056 431.847 75.1107C431.847 68.1653 431.351 63.2044 431.351 63.2044L416.462 63.2044Z" fill="#F1B7B7"/>
<path d="M424.154 70.3978C432.651 70.3978 439.54 63.5125 439.54 55.0189C439.54 46.5253 432.651 39.64 424.154 39.64C415.657 39.64 408.769 46.5253 408.769 55.0189C408.769 63.5125 415.657 70.3978 424.154 70.3978Z" fill="#F1B7B7"/>
<path d="M415.175 80.297C415.175 80.297 391.15 82.5522 389.661 89.0014C388.172 95.4506 399.587 135.634 401.076 139.107C402.565 142.58 402.069 145.06 402.069 145.06C404.315 143.381 406.894 142.203 409.633 141.604C412.373 141.005 415.209 140.999 417.951 141.588C427.38 143.572 440.78 142.58 440.78 142.58C440.78 142.58 445.247 124.224 446.24 122.24C447.232 120.255 451.203 109.341 451.203 106.365C451.203 103.388 457.158 90.9858 457.158 90.9858C457.158 90.9858 454.181 82.0561 443.262 82.5522C443.262 82.5522 438.499 80.4214 437.158 81.9829C435.817 83.5444 428.373 90.4897 418.943 87.5131C409.513 84.5366 415.175 80.297 415.175 80.297Z" fill="#3598DB"/>
<path d="M447.729 88.5053L457.158 90.9858C457.158 90.9858 464.107 116.287 464.603 116.783C465.099 117.279 465.596 120.255 465.596 120.255C465.596 120.255 465.596 120.751 466.588 122.24C467.581 123.728 469.07 122.736 468.077 124.72C467.084 126.705 465.596 125.712 466.588 127.697C467.581 129.681 467.084 135.138 467.084 135.138C467.084 135.138 464.603 125.712 455.67 128.193L449.714 101.404L447.729 88.5053Z" fill="#3598DB"/>
<path d="M450.845 93.254L450.811 93.3675L434.464 144.845L423.734 142.463L412.13 139.888L428.512 86.8052L450.845 93.254Z" fill="#CCF7FF"/>
<path d="M399.263 88.5053L389.833 90.9858C389.833 90.9858 382.885 116.287 382.389 116.783C381.892 117.279 381.396 120.255 381.396 120.255C381.396 120.255 381.396 120.751 380.403 122.24C379.411 123.728 377.922 122.736 378.914 124.72C379.907 126.705 381.396 125.712 380.403 127.697C379.411 129.681 379.907 135.138 379.907 135.138C379.907 135.138 382.389 125.712 391.322 128.193L397.278 101.404L399.263 88.5053Z" fill="#3598DB"/>
<path d="M382.885 126.705L379.784 131.884C379.784 131.884 378.418 141.587 385.366 141.587C392.315 141.587 402.241 132.162 402.241 132.162C402.241 132.162 407.204 130.177 410.181 130.673C413.159 131.169 429.537 130.673 422.589 122.24C415.641 113.806 403.729 122.24 403.729 122.24L391.322 128.193L384.87 124.72L382.885 126.705Z" fill="#F1B7B7"/>
<path d="M387.103 120.007L392.067 127.945C392.067 127.945 380.652 129.433 379.659 131.914C378.666 134.394 384.126 119.015 384.126 119.015L387.103 120.007Z" fill="#3598DB"/>
<path d="M411.342 49.5963C421.336 44.2101 425.442 44.4382 437.87 49.5963L441.186 41.5205C441.185 39.9999 440.58 38.5421 439.504 37.4669C438.428 36.3916 436.97 35.7868 435.449 35.7851H413.211C411.69 35.7868 410.231 36.3916 409.155 37.4669C408.08 38.5421 407.475 39.9999 407.473 41.5205L411.342 49.5963Z" fill="#CCF7FF"/>
<path opacity="0.2" d="M450.811 93.3675L434.464 144.845L423.734 142.463L439.86 90.2083L450.811 93.3675Z" fill="#3598DB"/>
<path d="M443.262 90.2072L426.884 143.289L449.218 148.25L465.596 96.656L443.262 90.2072Z" fill="#CCF7FF"/>
<path d="M464.107 126.705L467.207 131.884C467.207 131.884 468.573 141.587 461.625 141.587C454.677 141.587 444.751 132.162 444.751 132.162C444.751 132.162 439.788 130.177 436.81 130.673C433.832 131.169 417.454 130.673 424.403 122.24C431.351 113.806 443.262 122.24 443.262 122.24L455.67 128.193L462.122 124.72L464.107 126.705Z" fill="#F1B7B7"/>
<path d="M459.888 120.007L454.925 127.945C454.925 127.945 466.34 129.433 467.333 131.914C468.325 134.394 462.866 119.015 462.866 119.015L459.888 120.007Z" fill="#3598DB"/>
</svg>