<svg width="499" height="450" viewBox="0 0 499 450" fill="none" xmlns="http://www.w3.org/2000/svg">
<path d="M305.732 422.629C308.41 430.727 302.925 439.82 302.925 439.82C302.925 439.82 293.097 435.783 290.418 427.685C287.74 419.587 293.225 410.494 293.225 410.494C293.225 410.494 303.053 414.531 305.732 422.629Z" fill="#3598DB"/>
<path d="M488.661 429.978C483.554 436.812 472.953 437.531 472.953 437.531C472.953 437.531 470.632 427.17 475.739 420.336C480.846 413.502 491.447 412.783 491.447 412.783C491.447 412.783 493.769 423.144 488.661 429.978Z" fill="#3598DB"/>
<path d="M385.434 450C448.155 450 499 446.393 499 441.943C499 437.493 448.155 433.886 385.434 433.886C322.713 433.886 271.868 437.493 271.868 441.943C271.868 446.393 322.713 450 385.434 450Z" fill="#CCF7FF"/>
<path d="M440.249 0.249268H0.187866V281.851H440.249V0.249268Z" fill="#3598DB"/>
<path d="M427.665 35.5692H12.7713V265.191H427.665V35.5692Z" fill="#152850"/>
<path d="M440.061 0H0V18.6799H440.061V0Z" fill="#CCF7FF"/>
<path d="M13.8929 13.0124C15.8066 13.0124 17.3579 11.4623 17.3579 9.55019C17.3579 7.63808 15.8066 6.08801 13.8929 6.08801C11.9792 6.08801 10.4279 7.63808 10.4279 9.55019C10.4279 11.4623 11.9792 13.0124 13.8929 13.0124Z" fill="#2F2E41"/>
<path d="M27.0454 13.0124C28.9591 13.0124 30.5104 11.4623 30.5104 9.55019C30.5104 7.63808 28.9591 6.08801 27.0454 6.08801C25.1317 6.08801 23.5803 7.63808 23.5803 9.55019C23.5803 11.4623 25.1317 13.0124 27.0454 13.0124Z" fill="#2F2E41"/>
<path d="M40.1979 13.0124C42.1116 13.0124 43.6629 11.4623 43.6629 9.55019C43.6629 7.63808 42.1116 6.08801 40.1979 6.08801C38.2842 6.08801 36.7328 7.63808 36.7328 9.55019C36.7328 11.4623 38.2842 13.0124 40.1979 13.0124Z" fill="#2F2E41"/>
<path d="M297.797 54.7081H142.454V70.133H297.797V54.7081Z" fill="#CCF7FF"/>
<path d="M297.797 92.0421H142.454V97.8844H297.797V92.0421Z" fill="#CCF7FF"/>
<path d="M297.797 109.874H142.454V115.716H297.797V109.874Z" fill="#CCF7FF"/>
<path d="M222.72 127.932H142.454V133.774H222.72V127.932Z" fill="#CCF7FF"/>
<path d="M297.797 146.311H142.454V152.153H297.797V146.311Z" fill="#CCF7FF"/>
<path d="M297.797 164.689H142.454V170.531H297.797V164.689Z" fill="#CCF7FF"/>
<path d="M220.032 183.067H142.454V188.91H220.032V183.067Z" fill="#CCF7FF"/>
<path d="M297.797 201.446H142.454V207.288H297.797V201.446Z" fill="#CCF7FF"/>
<path d="M297.797 219.824H142.454V225.667H297.797V219.824Z" fill="#CCF7FF"/>
<path d="M297.983 242.367H248.927V258.481H297.983V242.367Z" fill="#3598DB"/>
<path d="M307.597 236.791L307.223 237.084L298.607 243.848C298.607 243.848 286.407 256.68 281.913 249.622C277.418 242.565 294.755 234.225 294.755 234.225L301.176 229.734L307.597 236.791Z" fill="#8B5128"/>
<path d="M445.327 245.452C445.327 245.452 440.191 263.416 438.906 264.699L429.275 250.585L433.77 242.886L445.327 245.452Z" fill="#8B5128"/>
<path d="M430.238 247.698L439.227 265.02L434.733 282.342V336.876L439.227 418.355H415.47L392.996 286.192L367.954 418.355H343.554L348.691 333.668L347.407 284.267C347.407 284.267 348.049 255.396 354.47 252.83C360.891 250.264 430.238 247.698 430.238 247.698Z" fill="#CCF7FF"/>
<path d="M434.091 415.147L436.017 422.846C436.017 422.846 443.08 427.979 441.154 433.753C439.227 439.527 440.512 442.735 436.017 444.018C431.522 445.301 416.754 447.226 417.396 440.81C418.038 434.394 417.396 420.921 417.396 420.921L419.322 416.43L434.091 415.147Z" fill="#3598DB"/>
<path d="M349.333 415.147L347.407 422.846C347.407 422.846 340.344 427.979 342.27 433.753C344.197 439.527 342.912 442.735 347.407 444.018C351.902 445.301 366.67 447.226 366.028 440.81C365.386 434.394 366.028 420.921 366.028 420.921L364.102 416.43L349.333 415.147Z" fill="#3598DB"/>
<path d="M374.054 110.195C386.409 110.195 396.424 100.188 396.424 87.8435C396.424 75.4991 386.409 65.4919 374.054 65.4919C361.7 65.4919 351.684 75.4991 351.684 87.8435C351.684 100.188 361.7 110.195 374.054 110.195Z" fill="#8B5128"/>
<path d="M391.41 97.4781L394.496 122.913H366.726L369.04 101.331L391.41 97.4781Z" fill="#8B5128"/>
<path d="M338.097 133.177C338.097 133.177 365.707 114.572 379.191 114.572C392.675 114.572 426.706 121.629 431.843 129.97L427.991 219.789C427.991 219.789 436.98 233.262 431.843 238.395C426.706 243.527 432.806 254.113 432.806 254.113C432.806 254.113 392.675 251.868 379.191 257.642C365.707 263.416 349.654 257.642 349.654 257.642C349.654 257.642 356.396 248.981 349.975 246.414C343.554 243.848 353.828 202.788 353.828 202.788L350.939 176.804L338.097 133.177Z" fill="#3598DB"/>
<path d="M426.064 129.97L430.88 129.007C430.88 129.007 462.022 179.37 460.096 190.277C458.169 201.184 445.969 250.585 445.969 250.585L429.275 246.094L438.906 199.259L423.496 160.123L426.064 129.97Z" fill="#3598DB"/>
<path d="M345.16 135.744L338.418 132.857C337.312 135.897 335.991 138.855 334.467 141.709C326.502 156.677 323.97 205.675 323.97 205.675L296.36 228.771L305.992 242.886C305.992 242.886 341.926 222.082 347.728 210.166C352.573 200.214 351.902 164.935 351.902 164.935L345.16 135.744Z" fill="#3598DB"/>
<path d="M392.341 103.159C392.341 103.159 415.049 86.9522 403.155 67.5046C394.903 54.013 377.804 55.0809 368.105 57.0005C365.492 57.4824 363.035 58.592 360.947 60.2337C358.858 61.8754 357.201 64 356.117 66.4242C354.495 70.2057 354.495 73.9872 360.983 73.9872C373.959 73.9872 367.471 83.711 367.471 83.711C367.471 83.711 376.122 85.8718 373.959 93.4348C371.797 100.998 392.341 103.159 392.341 103.159Z" fill="#3598DB"/>
</svg>