<svg width="388" height="367" viewBox="0 0 388 367" fill="none" xmlns="http://www.w3.org/2000/svg">
<path d="M118.315 255.216L318.249 255.216C322.517 255.216 325.978 251.756 325.978 247.488L325.978 12.0861C325.978 7.81787 322.517 4.35777 318.249 4.35777L118.315 4.35777C114.046 4.35777 110.586 7.81787 110.586 12.0861L110.586 247.488C110.586 251.756 114.046 255.216 118.315 255.216Z" fill="white"/>
<path d="M110.11 247.489V12.086C110.113 9.91107 110.978 7.82595 112.516 6.28808C114.054 4.75022 116.139 3.8852 118.314 3.88281H318.249C320.423 3.8852 322.509 4.75022 324.047 6.28808C325.585 7.82595 326.45 9.91107 326.452 12.086V247.489C326.45 249.664 325.585 251.749 324.047 253.287C322.509 254.825 320.424 255.69 318.249 255.692H118.314C116.139 255.69 114.054 254.825 112.516 253.287C110.978 251.749 110.113 249.664 110.11 247.489V247.489ZM118.314 4.83389C116.391 4.83602 114.548 5.60081 113.188 6.96045C111.828 8.3201 111.063 10.1636 111.061 12.0865V247.489C111.063 249.412 111.828 251.255 113.188 252.615C114.548 253.975 116.391 254.74 118.314 254.742H318.249C320.171 254.74 322.015 253.975 323.375 252.615C324.734 251.255 325.499 249.412 325.502 247.489V12.086C325.499 10.1631 324.734 8.31962 323.375 6.95998C322.015 5.60033 320.171 4.83555 318.249 4.83341L118.314 4.83389Z" fill="#292A2E"/>
<path d="M159.225 365.858C159.157 365.858 159.09 365.844 159.028 365.815C158.966 365.787 158.911 365.746 158.866 365.694C158.821 365.643 158.788 365.582 158.769 365.517C158.75 365.451 158.745 365.383 158.755 365.315L174.65 255.624C174.658 255.561 174.678 255.501 174.71 255.446C174.741 255.391 174.783 255.344 174.834 255.305C174.884 255.267 174.941 255.239 175.002 255.224C175.063 255.208 175.127 255.204 175.19 255.213C175.252 255.222 175.312 255.244 175.366 255.276C175.42 255.309 175.467 255.352 175.505 255.403C175.542 255.454 175.569 255.511 175.583 255.573C175.598 255.634 175.601 255.698 175.59 255.76L159.693 365.452C159.677 365.564 159.621 365.667 159.535 365.742C159.449 365.816 159.339 365.858 159.225 365.858Z" fill="#292A2E"/>
<path d="M277.34 365.858C277.225 365.858 277.115 365.817 277.029 365.742C276.943 365.667 276.886 365.564 276.87 365.451L260.975 255.759C260.959 255.635 260.992 255.511 261.068 255.411C261.143 255.312 261.254 255.246 261.378 255.229C261.501 255.211 261.627 255.242 261.727 255.316C261.828 255.389 261.895 255.5 261.915 255.623L277.812 365.315C277.822 365.383 277.817 365.452 277.798 365.517C277.779 365.583 277.746 365.643 277.701 365.695C277.657 365.746 277.602 365.787 277.539 365.816C277.477 365.844 277.41 365.859 277.342 365.859L277.34 365.858Z" fill="#292A2E"/>
<g opacity="0.1">
<path opacity="0.1" d="M132.333 125.272L304.232 125.272C307.254 125.272 309.704 122.822 309.704 119.8V27.9576C309.704 24.9357 307.254 22.4859 304.232 22.4859L132.333 22.4859C129.312 22.4859 126.862 24.9357 126.862 27.9576V119.8C126.862 122.822 129.312 125.272 132.333 125.272Z" fill="#367CFF"/>
</g>
<g opacity="0.1">
<path opacity="0.1" d="M126.667 231.476V143.004C126.669 141.486 127.273 140.03 128.346 138.957C129.42 137.883 130.875 137.28 132.393 137.278H303.694C305.212 137.28 306.667 137.884 307.741 138.957C308.814 140.031 309.418 141.486 309.419 143.004V231.476C309.418 232.994 308.814 234.45 307.74 235.524C306.667 236.597 305.211 237.201 303.693 237.203H132.393C130.875 237.201 129.42 236.597 128.346 235.524C127.272 234.45 126.669 232.994 126.667 231.476V231.476Z" fill="#367CFF"/>
</g>
<path d="M287.518 224.144H290.917C291.429 224.144 291.844 223.729 291.844 223.218V158.272C291.844 157.761 291.429 157.346 290.917 157.346H287.518C287.006 157.346 286.591 157.761 286.591 158.272V223.218C286.591 223.729 287.006 224.144 287.518 224.144Z" fill="white"/>
<path opacity="0.3" d="M292.771 224.144H296.17C296.682 224.144 297.097 223.729 297.097 223.218V179.252C297.097 178.74 296.682 178.326 296.17 178.326H292.771C292.259 178.326 291.844 178.74 291.844 179.252V223.218C291.844 223.729 292.259 224.144 292.771 224.144Z" fill="#367CFF"/>
<path d="M245.482 224.144H248.882C249.394 224.144 249.809 223.729 249.809 223.218V216.618C249.809 216.107 249.394 215.692 248.882 215.692H245.482C244.971 215.692 244.556 216.107 244.556 216.618V223.218C244.556 223.729 244.971 224.144 245.482 224.144Z" fill="white"/>
<path opacity="0.3" d="M250.734 224.144H254.134C254.646 224.144 255.061 223.729 255.061 223.218V175.48C255.061 174.968 254.646 174.554 254.134 174.554H250.734C250.223 174.554 249.808 174.968 249.808 175.48V223.218C249.808 223.729 250.223 224.144 250.734 224.144Z" fill="#367CFF"/>
<path d="M266.5 224.144H269.9C270.411 224.144 270.826 223.729 270.826 223.218V185.087C270.826 184.576 270.411 184.161 269.9 184.161H266.5C265.988 184.161 265.574 184.576 265.574 185.087V223.218C265.574 223.729 265.988 224.144 266.5 224.144Z" fill="white"/>
<path opacity="0.3" d="M271.753 224.144H275.153C275.664 224.144 276.079 223.729 276.079 223.218V198.902C276.079 198.391 275.664 197.976 275.153 197.976H271.753C271.241 197.976 270.827 198.391 270.827 198.902V223.218C270.827 223.729 271.241 224.144 271.753 224.144Z" fill="#367CFF"/>
<path d="M182.429 224.144H185.829C186.34 224.144 186.755 223.729 186.755 223.217V171.191C186.755 170.679 186.34 170.264 185.829 170.264H182.429C181.917 170.264 181.502 170.679 181.502 171.191V223.217C181.502 223.729 181.917 224.144 182.429 224.144Z" fill="white"/>
<path opacity="0.3" d="M187.682 224.145H191.081C191.593 224.145 192.008 223.73 192.008 223.218V191.028C192.008 190.516 191.593 190.102 191.081 190.102H187.682C187.17 190.102 186.755 190.516 186.755 191.028V223.218C186.755 223.73 187.17 224.145 187.682 224.145Z" fill="#367CFF"/>
<path d="M224.464 224.144H227.864C228.375 224.144 228.79 223.729 228.79 223.217V179.595C228.79 179.084 228.375 178.669 227.864 178.669H224.464C223.952 178.669 223.538 179.084 223.538 179.595V223.217C223.538 223.729 223.952 224.144 224.464 224.144Z" fill="white"/>
<path opacity="0.3" d="M229.716 224.144H233.116C233.627 224.144 234.042 223.729 234.042 223.217V184.744C234.042 184.232 233.627 183.818 233.116 183.818H229.716C229.204 183.818 228.789 184.232 228.789 184.744V223.217C228.789 223.729 229.204 224.144 229.716 224.144Z" fill="#367CFF"/>
<path d="M203.446 224.144H206.846C207.358 224.144 207.772 223.73 207.772 223.218V158.273C207.772 157.761 207.358 157.346 206.846 157.346H203.446C202.935 157.346 202.52 157.761 202.52 158.273V223.218C202.52 223.73 202.935 224.144 203.446 224.144Z" fill="white"/>
<path opacity="0.3" d="M208.698 224.144H212.098C212.61 224.144 213.024 223.73 213.024 223.218V161.49C213.024 160.979 212.61 160.564 212.098 160.564H208.698C208.187 160.564 207.772 160.979 207.772 161.49V223.218C207.772 223.73 208.187 224.144 208.698 224.144Z" fill="#367CFF"/>
<path d="M161.411 224.144H164.811C165.323 224.144 165.737 223.73 165.737 223.218V158.273C165.737 157.761 165.323 157.346 164.811 157.346H161.411C160.9 157.346 160.485 157.761 160.485 158.273V223.218C160.485 223.73 160.9 224.144 161.411 224.144Z" fill="white"/>
<path opacity="0.3" d="M166.663 224.144H170.063C170.575 224.144 170.989 223.73 170.989 223.218V179.252C170.989 178.741 170.575 178.326 170.063 178.326H166.663C166.151 178.326 165.737 178.741 165.737 179.252V223.218C165.737 223.73 166.151 224.144 166.663 224.144Z" fill="#367CFF"/>
<path d="M140.394 224.144H143.793C144.305 224.144 144.72 223.729 144.72 223.218V185.087C144.72 184.576 144.305 184.161 143.793 184.161H140.394C139.882 184.161 139.467 184.576 139.467 185.087V223.218C139.467 223.729 139.882 224.144 140.394 224.144Z" fill="white"/>
<path opacity="0.3" d="M145.645 224.144H149.045C149.557 224.144 149.972 223.729 149.972 223.218V198.902C149.972 198.391 149.557 197.976 149.045 197.976H145.645C145.134 197.976 144.719 198.391 144.719 198.902V223.218C144.719 223.729 145.134 224.144 145.645 224.144Z" fill="#367CFF"/>
<path opacity="0.2" d="M297.143 55.4723V112.331C297.143 112.573 297.047 112.805 296.876 112.976C296.705 113.147 296.473 113.243 296.232 113.244H140.331C140.089 113.243 139.857 113.147 139.686 112.976C139.515 112.805 139.419 112.573 139.419 112.331V82.1461C139.419 81.986 139.461 81.8287 139.541 81.69C139.621 81.5514 139.736 81.4362 139.875 81.3562L167.477 65.4194C167.618 65.3382 167.778 65.296 167.94 65.2973C168.103 65.2985 168.262 65.3432 168.401 65.4265L180.827 72.8526C180.982 72.9456 181.162 72.9902 181.343 72.9807C181.524 72.9712 181.697 72.9081 181.842 72.7994L194.89 63.0053C195.023 62.9053 195.18 62.8435 195.346 62.8268C195.512 62.81 195.679 62.8389 195.829 62.9103L211.93 70.5683C212.102 70.6502 212.295 70.6762 212.483 70.6426C212.671 70.609 212.843 70.5176 212.976 70.381L230.852 52.0264C231.007 51.8676 231.213 51.7703 231.434 51.7528C231.655 51.7353 231.874 51.7988 232.052 51.9314L243.66 60.6231C243.828 60.7492 244.034 60.8133 244.244 60.8047C244.454 60.796 244.655 60.7151 244.812 60.5756L252.407 53.8264C252.56 53.6901 252.754 53.6094 252.959 53.5974C253.164 53.5854 253.366 53.6428 253.534 53.7603L264.313 61.2843C264.468 61.3923 264.653 61.4495 264.842 61.4482C265.031 61.4468 265.215 61.3869 265.368 61.2767L284.005 47.8633C284.149 47.76 284.319 47.7005 284.496 47.6921C284.672 47.6836 284.847 47.7266 285 47.8157L296.692 54.6833C296.83 54.7639 296.944 54.8791 297.023 55.0176C297.102 55.156 297.144 55.3128 297.143 55.4723V55.4723Z" fill="#367CFF"/>
<path opacity="0.61" d="M139.944 81.3623C140.024 81.3624 140.102 81.3413 140.171 81.301L167.859 65.3148L181.041 73.1928C181.119 73.2392 181.209 73.2614 181.299 73.2567C181.39 73.2519 181.477 73.2205 181.549 73.1662L195.306 62.8389L212.246 70.8957C212.332 70.9364 212.429 70.9491 212.523 70.932C212.617 70.915 212.703 70.8691 212.769 70.8007L231.379 51.6908L243.903 61.0684C243.987 61.1315 244.09 61.1635 244.195 61.1592C244.3 61.1549 244.4 61.1144 244.479 61.0447L252.899 53.5597L264.504 61.6626C264.581 61.7165 264.674 61.7452 264.768 61.7445C264.862 61.7438 264.954 61.7138 265.031 61.6588L284.435 47.6964L296.389 54.7165C296.44 54.7469 296.498 54.7668 296.557 54.7751C296.616 54.7834 296.677 54.7799 296.734 54.7649C296.792 54.7499 296.847 54.7236 296.895 54.6875C296.943 54.6515 296.983 54.6063 297.013 54.5547C297.043 54.5031 297.063 54.446 297.072 54.3867C297.08 54.3274 297.077 54.267 297.061 54.209C297.046 54.1511 297.02 54.0966 296.984 54.0488C296.948 54.001 296.903 53.9608 296.851 53.9304L284.641 46.7591C284.565 46.7144 284.477 46.6928 284.389 46.6969C284.3 46.701 284.215 46.7307 284.143 46.7824L264.761 60.7295L253.126 52.6081C253.042 52.5493 252.94 52.5205 252.838 52.5265C252.736 52.5324 252.638 52.5727 252.562 52.6409L244.149 60.1174L231.601 50.7226C231.513 50.6562 231.403 50.6244 231.292 50.6332C231.182 50.6419 231.079 50.6906 231.001 50.7701L212.34 69.9332L195.446 61.8978C195.371 61.8621 195.287 61.8476 195.204 61.856C195.122 61.8644 195.043 61.8953 194.976 61.9454L181.243 72.2546L168.094 64.396C168.024 64.3544 167.945 64.3322 167.864 64.3316C167.782 64.331 167.703 64.3521 167.632 64.3927L139.712 80.5124C139.625 80.5627 139.557 80.6403 139.519 80.7331C139.481 80.8259 139.474 80.9288 139.5 81.0258C139.526 81.1228 139.583 81.2084 139.663 81.2695C139.743 81.3306 139.84 81.3637 139.941 81.3637L139.944 81.3623Z" fill="#367CFF"/>
<path d="M38.5754 344.722C38.5754 344.722 40.7214 355.844 51.1366 356.466C61.5519 357.088 59.2933 365.383 59.2933 365.383H19.4922V345.498L38.5754 344.722Z" fill="#0065CF"/>
<path d="M16.793 141.803C16.793 141.803 19.7693 138.459 19.7432 146.044C19.6448 174.338 17.7355 351.821 17.7355 351.821L43.8893 351.602L59.7324 140.653L16.793 141.803Z" fill="#367CFF"/>
<path d="M83.2346 344.722C83.2346 344.722 85.3806 355.844 95.7958 356.466C106.211 357.088 103.952 365.383 103.952 365.383H64.1514V345.498L83.2346 344.722Z" fill="#0065CF"/>
<path d="M88.2931 144C88.2931 144 91.5603 240.702 91.221 245.428L88.1487 351.087L62.4274 351.563L58.2794 241.606C58.2794 241.606 55.5607 211.274 48.2321 183.109C44.4826 168.653 42.2261 153.852 41.498 138.936V138.936L88.2931 144Z" fill="#367CFF"/>
<path d="M54.3613 212.562L56.5059 179.762C56.5059 179.762 58.7089 193.398 58.7089 205.151C58.7089 210.896 57.5259 233.641 57.5259 233.641L54.3613 212.562Z" fill="#0A0A0A"/>
<path d="M16.5084 141.799L16.4229 141.804C16.4229 141.804 16.4846 140.155 16.5084 141.799Z" fill="#333333"/>
<path d="M16.6158 141.799L16.5303 141.804C16.5303 141.804 16.5921 140.155 16.6158 141.799Z" fill="#333333"/>
<path d="M159.932 63.3105C159.774 62.9985 159.524 62.7431 159.215 62.5796C158.906 62.4161 158.554 62.3526 158.207 62.3979C158.21 62.377 158.208 62.3557 158.201 62.3358C158.194 62.3159 158.182 62.298 158.167 62.2837C158.151 62.2693 158.133 62.259 158.112 62.2536C158.092 62.2481 158.071 62.2478 158.05 62.2525L159.219 61.4145C159.569 61.175 159.821 60.8168 159.927 60.4061C160.034 59.9954 159.988 59.5601 159.798 59.1806C159.599 58.8118 159.27 58.5301 158.874 58.3904C158.479 58.2506 158.046 58.2628 157.659 58.4244C157.662 58.4083 157.651 58.3921 157.648 58.3769L158.129 58.0323C158.458 57.8052 158.698 57.4716 158.809 57.0878C158.92 56.7041 158.895 56.2937 158.738 55.9262C158.635 55.6978 158.483 55.4951 158.292 55.3327C158.101 55.1704 157.876 55.0524 157.634 54.9873C157.392 54.9221 157.139 54.9115 156.893 54.9562C156.646 55.0009 156.412 55.0997 156.209 55.2456L155.1 56.0408C155.096 56.0341 155.1 56.0265 155.095 56.0204C155.091 56.0142 155.079 56.0118 155.073 56.0051C155.327 55.7188 155.477 55.3543 155.497 54.9716C155.518 54.5889 155.407 54.2107 155.184 53.8991C154.661 53.0569 153.452 53.2289 152.735 53.7427L146.208 58.2514L147.375 56.287C147.61 55.9092 147.693 55.4561 147.607 55.0195C147.52 54.5829 147.271 54.1953 146.91 53.9352C146.719 53.8073 146.504 53.7197 146.278 53.6777C146.052 53.6357 145.82 53.6402 145.596 53.6909C145.372 53.7417 145.16 53.8375 144.974 53.9727C144.789 54.1078 144.632 54.2794 144.515 54.4771L138.146 65.2012C137.399 66.4593 137.171 67.9591 137.512 69.3821C137.853 70.8051 138.736 72.039 139.972 72.8217C141.406 73.7296 143.078 74.1887 144.774 74.14C146.471 74.0913 148.114 73.5371 149.493 72.5484L159.35 65.4836C159.678 65.2399 159.913 64.8927 160.019 64.4982C160.124 64.1038 160.094 63.6853 159.932 63.3105V63.3105Z" fill="#E98862"/>
<g opacity="0.25">
<path opacity="0.25" d="M148.641 60.4954C148.665 60.5282 148.701 60.5504 148.741 60.5572C148.782 60.5639 148.823 60.5547 148.856 60.5315L155.058 56.2362C155.075 56.2245 155.089 56.2097 155.1 56.1924C155.111 56.1752 155.119 56.156 155.123 56.1358C155.126 56.1156 155.126 56.0949 155.122 56.0749C155.117 56.0548 155.109 56.0359 155.097 56.019C155.086 56.0022 155.071 55.9878 155.054 55.9767C155.036 55.9656 155.017 55.958 154.997 55.9543C154.977 55.9506 154.956 55.951 154.936 55.9553C154.916 55.9596 154.897 55.9679 154.88 55.9796L148.678 60.2748C148.644 60.2985 148.621 60.3346 148.614 60.3753C148.606 60.416 148.615 60.458 148.639 60.492L148.641 60.4954Z" fill="#0C0C0C"/>
</g>
<g opacity="0.25">
<path opacity="0.25" d="M150.461 63.2826C150.485 63.3157 150.52 63.338 150.561 63.3449C150.601 63.3517 150.642 63.3425 150.676 63.3192L157.597 58.5253C157.631 58.5016 157.654 58.4655 157.661 58.4248C157.669 58.3841 157.659 58.3421 157.636 58.3081C157.611 58.2752 157.575 58.2528 157.535 58.2455C157.495 58.2382 157.453 58.2465 157.419 58.2687L150.498 63.0625C150.464 63.0861 150.441 63.1223 150.433 63.163C150.426 63.2037 150.435 63.2457 150.458 63.2797L150.461 63.2826Z" fill="#0C0C0C"/>
</g>
<g opacity="0.25">
<path opacity="0.25" d="M152.413 66.3131C152.437 66.346 152.473 66.3682 152.513 66.3749C152.553 66.3817 152.595 66.3724 152.628 66.3492L158.149 62.5254C158.183 62.5018 158.206 62.4657 158.213 62.425C158.221 62.3842 158.212 62.3422 158.188 62.3082C158.165 62.2742 158.129 62.2509 158.088 62.2435C158.047 62.2361 158.005 62.2452 157.971 62.2687L152.45 66.0925C152.416 66.1161 152.393 66.1523 152.385 66.193C152.378 66.2337 152.387 66.2757 152.41 66.3097L152.413 66.3131Z" fill="#0C0C0C"/>
</g>
<path d="M134.387 62.7573L115.68 94.6176L92.8538 64.6775L73.8975 81.7679L106.271 123.694L106.483 123.993C107.778 125.768 109.505 127.183 111.499 128.106C113.493 129.029 115.689 129.429 117.881 129.269C120.073 129.109 122.187 128.393 124.026 127.189C125.864 125.986 127.366 124.334 128.39 122.39L154.992 74.2158L134.387 62.7573Z" fill="#CCF7FF"/>
<path d="M113.846 98.449C113.809 98.4489 113.772 98.44 113.738 98.4229C113.71 98.4087 113.685 98.3892 113.665 98.3654C113.645 98.3416 113.63 98.3141 113.62 98.2844C113.61 98.2547 113.607 98.2234 113.609 98.1923C113.612 98.1611 113.62 98.1308 113.634 98.103L115.469 94.5098C115.483 94.4819 115.502 94.4572 115.526 94.437C115.55 94.4167 115.577 94.4013 115.607 94.3917C115.637 94.3821 115.668 94.3784 115.699 94.3809C115.73 94.3834 115.761 94.3919 115.789 94.4061C115.816 94.4203 115.841 94.4399 115.861 94.4636C115.882 94.4874 115.897 94.5149 115.907 94.5446C115.916 94.5743 115.92 94.6056 115.917 94.6368C115.915 94.6679 115.906 94.6982 115.892 94.726L114.058 98.3193C114.038 98.3583 114.008 98.3911 113.97 98.4139C113.933 98.4368 113.89 98.449 113.846 98.449V98.449Z" fill="#0C0C0C"/>
<path d="M91.5369 94.4363L90.9658 104.499L91.4404 104.526L92.0114 94.4632L91.5369 94.4363Z" fill="#0C0C0C"/>
<path d="M31.2583 21.6088C31.2583 21.6088 30.3819 32.8097 27.8129 36.8474C20.4172 48.4718 18.161 61.6185 25.3523 68.5841C32.5435 75.5496 78.9185 76.1817 82.6125 60.3951C85.7243 47.1043 79.3938 45.5981 77.9764 34.5864C77.3352 29.6048 75.5339 19.153 75.5339 19.153" fill="#367CFF"/>
<path d="M70.8077 57.8713C70.7278 57.8609 69.8395 72.6018 52.7149 71.3166C40.86 70.4283 36.6332 57.8504 36.3613 57.8504C37.6394 57.579 39.792 57.185 40.3595 56.8808C42.226 55.8779 44.536 54.8342 45.1377 51.2091C45.4847 49.1178 44.8963 38.4302 45.0774 36.3165L63.2747 40.378C63.0204 44.8429 61.2409 55.1935 67.4782 57.0253C68.5163 57.3281 69.6342 57.6071 70.8077 57.8713Z" fill="#E98862"/>
<path opacity="0.52" d="M63.5287 52.7951C63.2437 51.8764 63.0601 50.9294 62.9811 49.9708C62.7809 47.7834 62.8208 45.5805 63.0999 43.4017C59.4013 42.9026 55.9168 41.376 53.0426 38.9952C52.7047 40.2434 50.8463 45.697 51.361 46.8824C52.3335 49.1239 56.9039 52.7951 63.5287 52.7951Z" fill="#0C0C0C"/>
<path d="M61.1168 48.1557C53.935 48.7669 44.6857 45.7896 42.8739 36.2138L41.2384 27.5733C39.426 17.9975 42.9865 9.28285 52.0029 7.57652C61.0189 5.8702 69.2273 12.3576 71.0396 21.9334L71.7635 25.7586C72.4589 29.4332 73.9313 47.0653 61.1168 48.1557Z" fill="#E98862"/>
<path d="M69.1937 26.1759C69.818 26.1759 70.324 25.6699 70.324 25.0457C70.324 24.4214 69.818 23.9154 69.1937 23.9154C68.5695 23.9154 68.0635 24.4214 68.0635 25.0457C68.0635 25.6699 68.5695 26.1759 69.1937 26.1759Z" fill="#0C0C0C"/>
<path d="M57.6156 27.7227C58.2398 27.7227 58.7459 27.2166 58.7459 26.5924C58.7459 25.9682 58.2398 25.4622 57.6156 25.4622C56.9914 25.4622 56.4854 25.9682 56.4854 26.5924C56.4854 27.2166 56.9914 27.7227 57.6156 27.7227Z" fill="#0C0C0C"/>
<path d="M63.9695 34.8782H63.9871C64.3524 34.8063 64.7133 34.7143 65.0684 34.6025C65.5984 34.4319 66.2933 34.15 66.2025 33.6709C66.0993 33.1253 63.4909 27.5215 63.1934 26.8841C63.1674 26.8285 63.1204 26.7854 63.0627 26.7644C63.0049 26.7434 62.9413 26.7462 62.8856 26.7722C62.8299 26.7982 62.7869 26.8452 62.7659 26.9029C62.7449 26.9606 62.7477 27.0243 62.7737 27.08C63.8863 29.4664 65.6782 33.39 65.7471 33.7574C65.6877 33.9276 64.8075 34.2513 63.9011 34.4229C63.8416 34.4333 63.7885 34.4665 63.7532 34.5155C63.7178 34.5645 63.7031 34.6254 63.712 34.6851C63.7209 34.7448 63.7529 34.7987 63.801 34.8353C63.8491 34.8718 63.9096 34.888 63.9695 34.8806V34.8782Z" fill="#0C0C0C"/>
<path d="M62.6344 39.0129C64.105 38.8219 65.5102 38.288 66.7367 37.4544C66.7882 37.4209 66.8243 37.3684 66.837 37.3083C66.8498 37.2482 66.8381 37.1856 66.8047 37.1341C66.7712 37.0826 66.7186 37.0465 66.6586 37.0337C66.5985 37.021 66.5358 37.0326 66.4843 37.0661C63.8298 38.7957 61.1923 39.0752 58.8572 37.8741C58.81 37.8486 58.7614 37.8256 58.7117 37.8052C58.6541 37.7849 58.5908 37.7882 58.5357 37.8143C58.4805 37.8405 58.4379 37.8874 58.4171 37.9448C58.3963 38.0023 58.3991 38.0656 58.4248 38.121C58.4506 38.1764 58.4971 38.2193 58.5544 38.2406C58.5729 38.2482 58.6019 38.2643 58.6457 38.2881C59.8735 38.9213 61.2623 39.1737 62.6344 39.0129V39.0129Z" fill="#0C0C0C"/>
<path d="M34.0254 30.5849L42.1055 29.1029C48.2264 26.6261 50.0777 16.0293 50.0777 16.0293C50.0777 16.0293 57.5152 23.2762 75.5333 19.1554C75.5333 19.1554 71.921 -5.97224 45.3014 1.33168C36.718 3.68773 30.5577 12.3372 31.3277 23.897C31.8628 31.9994 34.0254 30.5849 34.0254 30.5849Z" fill="#367CFF"/>
<path d="M43.9853 39.0253C41.2457 39.5438 38.4694 37.0328 37.949 34.2927C37.4285 31.5526 39.3659 29.6215 42.106 29.1029L43.8646 30.6714L46.3409 38.5794L43.9853 39.0253Z" fill="#E98862"/>
<path d="M64.8438 22.3023C65.643 21.7864 66.5663 21.4949 67.5169 21.4582C67.9848 21.4375 68.4533 21.487 68.9066 21.605C69.3555 21.7204 69.7881 21.8918 70.1942 22.115C70.2515 22.1432 70.2953 22.1929 70.3161 22.2532C70.3369 22.3135 70.333 22.3796 70.3053 22.4371C70.2776 22.4946 70.2283 22.5388 70.1681 22.5601C70.108 22.5814 70.0418 22.5781 69.9841 22.5509L69.967 22.5428C69.5917 22.3584 69.1947 22.2219 68.7854 22.1364C68.3807 22.0498 67.9652 22.025 67.553 22.0627C66.7355 22.1311 65.9506 22.4147 65.2782 22.8845L65.2563 22.9002C65.2177 22.9283 65.1739 22.9485 65.1275 22.9597C65.081 22.9708 65.0328 22.9728 64.9856 22.9653C64.9385 22.9578 64.8932 22.9412 64.8525 22.9162C64.8117 22.8913 64.7763 22.8585 64.7482 22.8199C64.7201 22.7813 64.6999 22.7375 64.6888 22.691C64.6776 22.6446 64.6757 22.5964 64.6832 22.5492C64.6906 22.502 64.7073 22.4568 64.7323 22.4161C64.7572 22.3753 64.7899 22.3399 64.8286 22.3118L64.8438 22.3023Z" fill="#0C0C0C"/>
<path d="M57.6363 23.9991C56.8395 23.8044 56.0054 23.8236 55.2184 24.0547C54.8205 24.1686 54.442 24.342 54.0958 24.5689C53.7448 24.7971 53.424 25.0686 53.1409 25.3769L53.1281 25.3898C53.0838 25.4342 53.0239 25.4597 52.9611 25.4608C52.8984 25.462 52.8376 25.4387 52.7918 25.3959C52.7459 25.353 52.7184 25.2941 52.7152 25.2314C52.7119 25.1687 52.7332 25.1072 52.7745 25.0599C53.0725 24.7049 53.414 24.3889 53.7911 24.1193C54.1708 23.845 54.5896 23.6294 55.0336 23.48C55.9334 23.1707 56.8998 23.109 57.8316 23.3013C57.9262 23.3216 58.0088 23.3786 58.0613 23.4598C58.1138 23.541 58.1319 23.6398 58.1116 23.7343C58.0913 23.8289 58.0343 23.9115 57.9531 23.964C57.8719 24.0165 57.7731 24.0346 57.6786 24.0143L57.6639 24.0109L57.6363 23.9991Z" fill="#0C0C0C"/>
<path d="M62.9471 41.187C63.2135 41.1565 63.4768 41.1036 63.7342 41.0287C63.7638 41.0207 63.7916 41.0068 63.8158 40.988C63.84 40.9691 63.8602 40.9456 63.8753 40.9189C63.8904 40.8922 63.9 40.8627 63.9035 40.8322C63.9071 40.8017 63.9046 40.7708 63.8961 40.7413C63.8876 40.7118 63.8734 40.6843 63.8542 40.6604C63.835 40.6364 63.8112 40.6166 63.7842 40.6019C63.7572 40.5872 63.7276 40.5781 63.6971 40.575C63.6666 40.5719 63.6357 40.5749 63.6063 40.5838C62.0564 41.0296 61.1752 40.4388 61.1386 40.4132C61.0882 40.3779 61.0258 40.3641 60.9652 40.3747C60.9046 40.3854 60.8507 40.4198 60.8154 40.4702C60.7801 40.5206 60.7663 40.583 60.777 40.6436C60.7877 40.7042 60.822 40.7581 60.8724 40.7934C61.4979 41.16 62.2308 41.2991 62.9471 41.187V41.187Z" fill="#0C0C0C"/>
<path d="M42.1262 29.0007L42.0459 28.7768C52.2862 25.1004 49.7819 15.0511 49.7557 14.9499L49.9853 14.89C50.0124 14.9927 52.5738 25.2496 42.1262 29.0007Z" fill="#0C0C0C"/>
<path opacity="0.1" d="M56.7023 35.5837C57.8846 35.4565 58.7674 34.6503 58.6741 33.783C58.5808 32.9158 57.5467 32.3158 56.3644 32.443C55.1821 32.5702 54.2993 33.3764 54.3926 34.2437C54.4859 35.111 55.52 35.7109 56.7023 35.5837Z" fill="#0C0C0C"/>
<path opacity="0.1" d="M69.2166 32.266C69.3116 33.132 70.3459 33.7309 71.5284 33.6054C71.7327 33.5832 71.9342 33.5401 72.1297 33.4766C72.1962 32.4461 72.211 31.4542 72.1915 30.5354C71.8646 30.4499 71.5247 30.4261 71.1891 30.4651C70.0065 30.5906 69.1244 31.3967 69.2166 32.266Z" fill="#0C0C0C"/>
<path d="M92.0825 90.3236C91.5431 96.6603 88.9194 136.194 88.4009 144H19.781C19.377 136.96 14.7124 106.177 13.1815 92.4112C11.7199 79.2748 8.85245 72.6981 10.9542 68.8145C14.3887 62.4673 23.774 58.7999 30.1734 57.9334C34.0813 57.4044 39.9584 57.0251 39.9584 57.0251C39.9584 57.0251 40.456 67.092 52.3223 67.6524C68.4754 68.4128 67.3969 57.0251 67.4768 57.0251C70.0938 57.0251 85.0429 58.6816 88.7003 60.8494C98.6664 66.7512 93.2275 76.895 92.0825 90.3236Z" fill="#CCF7FF"/>
<path d="M136.625 94.7502L130.01 126.899C129.876 127.552 129.522 128.139 129.007 128.562C128.492 128.986 127.848 129.22 127.181 129.226L81.6354 129.613C81.201 129.617 80.7712 129.523 80.3775 129.34C79.9839 129.156 79.6363 128.886 79.3604 128.55C79.0844 128.215 78.887 127.822 78.7826 127.4C78.6782 126.978 78.6695 126.538 78.757 126.113L85.3713 93.9636C85.5058 93.3108 85.86 92.7239 86.3748 92.3006C86.8895 91.8774 87.5338 91.6433 88.2003 91.6375L133.746 91.2496C134.181 91.2459 134.611 91.3395 135.004 91.5234C135.398 91.7074 135.745 91.977 136.021 92.3126C136.297 92.6482 136.495 93.0413 136.599 93.4631C136.703 93.8848 136.712 94.3246 136.625 94.7502Z" fill="#3498DB"/>
<path d="M94.1535 117.586C94.1778 118.009 94.0484 118.427 93.789 118.763C93.5296 119.098 93.1577 119.329 92.7418 119.412L91.3397 119.721C91.3648 119.729 91.3874 119.743 91.4056 119.762C91.4239 119.781 91.4371 119.804 91.4443 119.83C91.4477 119.86 91.441 119.89 91.4253 119.915C91.7624 120.01 92.0616 120.207 92.2814 120.48C92.5011 120.753 92.6305 121.087 92.6515 121.436C92.6535 121.844 92.5181 122.24 92.2671 122.561C92.0161 122.881 91.6643 123.108 91.2684 123.204L79.4287 125.833C78.8234 125.969 78.2049 126.037 77.5846 126.037C76.2027 126.037 74.8416 125.701 73.6186 125.057C72.3956 124.414 71.3474 123.483 70.5644 122.344C69.7341 121.139 69.4066 119.658 69.6516 118.216C69.8966 116.773 70.6947 115.484 71.8762 114.621L81.9478 107.258C82.1695 107.096 82.4272 106.99 82.6988 106.949L81.772 111.45L82.0191 111.393L82.0714 111.384L89.795 109.811C90.6553 109.62 91.834 109.934 91.9861 110.913C92.0676 111.288 92.02 111.679 91.8508 112.024C91.6817 112.368 91.401 112.645 91.0545 112.81C91.0593 112.814 91.0688 112.819 91.0688 112.829C91.0688 112.838 91.064 112.843 91.064 112.852L92.3996 112.558C92.644 112.504 92.8973 112.504 93.1414 112.56C93.3854 112.615 93.6141 112.724 93.811 112.879C94.0078 113.033 94.168 113.23 94.2798 113.454C94.3916 113.678 94.4524 113.924 94.4577 114.174C94.4576 114.573 94.3194 114.961 94.0664 115.27C93.8135 115.579 93.4614 115.791 93.0698 115.871L92.4947 115.999C92.4899 116.018 92.4947 116.037 92.4852 116.051C92.9042 116.054 93.307 116.213 93.6153 116.497C93.9237 116.78 94.1155 117.169 94.1535 117.586Z" fill="#E98862"/>
<g opacity="0.25">
<path opacity="0.25" d="M83.3752 114.412C83.3844 114.452 83.4087 114.486 83.443 114.508C83.4773 114.53 83.5188 114.538 83.5587 114.53L90.9486 113.015C90.9695 113.012 90.9894 113.004 91.0072 112.993C91.0251 112.981 91.0405 112.967 91.0525 112.949C91.0645 112.932 91.0728 112.912 91.0771 112.892C91.0813 112.871 91.0813 112.85 91.077 112.829C91.0728 112.808 91.0644 112.789 91.0524 112.771C91.0404 112.754 91.025 112.739 91.0071 112.728C90.9893 112.717 90.9693 112.709 90.9485 112.706C90.9276 112.703 90.9063 112.704 90.8859 112.709L83.4959 114.225C83.4554 114.233 83.4198 114.257 83.3969 114.292C83.3741 114.326 83.366 114.368 83.3742 114.409L83.3752 114.412Z" fill="#0C0C0C"/>
</g>
<g opacity="0.25">
<path opacity="0.25" d="M83.9533 117.69C83.9624 117.73 83.9867 117.764 84.021 117.786C84.0553 117.808 84.0969 117.816 84.1368 117.808L92.3842 116.117C92.4247 116.108 92.4602 116.084 92.483 116.05C92.5058 116.015 92.514 115.973 92.5059 115.932C92.4962 115.892 92.4718 115.858 92.4376 115.835C92.4034 115.813 92.3619 115.804 92.3214 115.811L84.0741 117.502C84.0335 117.511 83.9979 117.535 83.9751 117.569C83.9523 117.604 83.9441 117.646 83.9524 117.687L83.9533 117.69Z" fill="#0C0C0C"/>
</g>
<g opacity="0.25">
<path opacity="0.25" d="M84.5598 121.244C84.569 121.283 84.5933 121.318 84.6276 121.34C84.6618 121.362 84.7033 121.37 84.7432 121.362L91.3218 120.013C91.3427 120.009 91.3626 120.002 91.3805 119.991C91.3983 119.979 91.4137 119.965 91.4257 119.947C91.4377 119.93 91.4461 119.91 91.4503 119.89C91.4545 119.869 91.4545 119.848 91.4503 119.827C91.446 119.806 91.4376 119.787 91.4256 119.769C91.4136 119.752 91.3982 119.737 91.3804 119.726C91.3625 119.715 91.3426 119.707 91.3217 119.704C91.3009 119.701 91.2796 119.701 91.2591 119.707L84.6805 121.056C84.6604 121.06 84.6414 121.068 84.6244 121.079C84.6074 121.091 84.5928 121.106 84.5815 121.123C84.5702 121.14 84.5624 121.159 84.5585 121.179C84.5546 121.199 84.5547 121.22 84.5588 121.24L84.5598 121.244Z" fill="#0C0C0C"/>
</g>
<path d="M78.6956 130.518L14.4613 142.125C12.4569 142.343 10.4291 142.094 8.53719 141.397C6.64525 140.7 4.94061 139.574 3.55702 138.107C2.17343 136.64 1.14855 134.873 0.562786 132.944C-0.0229724 131.014 -0.153667 128.976 0.18096 126.987L9.17314 73.5366C9.74733 70.1236 11.6538 67.0785 14.4732 65.0712C17.2925 63.0638 20.7939 62.2587 24.2069 62.8329C27.6198 63.4071 30.665 65.3135 32.6723 68.1329C34.6796 70.9523 35.4848 74.4536 34.9106 77.8666L28.7792 114.662L75.8714 108.749L78.6956 130.518Z" fill="#CCF7FF"/>
<path d="M14.4608 142.363C14.4015 142.363 14.3444 142.34 14.3006 142.3C14.2569 142.26 14.2298 142.205 14.2246 142.146C14.2193 142.087 14.2364 142.028 14.2723 141.981C14.3083 141.934 14.3606 141.902 14.4189 141.891L78.4308 130.323L75.6674 109.013L28.8081 114.898C28.7714 114.903 28.734 114.899 28.6991 114.886C28.6641 114.874 28.6326 114.854 28.6071 114.827C28.5814 114.8 28.5623 114.768 28.5513 114.732C28.5403 114.697 28.5378 114.659 28.5439 114.623L32.4413 91.1065C32.4464 91.0757 32.4575 91.0462 32.474 91.0196C32.4905 90.9931 32.512 90.9701 32.5374 90.9519C32.5628 90.9338 32.5915 90.9208 32.6219 90.9137C32.6523 90.9066 32.6838 90.9056 32.7146 90.9107C32.7455 90.9157 32.775 90.9268 32.8016 90.9434C32.8281 90.9599 32.8512 90.9815 32.8694 91.0069C32.8876 91.0323 32.9006 91.0611 32.9076 91.0916C32.9147 91.122 32.9156 91.1536 32.9105 91.1844L29.0648 114.386L75.8418 108.511C75.9041 108.504 75.967 108.521 76.0167 108.559C76.0664 108.598 76.0989 108.654 76.1071 108.716L78.9313 130.485C78.9392 130.546 78.9236 130.607 78.8875 130.656C78.8515 130.705 78.7979 130.739 78.7378 130.75L14.5035 142.359C14.4894 142.361 14.4751 142.363 14.4608 142.363V142.363Z" fill="#0C0C0C"/>
<path d="M28.7413 114.428L24.6094 115.089L24.6846 115.559L28.8165 114.898L28.7413 114.428Z" fill="#0C0C0C"/>
<path d="M365.881 366.05H4.45478C4.36654 366.05 4.28191 366.015 4.21952 365.953C4.15712 365.89 4.12207 365.806 4.12207 365.717C4.12207 365.629 4.15712 365.545 4.21952 365.482C4.28191 365.42 4.36654 365.385 4.45478 365.385H365.881C365.925 365.385 365.968 365.393 366.009 365.41C366.049 365.427 366.086 365.451 366.116 365.482C366.147 365.513 366.172 365.55 366.189 365.59C366.205 365.631 366.214 365.674 366.214 365.717C366.214 365.761 366.205 365.804 366.189 365.845C366.172 365.885 366.147 365.922 366.116 365.953C366.086 365.984 366.049 366.008 366.009 366.025C365.968 366.042 365.925 366.05 365.881 366.05V366.05Z" fill="#292A2E"/>
<path d="M348.71 314.812C348.659 314.812 348.608 314.802 348.56 314.782C348.513 314.763 348.47 314.734 348.434 314.698C347.883 314.147 346.986 304.047 344.569 273.977C343.58 261.672 342.646 250.051 341.964 242.987C341.916 242.482 341.72 242.424 341.655 242.405C340.722 242.123 337.884 244.361 336.3 246.32C336.235 246.401 336.141 246.453 336.037 246.463C335.934 246.474 335.831 246.444 335.751 246.379C335.67 246.314 335.619 246.219 335.608 246.116C335.597 246.013 335.627 245.91 335.692 245.829C336.738 244.533 340.155 241.137 341.88 241.656C342.14 241.745 342.364 241.915 342.519 242.142C342.674 242.368 342.752 242.638 342.742 242.912C343.424 249.981 344.358 261.606 345.348 273.914C346.817 292.187 348.48 312.888 349.027 314.193C349.069 314.251 349.094 314.32 349.099 314.391C349.104 314.463 349.089 314.534 349.057 314.598C349.024 314.662 348.974 314.716 348.913 314.753C348.852 314.79 348.782 314.81 348.71 314.811V314.812Z" fill="#CCF7FF"/>
<path d="M340.96 255.947C347.444 250.75 349.592 242.661 345.76 237.88C341.927 233.099 333.564 233.436 327.081 238.633C320.598 243.83 318.449 251.919 322.281 256.7C326.114 261.481 334.477 261.144 340.96 255.947Z" fill="#3498DB"/>
<path opacity="0.2" d="M340.96 255.947C347.444 250.75 349.592 242.661 345.76 237.88C341.927 233.099 333.564 233.436 327.081 238.633C320.598 243.83 318.449 251.919 322.281 256.7C326.114 261.481 334.477 261.144 340.96 255.947Z" fill="white"/>
<path d="M324.099 257.916C324.062 257.916 324.025 257.906 323.994 257.886C323.963 257.866 323.938 257.838 323.922 257.804C323.906 257.771 323.9 257.733 323.905 257.696C323.91 257.66 323.925 257.625 323.949 257.596L342.426 235.315C342.459 235.275 342.507 235.25 342.558 235.245C342.61 235.24 342.661 235.256 342.701 235.289C342.741 235.322 342.766 235.37 342.771 235.421C342.776 235.473 342.76 235.524 342.727 235.564L324.249 257.846C324.23 257.868 324.207 257.886 324.182 257.898C324.156 257.91 324.127 257.916 324.099 257.916V257.916Z" fill="white"/>
<path d="M352.74 310.035C352.697 310.035 352.653 310.028 352.612 310.013C352.564 309.997 352.519 309.97 352.48 309.936C352.442 309.902 352.411 309.861 352.389 309.815C352.366 309.769 352.353 309.718 352.35 309.667C352.347 309.616 352.355 309.565 352.372 309.516L359.311 289.556C359.515 288.969 359.863 288.443 360.323 288.026C360.784 287.609 361.341 287.314 361.945 287.168C362.549 287.023 363.179 287.031 363.779 287.192C364.379 287.353 364.929 287.663 365.378 288.092L369.047 291.597C369.122 291.669 369.166 291.767 369.168 291.871C369.17 291.974 369.132 292.075 369.06 292.15C368.988 292.224 368.89 292.268 368.786 292.27C368.683 292.273 368.582 292.234 368.507 292.162L364.838 288.657C364.483 288.318 364.05 288.074 363.576 287.947C363.102 287.819 362.605 287.813 362.128 287.928C361.651 288.043 361.211 288.276 360.848 288.605C360.484 288.934 360.21 289.35 360.049 289.813L353.109 309.775C353.082 309.851 353.032 309.917 352.966 309.964C352.9 310.01 352.821 310.035 352.74 310.035V310.035Z" fill="#CCF7FF"/>
<path d="M379.3 302.649C384.105 298.846 383.819 290.481 378.662 283.966C373.505 277.451 365.429 275.252 360.625 279.055C355.82 282.858 356.105 291.223 361.262 297.738C366.419 304.253 374.495 306.452 379.3 302.649Z" fill="#3498DB"/>
<path d="M345.557 313.539C345.469 313.539 345.384 313.509 345.315 313.455C345.246 313.401 345.197 313.325 345.177 313.239L333.532 264.54C333.453 264.207 333.283 263.904 333.043 263.662C332.802 263.42 332.499 263.249 332.167 263.168C331.835 263.087 331.488 263.099 331.162 263.203C330.837 263.307 330.547 263.498 330.323 263.756L326.733 267.906C326.665 267.984 326.569 268.032 326.466 268.04C326.362 268.047 326.26 268.013 326.182 267.945C326.104 267.878 326.055 267.781 326.048 267.678C326.04 267.575 326.074 267.473 326.142 267.394L329.733 263.245C330.05 262.878 330.463 262.606 330.925 262.459C331.387 262.311 331.881 262.294 332.352 262.409C332.824 262.524 333.254 262.767 333.596 263.111C333.939 263.455 334.179 263.886 334.292 264.358L345.937 313.058C345.949 313.108 345.951 313.159 345.943 313.21C345.935 313.261 345.917 313.309 345.89 313.353C345.863 313.397 345.828 313.435 345.787 313.465C345.745 313.495 345.698 313.517 345.648 313.529C345.618 313.536 345.588 313.539 345.557 313.539V313.539Z" fill="#CCF7FF"/>
<path d="M341.261 278.726C342.677 270.539 338.93 263.055 332.892 262.011C326.853 260.966 320.811 266.757 319.395 274.945C317.979 283.133 321.726 290.616 327.764 291.661C333.802 292.705 339.845 286.914 341.261 278.726Z" fill="#3498DB"/>
<path d="M348.711 314.812C348.695 314.812 348.679 314.811 348.663 314.809C348.561 314.796 348.467 314.743 348.403 314.662C348.339 314.58 348.311 314.477 348.323 314.374L355.762 253.987C355.843 253.329 356.112 252.708 356.537 252.2C356.962 251.691 357.525 251.317 358.158 251.12C358.791 250.924 359.468 250.915 360.106 251.094C360.744 251.273 361.317 251.633 361.756 252.13L370.257 261.758C370.292 261.796 370.319 261.841 370.337 261.89C370.355 261.939 370.362 261.991 370.36 262.043C370.357 262.095 370.344 262.146 370.321 262.193C370.299 262.239 370.267 262.281 370.228 262.316C370.189 262.35 370.144 262.376 370.094 262.393C370.045 262.41 369.993 262.416 369.941 262.412C369.889 262.409 369.839 262.395 369.792 262.371C369.746 262.348 369.705 262.315 369.671 262.275L361.17 252.647C360.831 252.264 360.388 251.987 359.895 251.849C359.402 251.712 358.88 251.719 358.391 251.87C357.902 252.022 357.467 252.311 357.138 252.703C356.81 253.096 356.601 253.574 356.537 254.082L349.1 314.469C349.088 314.564 349.042 314.651 348.971 314.714C348.899 314.777 348.807 314.812 348.711 314.812V314.812Z" fill="#CCF7FF"/>
<path d="M378.973 267.109C381.939 261.747 378.45 254.14 371.179 250.118C363.908 246.096 355.609 247.182 352.643 252.544C349.677 257.907 353.167 265.514 360.438 269.536C367.709 273.558 376.007 272.471 378.973 267.109Z" fill="#3498DB"/>
<path opacity="0.2" d="M379.3 302.649C384.105 298.846 383.819 290.481 378.662 283.966C373.505 277.451 365.429 275.252 360.625 279.055C355.82 282.858 356.105 291.223 361.262 297.738C366.419 304.253 374.495 306.452 379.3 302.649Z" fill="white"/>
<path opacity="0.5" d="M341.261 278.726C342.677 270.539 338.93 263.055 332.892 262.011C326.853 260.966 320.811 266.757 319.395 274.945C317.979 283.133 321.726 290.616 327.764 291.661C333.802 292.705 339.845 286.914 341.261 278.726Z" fill="white"/>
<path opacity="0.5" d="M378.973 267.109C381.939 261.747 378.45 254.14 371.179 250.118C363.908 246.096 355.609 247.182 352.643 252.544C349.677 257.907 353.167 265.514 360.438 269.536C367.709 273.558 376.007 272.471 378.973 267.109Z" fill="white"/>
<path d="M358.223 366.05H339.197L336.044 305.176H361.375L358.223 366.05Z" fill="#152850"/>
<path opacity="0.3" d="M358.223 366.05H339.197L336.044 305.176H361.375L358.223 366.05Z" fill="#CCF7FF"/>
<path d="M379.3 302.841C379.27 302.841 379.241 302.834 379.214 302.821C379.187 302.808 379.164 302.789 379.145 302.766L360.47 279.172C360.438 279.131 360.423 279.08 360.429 279.028C360.435 278.977 360.461 278.93 360.502 278.898C360.543 278.865 360.594 278.851 360.646 278.857C360.697 278.863 360.744 278.889 360.776 278.93L379.452 302.523C379.475 302.552 379.489 302.586 379.493 302.623C379.497 302.659 379.491 302.696 379.475 302.73C379.459 302.763 379.434 302.791 379.403 302.81C379.372 302.829 379.336 302.84 379.299 302.84L379.3 302.841Z" fill="white"/>
<path d="M377.731 268.999C377.69 268.999 377.649 268.986 377.616 268.961L353.717 251.511C353.695 251.496 353.676 251.477 353.662 251.455C353.648 251.433 353.638 251.409 353.634 251.383C353.629 251.357 353.63 251.33 353.636 251.305C353.642 251.279 353.653 251.255 353.669 251.234C353.684 251.213 353.704 251.195 353.726 251.182C353.749 251.168 353.774 251.159 353.8 251.156C353.826 251.152 353.852 251.154 353.878 251.161C353.903 251.168 353.927 251.18 353.947 251.196L377.845 268.646C377.879 268.67 377.903 268.704 377.916 268.743C377.929 268.783 377.929 268.825 377.916 268.864C377.903 268.903 377.878 268.938 377.845 268.962C377.811 268.986 377.771 268.999 377.73 268.999H377.731Z" fill="white"/>
<path d="M326.793 291.407C326.776 291.407 326.759 291.404 326.742 291.4C326.693 291.386 326.65 291.354 326.624 291.31C326.598 291.265 326.591 291.212 326.604 291.162L334.212 262.659C334.226 262.61 334.259 262.568 334.304 262.543C334.348 262.518 334.401 262.511 334.45 262.525C334.499 262.538 334.542 262.57 334.568 262.614C334.594 262.658 334.602 262.71 334.589 262.76L326.981 291.261C326.97 291.302 326.946 291.339 326.912 291.366C326.878 291.392 326.836 291.406 326.793 291.407V291.407Z" fill="white"/>
</svg>
