<svg  viewBox="0 0 398 249" xmlns="http://www.w3.org/2000/svg">
 <g>
  <g id="svg_44">
   <g id="freepik--Window--inject-13">
    <path d="m0.99922,7.28a6.3,6.3 0 0 1 6.28,-6.28l280.22,0a6.3,6.3 0 0 1 6.28,6.28l0,20.21l-292.78,0l0,-20.21z" fill="#263238" id="svg_1"/>
    <path d="m51.76922,19.54a5.3,5.3 0 1 1 5.3,-5.3a5.3,5.3 0 0 1 -5.3,5.3zm0,-9.49a4.19,4.19 0 1 0 4.19,4.19a4.2,4.2 0 0 0 -4.19,-4.19z" fill="#f0f0f0" id="svg_2"/>
    <path d="m34.93922,19.54a5.3,5.3 0 1 1 5.31,-5.3a5.3,5.3 0 0 1 -5.31,5.3zm0,-9.49a4.19,4.19 0 1 0 4.2,4.19a4.2,4.2 0 0 0 -4.2,-4.19z" fill="#f0f0f0" id="svg_3"/>
    <path d="m18.11922,19.54a5.3,5.3 0 1 1 5.31,-5.3a5.3,5.3 0 0 1 -5.31,5.3zm0,-9.49a4.19,4.19 0 1 0 4.19,4.19a4.2,4.2 0 0 0 -4.19,-4.19z" fill="#f0f0f0" id="svg_4"/>
    <path d="m287.49922,220.32l-280.22,0a6.3,6.3 0 0 1 -6.28,-6.28l0,-186.55l292.78,0l0,186.55a6.3,6.3 0 0 1 -6.28,6.28z" fill="#407BFF" id="svg_5"/>
    <rect x="2.77922" y="32.86" width="289.22" height="165.33" fill="#fff" id="svg_6"/>
    <rect x="16.94922" y="47.03" width="117.79" height="22.33" rx="3.81" fill="#407BFF" id="svg_7"/>
    <path d="m274.01922,48.03a2.81,2.81 0 0 1 2.81,2.81l0,14.71a2.81,2.81 0 0 1 -2.81,2.81l-110.17,0a2.81,2.81 0 0 1 -2.81,-2.81l0,-14.71a2.81,2.81 0 0 1 2.81,-2.81l110.17,0m0,-1l-110.17,0a3.82,3.82 0 0 0 -3.81,3.81l0,14.71a3.81,3.81 0 0 0 3.81,3.81l110.17,0a3.81,3.81 0 0 0 3.81,-3.81l0,-14.71a3.82,3.82 0 0 0 -3.81,-3.81z" fill="#407BFF" id="svg_8"/>
    <path d="m36.52922,79.36a18.58,18.58 0 1 1 -18.58,18.58a18.6,18.6 0 0 1 18.58,-18.58m0,-1a19.58,19.58 0 1 0 19.58,19.58a19.58,19.58 0 0 0 -19.58,-19.58z" fill="#407BFF" id="svg_9"/>
    <path d="m50.69922,105.64a16.16,16.16 0 0 1 -28.41,0a25.56,25.56 0 0 1 28.41,0z" opacity="0.4" fill="#407BFF" id="svg_10"/>
    <circle cx="36.52922" cy="92.41" r="7.2" opacity="0.4" fill="#407BFF" id="svg_11"/>
    <path d="m267.75922,108.01l-190.58,0a10.07,10.07 0 0 1 -10.07,-10.07l0,0a10.06,10.06 0 0 1 10.07,-10.06l190.58,0a10.06,10.06 0 0 1 10.07,10.06l0,0a10.07,10.07 0 0 1 -10.07,10.07z" opacity="0.4" fill="#407BFF" id="svg_12"/>
    <path d="m36.52922,132.75a18.58,18.58 0 1 1 -18.58,18.58a18.59,18.59 0 0 1 18.58,-18.58m0,-1a19.58,19.58 0 1 0 19.58,19.58a19.58,19.58 0 0 0 -19.58,-19.58z" fill="#407BFF" id="svg_13"/>
    <path d="m50.69922,158.97a16.16,16.16 0 0 1 -28.41,0a25.61,25.61 0 0 1 28.41,0z" opacity="0.4" fill="#407BFF" id="svg_14"/>
    <circle cx="36.52922" cy="145.75" r="7.2" opacity="0.4" fill="#407BFF" id="svg_15"/>
    <path d="m77.17922,141.21l190.58,0a10.07,10.07 0 0 1 10.07,10.07l0,0a10.07,10.07 0 0 1 -10.07,10.07l-190.58,0a10.07,10.07 0 0 1 -10.07,-10.07l0,0a10.06,10.06 0 0 1 10.06,-10.06l0.01,-0.01z" opacity="0.4" fill="#407BFF" id="svg_16"/>
    <path d="m220.81922,161.05a93.48,93.48 0 0 0 1.79,18.22a37.58,37.58 0 0 0 -18.39,32.23a37.17,37.17 0 0 0 1,8.82l82.28,0a6.3,6.3 0 0 0 6.28,-6.28l0,-144a93.33,93.33 0 0 0 -72.96,91.01z" opacity="0.1" id="svg_17"/>
   </g>
   <g id="freepik--Character--inject-13">
    <circle cx="229.20922" cy="502.74" r="83.19" transform="rotate(-45, -136.101, 231.5)" fill="#407BFF" id="svg_18"/>
    <circle cx="229.78922" cy="502.88" r="75.83997" transform="rotate(-45, -135.911, 231.75)" fill="#fff" id="svg_19"/>
    <path d="m288.80922,114l-4.84,6.2s-4.25,3.22 -5.86,6c-1.88,1.86 -3.6,3.77 -5.3,5.78a79.5,79.5 0 0 0 -5.44,7.21a41.84,41.84 0 0 0 -4.52,8.59a18.16,18.16 0 0 0 -1.21,6a11.13,11.13 0 0 0 0.76,4.25a10,10 0 0 0 3.17,4.2l1.06,0.8l1.59,0.3a53.59,53.59 0 0 0 9.52,0.94l1.26,-0.11l-1.3,-12.68c-1.07,0 -3.37,0.21 -4.42,0.19c0,-0.2 0.08,-0.4 0.13,-0.6a37.81,37.81 0 0 1 2.6,-7c1.12,-2.43 2.41,-4.86 3.75,-7.28c1.18,-2.14 2.45,-4.29 3.68,-6.39l6,-3.78l3.51,-6.23l-4.14,-6.39zm-15.61,39.5a1.68,1.68 0 0 1 0,-0.29a0.76,0.76 0 0 1 0.09,0.23c0.03,0.24 -0.04,0.25 -0.09,0.06z" fill="#7f3e3b" id="svg_20"/>
    <path d="m322.88922,127.4c0.15,-0.77 -5.11,-3.41 -8.73,-1.26c-3.13,1.86 -3.53,4.4 -2.39,7.43c0,0.21 0.08,0.42 0.11,0.63c0.07,0.49 0.13,1 0.16,1.46c0.23,3.19 -0.61,6.16 -4.2,7.85c0,0.2 -0.49,0.41 -0.65,0.55a7.15,7.15 0 0 0 -2.38,4.55c0,1.3 1.23,2.33 2.66,3.57l2,1.35l2.74,-0.26c8.41,-2.47 12.34,-10.15 12.16,-10.72c-2.16,-3.56 -2.13,-9.8 -1.48,-15.15z" fill="#7f3e3b" id="svg_21"/>
    <path d="m341.06922,145.62l-1.52,-0.26c-2,-0.32 -10.92,-2.34 -15.23,-2.72l0,0c-1,2.13 -4.28,7.33 -12.69,9.8l-2.08,0.49l-2,-1a5.3,5.3 0 0 1 -2.18,-3.84a5.69,5.69 0 0 1 2.18,-4a0.66,0.66 0 0 0 0.17,-0.23c0,-0.24 0,-0.4 0,-0.42c-0.63,0.08 -8.61,1.29 -9.28,1.4a130,130 0 0 0 -22.07,6.13l0.08,0.72l1.45,12.59l0.54,4.77s4,-0.45 9.25,-1.37c-1.43,12.74 -1.71,31.2 2.66,54.93l17.07,-0.32l29.66,-0.55c0.12,-2 -0.1,-6.14 -0.31,-11.8l-0.27,-8.74c-0.16,-7.72 -0.13,-17 0.56,-26.92c0.11,-1.57 0.24,-3.15 0.38,-4.75l0,0c6.06,6.55 12.13,12.81 12.13,12.81l2.87,-2.76c3.67,-1.77 6.56,-4.94 9.08,-8.75l3.37,-3.25s-15.62,-20.58 -23.82,-21.96z" fill="#407BFF" id="svg_22"/>
    <path d="m332.85922,164.39a14.91,14.91 0 0 0 1.95,5.9l2.3,3.94c0.11,-1.57 0.24,-3.15 0.38,-4.75c-1.58,-1.73 -3.16,-3.44 -4.63,-5.09z" opacity="0.3" id="svg_23"/>
    <path d="m337.49922,169.49l0,0c-0.14,1.6 -0.27,3.18 -0.38,4.75l0,0c0.1,-1.57 0.24,-3.16 0.38,-4.75z" opacity="0.3" id="svg_24"/>
    <path d="m311.76922,133.57c0,0.21 0.07,0.42 0.11,0.63c0,-0.21 -0.07,-0.42 -0.11,-0.63z" fill="#7f3e3b" id="svg_25"/>
    <path d="m312.03922,135.66c0,-0.48 -0.09,-1 -0.16,-1.46c0.07,0.49 0.13,0.98 0.16,1.46z" opacity="0.2" id="svg_26"/>
    <path d="m318.25922,131.2c-0.2,0.14 -0.39,0.29 -0.6,0.43a11.54,11.54 0 0 1 -5.89,1.94c0,0.21 0.07,0.42 0.11,0.63c0.07,0.49 0.13,1 0.16,1.46c0,0 0,0.06 0,0.09a10.08,10.08 0 0 0 6.22,-4.55z" fill="#7f3e3b" id="svg_27"/>
    <path d="m329.48922,144.16a2.23,2.23 0 0 0 -1.66,-1.7l-2.08,-0.5a1.24,1.24 0 0 0 -1.36,0.59l-0.07,0.09c-1,2.13 -4.28,7.33 -12.69,9.8l-0.65,0.15l0,0l-1.43,0.34l-2,-1a5.3,5.3 0 0 1 -2.18,-3.84a5.69,5.69 0 0 1 2.18,-4a2.16,2.16 0 0 0 0.29,-0.37c0.09,-0.23 0.07,-0.34 -0.09,-0.44c-2.21,-1.59 -7.15,0.86 -7.35,1.28c-0.21,0.21 -0.42,0.43 -0.63,0.68a6.93,6.93 0 0 0 -1.6,5.3a10.69,10.69 0 0 0 5.07,7.76a0.23,0.23 0 0 0 0.14,0a0.29,0.29 0 0 0 0.16,0a0.33,0.33 0 0 0 0.14,-0.27a6,6 0 0 1 3.7,-5.52l1.75,0.94c-7.52,30.86 -2.42,67.85 -2.28,68.85l0.58,0s0,0 0,0c0,-0.38 -5.3,-37.69 2.28,-68.72l1.83,-0.44c2.13,2.6 1.12,6.46 1.11,6.5a0.3,0.3 0 0 0 0.09,0.3a0.31,0.31 0 0 0 0.2,0.07a0.2,0.2 0 0 0 0.11,0c0.4,-0.18 9.86,-4.32 13.17,-8.27a15.8,15.8 0 0 0 3.22,-6.5a2.12,2.12 0 0 0 0.05,-1.08z" fill="#fff" id="svg_28"/>
    <path d="m318.25922,131.2c-0.2,0.14 -0.39,0.29 -0.6,0.43a11.54,11.54 0 0 1 -5.89,1.94c0,0.21 0.07,0.42 0.11,0.63c0.07,0.49 0.13,1 0.16,1.46c0,0 0,0.06 0,0.09a10.08,10.08 0 0 0 6.22,-4.55z" opacity="0.2" id="svg_29"/>
    <path d="m305.90922,109.12c3.91,-5 1.43,-8 -0.23,-7.72c-1.57,0.74 -3.06,2.83 -3.83,7.51a11.82,11.82 0 0 0 -0.08,3.34c1.61,-0.08 4.14,-3.13 4.14,-3.13z" fill="#263238" id="svg_30"/>
    <path d="m322.29922,120.15c10.83,-19.05 -10.56,-21.27 -14.92,-17a18.55,18.55 0 0 0 -3.67,4.72l-0.91,1.79a27.36,27.36 0 0 0 -1,2.59a30.63,30.63 0 0 0 -1.7,9.83a11.44,11.44 0 0 0 11.7,11.49l0,0a11.54,11.54 0 0 0 5.89,-1.94c0.21,-0.14 0.4,-0.29 0.6,-0.43a13.66,13.66 0 0 0 3.59,-3.78c2.22,-3.59 1.64,-5.4 0.42,-7.27z" fill="#7f3e3b" id="svg_31"/>
    <path d="m302.24922,109.07a0.42,0.42 0 0 0 0.07,0.58a0.43,0.43 0 0 0 0.26,0.09a0.37,0.37 0 0 0 0.22,-0.08a0.25,0.25 0 0 0 0.1,-0.08a3.46,3.46 0 0 1 2.73,-1.37a0.42,0.42 0 0 0 0.44,-0.39a0.41,0.41 0 0 0 -0.38,-0.44a4.22,4.22 0 0 0 -2,0.49a4.58,4.58 0 0 0 -1.44,1.2z" fill="#263238" id="svg_32"/>
    <path d="m313.06922,121.05a0.21,0.21 0 0 0 -0.29,0a5.87,5.87 0 0 1 -5,1.24a0.21,0.21 0 0 0 -0.24,0.16a0.22,0.22 0 0 0 0.16,0.25a6.85,6.85 0 0 0 1.45,0.13a6,6 0 0 0 3.89,-1.48a0.21,0.21 0 0 0 0.03,-0.3z" fill="#263238" id="svg_33"/>
    <path d="m307.69922,113.91a26.31,26.31 0 0 1 -4.69,5.21c1,1.38 3.16,1.28 3.16,1.28l1.53,-6.49z" fill="#630f0f" id="svg_34"/>
    <path d="m304.15922,114.15c0.45,0.09 1,-0.39 1.11,-1.08s-0.07,-1.31 -0.52,-1.4s-0.95,0.39 -1.11,1.08s0.06,1.31 0.52,1.4z" fill="#263238" id="svg_35"/>
    <path d="m311.97922,115.75c0.45,0.09 0.94,-0.39 1.11,-1.08s-0.08,-1.31 -0.53,-1.4s-0.95,0.39 -1.11,1.08s0.07,1.27 0.53,1.4z" fill="#263238" id="svg_36"/>
    <path d="m329.14922,104.85c4.23,-3.62 -5.41,-11 -5.41,-11s1.08,2.64 -1.16,3.37s-18,-5.15 -17.77,1.52a5.12,5.12 0 0 0 0.87,2.63a7.6,7.6 0 0 0 1.7,1.75c3.66,2.78 10.32,3.63 13.92,3.63a18.54,18.54 0 0 0 -1.19,4.34a11.55,11.55 0 0 0 2.19,9c2,3.48 4.67,3.38 6.95,0.73c3.66,-3.46 7.19,-10.47 -0.1,-15.97z" fill="#263238" id="svg_37"/>
    <path d="m327.30922,118.82c-1.66,-0.68 -3.53,0.12 -5,1.33a9.67,9.67 0 0 0 -2.07,2.27c-1.41,2.21 -0.91,4.78 1.62,5l0.44,0l0.6,0a8.71,8.71 0 0 0 5.27,-2.5a4.05,4.05 0 0 0 1.09,-4a3.25,3.25 0 0 0 -1.95,-2.1z" fill="#7f3e3b" id="svg_38"/>
    <path d="m290.39922,222.56s-0.27,2.34 -0.69,6.27a75.91,75.91 0 0 0 47.29,0.44c0.1,-4.75 0.17,-7.59 0.17,-7.59l-29.7,0.56l-0.58,0l-16.49,0.32z" fill="#263238" id="svg_39"/>
    <path d="m367.69922,182.29a9.9,9.9 0 0 0 -0.58,-2.49a9.26,9.26 0 0 0 -0.51,-1.16l-0.29,-0.54l-0.16,-0.28c-1.43,-2.46 -3,-4.79 -4.6,-7l-9.08,8.75c1.2,1.5 2.37,3 3.45,4.54a7.17,7.17 0 0 1 -0.77,1.45a33,33 0 0 1 -5,5.51a147.39,147.39 0 0 1 -12.29,9.93l-1.39,0.18l-5.58,0.76l-5.49,3.71l3.61,7.34l4.54,-2.32a17.43,17.43 0 0 0 3.19,-0.75a6.82,6.82 0 0 0 3.93,-2.78a83.26,83.26 0 0 0 7.79,-3.56a77.34,77.34 0 0 0 7.9,-4.69q1.93,-1.32 3.82,-2.89a29.3,29.3 0 0 0 3.7,-3.63a16.68,16.68 0 0 0 3.26,-5.57a10.72,10.72 0 0 0 0.55,-4.51zm-11.69,1.58c0,-0.05 0,-0.11 0,-0.15c0,-0.24 0.09,-0.33 0.09,-0.19a1.07,1.07 0 0 1 -0.07,0.34l-0.02,0z" fill="#7f3e3b" id="svg_40"/>
    <circle cx="178.07922" cy="760.07" r="27.45001" transform="rotate(-80.78, -114.891, 446.38)" fill="#263238" id="svg_41"/>
    <path d="m256.75922,204.87l-12.52,0l0,-12.52a2.57,2.57 0 1 0 -5.14,0l0,12.52l-12.52,0a2.57,2.57 0 0 0 0,5.14l12.52,0l0,12.52a2.57,2.57 0 1 0 5.14,0l0,-12.52l12.52,0a2.57,2.57 0 0 0 0,-5.14z" fill="#fff" id="svg_42"/>
    <path d="m313.46922,110.51a3.16,3.16 0 0 1 2.28,1.86a0.42,0.42 0 0 0 0.38,0.24a0.35,0.35 0 0 0 0.17,0a0.41,0.41 0 0 0 0.2,-0.55a4,4 0 0 0 -2.92,-2.33a0.41,0.41 0 0 0 -0.11,0.82l0,-0.04z" fill="#263238" id="svg_43"/>
   </g>
  </g>
 </g>

</svg>