<svg width="660" height="747" viewBox="0 0 660 747" fill="none" xmlns="http://www.w3.org/2000/svg">
<path d="M355.588 101.772C328.906 142.238 329.67 198.976 357.44 238.705C375.948 265.202 404.061 283.236 426.233 306.714C448.405 330.192 464.984 364.582 452.578 394.425C439.953 424.8 404.247 436.64 377.354 455.579C347.682 476.448 327.252 508.002 320.353 543.615C313.454 579.229 320.623 616.13 340.355 646.569L616.482 651.136C616.482 651.136 666.522 559.501 605.323 488.004C544.124 416.506 510.652 414.818 513.717 368.646C516.782 322.474 549.37 308.021 568.144 290.99C586.918 273.959 677.658 235.055 626.645 106.239L355.588 101.772Z" fill="#264A99"/>
<path d="M355.589 101.772L360.336 101.851L374.335 102.082L428.226 102.974L626.648 106.109L626.858 106.113L626.855 106.307C630.762 116.062 634.061 126.049 636.733 136.211C639.539 146.851 641.324 157.734 642.062 168.713C642.829 180.19 642.049 191.717 639.745 202.986C637.226 214.665 632.826 225.857 626.718 236.125C623.554 241.361 619.993 246.346 616.066 251.037C612.058 255.791 607.734 260.268 603.122 264.437C598.451 268.684 593.565 272.687 588.483 276.432C583.396 280.237 578.085 283.812 572.901 287.616C570.309 289.502 567.972 291.635 565.441 293.765C562.91 295.895 560.398 297.879 557.804 299.879C552.632 303.877 547.413 307.81 542.478 312.251C532.187 320.876 524.206 331.929 519.256 344.411C516.87 350.815 515.322 357.501 514.648 364.302C514.476 365.92 514.219 367.698 514.126 369.415C514.033 371.131 513.94 372.847 514.041 374.567C514.021 378.016 514.311 381.46 514.908 384.857C516.079 391.739 518.773 398.274 522.792 403.982C526.932 409.691 531.639 414.966 536.843 419.725C547.168 429.474 558.148 438.813 568.63 448.872C579.111 458.932 589.359 469.409 599.225 480.48C604.261 485.962 608.961 491.745 613.298 497.795C617.661 503.921 621.433 510.446 624.564 517.284C630.894 531.143 634.677 546.029 635.733 561.228C636.8 576.638 635.638 592.122 632.282 607.2C630.647 614.819 628.541 622.329 625.979 629.688C623.457 637.11 620.412 644.344 616.869 651.336L616.752 651.561L340.121 646.986L340.011 646.806C327.385 627.096 319.813 604.575 317.968 581.24C316.093 558.823 319.749 536.289 328.615 515.615C337.043 495.852 349.809 478.239 365.966 464.078C373.804 457.386 382.247 451.438 391.187 446.311C399.895 441.106 408.678 436.292 416.982 431.016C425.29 426.012 432.946 419.998 439.774 413.111C446.298 406.345 451.19 398.177 454.075 389.232C456.618 380.499 457.147 371.303 455.622 362.337C454.166 353.684 451.426 345.297 447.492 337.454C443.73 329.902 439.188 322.765 433.938 316.161C428.871 309.824 423.347 303.866 417.41 298.335C405.906 287.383 394.088 277.771 383.489 267.92C378.174 262.97 373.15 258.025 368.517 252.973C364.028 248.027 359.901 242.765 356.169 237.226C349.423 227.069 344.278 215.937 340.913 204.219C337.962 194.098 336.327 183.639 336.046 173.101C335.859 170.699 335.996 168.335 336.034 166.018C336.072 163.701 336.109 161.449 336.356 159.265C336.603 157.082 336.752 154.945 336.949 152.792C337.147 150.64 337.617 148.719 337.924 146.763C339.912 134.858 343.756 123.338 349.315 112.625C350.072 110.966 350.932 109.356 351.891 107.805L353.94 104.452C355.023 102.671 355.605 101.773 355.605 101.773L353.939 104.5L351.956 107.806C351.019 109.364 350.17 110.974 349.413 112.626C343.901 123.367 340.101 134.902 338.15 146.816C337.843 148.755 337.486 150.759 337.208 152.813C336.931 154.867 336.815 157.02 336.617 159.205C336.418 161.39 336.381 163.642 336.327 165.942C336.273 168.243 336.169 170.607 336.356 173.009C336.651 183.513 338.304 193.934 341.272 204.014C344.634 215.691 349.775 226.78 356.515 236.891C360.238 242.407 364.36 247.643 368.848 252.557C373.465 257.625 378.488 262.57 383.806 267.39C394.403 277.29 406.175 286.804 417.76 297.773C423.742 303.345 429.309 309.347 434.415 315.731C439.694 322.384 444.262 329.569 448.048 337.171C452.019 345.063 454.786 353.506 456.256 362.218C457.803 371.28 457.273 380.576 454.704 389.404C451.805 398.454 446.866 406.717 440.269 413.557C433.407 420.484 425.719 426.54 417.378 431.59C409.041 436.881 400.258 441.696 391.566 446.9C382.664 452.015 374.254 457.941 366.444 464.604C350.385 478.693 337.695 496.206 329.308 515.853C320.496 536.423 316.869 558.841 318.747 581.14C320.595 604.342 328.129 626.732 340.683 646.331L340.362 646.148L616.49 650.714L616.114 650.935C619.651 643.961 622.685 636.743 625.19 629.335C627.74 622.007 629.834 614.529 631.46 606.943C634.801 591.94 635.956 576.532 634.891 561.198C633.859 546.082 630.101 531.277 623.798 517.498C620.69 510.71 616.95 504.229 612.628 498.141C608.3 492.121 603.622 486.361 598.618 480.891C588.806 469.849 578.624 459.329 568.071 449.333C557.605 439.29 546.657 429.968 536.301 420.17C531.056 415.371 526.306 410.059 522.122 404.311C518.024 398.533 515.26 391.916 514.031 384.94C513.439 381.493 513.145 378.001 513.15 374.504C513.098 372.769 513.208 371.036 513.236 369.303C513.265 367.569 513.585 365.856 513.743 364.141C514.451 357.3 516.033 350.577 518.45 344.138C523.443 331.546 531.499 320.399 541.887 311.706C546.822 307.282 552.091 303.285 557.262 299.302C559.856 297.303 562.401 295.287 564.883 293.221C567.364 291.155 569.816 288.927 572.376 287.024C577.593 283.221 582.887 279.645 587.957 275.856C593.024 272.128 597.899 268.146 602.563 263.926C607.145 259.775 611.447 255.325 615.441 250.606C619.337 245.931 622.881 240.973 626.043 235.773C632.117 225.576 636.493 214.461 639.002 202.86C641.295 191.683 642.078 180.249 641.331 168.863C640.606 157.886 638.838 147.003 636.05 136.362C633.418 126.172 630.163 116.154 626.303 106.363L626.575 106.546L428.272 103.12L374.349 102.228L360.318 101.996L355.589 101.772Z" fill="#9EBCFF"/>
<path d="M614.387 181.075C654.945 188.44 589.639 259.417 552.859 287.236C531.523 303.334 508.706 320.817 498.316 345.409C486.509 373.317 494.396 405.02 488.452 433.187C488.26 434.158 487.707 435.021 486.904 435.601C486.102 436.182 485.11 436.437 484.127 436.316C483.144 436.196 482.243 435.707 481.605 434.949C480.967 434.192 480.64 433.221 480.689 432.232C481.255 413.684 481.075 395.14 478.363 376.829C474.434 350.833 464.908 325.084 447.124 305.811C432.554 290.06 413.297 279.45 397.739 264.703C375.016 243.177 351.763 215.516 349.962 184.271C349.962 184.271 394.85 149.358 419.372 154.22C448.028 159.961 475.585 204.776 520.194 200.441C551.233 197.405 567.348 172.55 614.387 181.075Z" fill="#3498DB"/>
<path d="M611.623 566.68C610.77 556.488 608.239 544.939 599.293 539.994C593.881 536.987 587.216 537.201 581.195 538.674C575.174 540.146 569.507 542.791 563.547 544.459C551.701 547.731 539.118 547.12 527.645 542.715C516.677 538.482 507.336 531.034 497.143 525.063C486.95 519.093 475.079 514.65 463.625 517.297C443.874 521.832 433.242 545.384 413.704 550.782C405.01 553.166 395.749 551.587 387 549.465C378.251 547.343 369.463 544.621 360.465 544.812C353.396 544.955 346.016 547.28 340.994 552.027L340.862 552.17C340.026 552.963 339.263 553.829 338.583 554.758C332.421 562.76 331.272 573.486 332.972 583.336C334.864 594.372 339.833 604.616 345.181 614.445C351.472 626.024 358.672 637.553 369.272 645.378C382.369 655.043 399.117 648.805 415.315 650.353C453.067 653.96 493.702 656.658 531.568 654.366C551.573 653.077 570.25 655.622 586.299 643.619C597.589 635.183 605.063 622.309 608.788 608.724C612.514 595.139 612.801 580.719 611.623 566.68Z" fill="#3498DB"/>
<g opacity="0.24">
<path opacity="0.24" d="M540.588 546.025C538.412 549.23 537.416 553.622 539.419 556.961C541.422 560.301 544.175 563.377 544.987 567.199C546.298 573.185 542.605 578.959 539.84 584.439C534.728 594.236 532.675 605.342 533.948 616.319C535.299 627.333 540.808 637.414 549.349 644.499C553.14 647.527 558.092 649.911 562.75 648.529C567.131 647.24 570.008 642.863 571.022 638.39C572.036 633.918 571.318 629.287 570.826 624.757C568.535 603.645 569.434 582.308 573.493 561.463C574.166 557.99 574.816 554.013 572.658 551.206C571.095 549.567 569.095 548.409 566.895 547.87C558.516 544.927 549.374 547.888 540.668 546.091" fill="black"/>
</g>
<path d="M319.878 658.775C319.878 658.775 319.326 646.091 335.969 639.3L626.404 644.104C626.404 644.104 641.427 652.034 643.096 663.828L319.878 658.775Z" fill="#9EBCFF"/>
<path d="M629.098 107.835L628.625 108.038L355.556 101.772C355.556 101.772 354.594 101.14 353.171 99.9658C351.491 98.6039 350.279 96.7501 349.706 94.6644C349.133 92.5787 349.227 90.366 349.976 88.3367C350.724 86.3075 352.09 84.5636 353.88 83.3499C355.67 82.1361 357.796 81.5135 359.958 81.5694L625 88.092C635.903 88.3696 639.092 103.333 629.098 107.835Z" fill="#9EBCFF"/>
<g opacity="0.24">
<path opacity="0.24" d="M583.628 211.296C584.161 212.358 582.067 214.511 578.104 218.011C574.14 221.511 568.246 226.098 560.922 231.86C552.127 238.885 542.811 245.233 533.056 250.848C526.997 254.223 520.635 257.021 514.052 259.204C510.485 260.372 506.848 261.313 503.163 262.023C499.291 262.778 495.366 263.223 491.423 263.352C483.433 263.654 475.46 262.422 467.934 259.722C461.283 257.178 454.979 253.806 449.17 249.687C443.785 246 439.162 242.358 434.762 238.866C430.363 235.373 426.448 232.018 422.902 228.848C408.768 216.183 401.369 206.92 402.857 205.178C404.344 203.436 414.457 209.357 430.175 219.341L443.006 227.495C447.609 230.391 452.532 233.601 457.572 236.569C462.571 239.616 467.881 242.122 473.412 244.043C479.074 245.841 485.006 246.641 490.942 246.407C503.396 245.965 515.54 241.79 526.074 236.908C536.608 232.025 546.168 226.284 554.443 221.818C560.995 218.096 567.833 214.903 574.892 212.27C580.058 210.556 583.175 210.267 583.628 211.296Z" fill="black"/>
</g>
<path d="M480.31 466.909C481.465 466.471 482.746 466.506 483.876 467.006C485.006 467.507 485.894 468.432 486.346 469.581C486.799 470.731 486.781 472.013 486.296 473.149C485.81 474.285 484.897 475.185 483.754 475.652C482.61 476.12 481.328 476.119 480.186 475.649C479.043 475.178 478.132 474.277 477.649 473.14C477.166 472.002 477.151 470.721 477.606 469.572C478.061 468.423 478.95 467.5 480.081 467.002" fill="#3498DB"/>
<path d="M386.146 253.232C385.796 252.934 385.476 252.603 385.19 252.243L382.597 249.316C381.5 248.017 380.05 246.502 378.575 244.581L373.529 238.015C371.805 235.491 369.856 232.768 367.895 229.818L365.008 225.054C364.519 224.236 363.998 223.417 363.526 222.55L362.144 219.902C357.958 212.188 354.714 204 352.482 195.512C350.239 187.031 349.098 178.297 349.087 169.524C349.121 167.499 349.266 165.54 349.331 163.613C349.347 162.657 349.362 161.717 349.507 160.796C349.652 159.874 349.732 158.968 349.844 158.078C350.084 156.3 350.242 154.568 350.512 152.919C350.783 151.271 351.149 149.688 351.449 148.219C351.953 145.196 352.807 142.569 353.414 140.147C353.741 138.986 354.002 137.888 354.326 136.921L355.262 134.23L356.571 130.54C356.698 130.1 356.868 129.674 357.079 129.268C357.004 129.719 356.889 130.162 356.732 130.591C356.442 131.527 356.064 132.768 355.569 134.332L354.714 137.025C354.422 138.009 354.177 139.107 353.866 140.252C353.309 142.593 352.503 145.238 352.112 148.327C351.828 149.813 351.543 151.381 351.24 153.012C350.938 154.644 350.845 156.361 350.621 158.14C350.606 159.031 350.413 159.919 350.3 160.841C350.188 161.763 350.27 162.705 350.157 163.643C350.125 165.555 349.963 167.497 349.946 169.506C349.96 178.227 351.086 186.911 353.295 195.347C355.515 203.772 358.715 211.909 362.829 219.589C363.285 220.472 363.74 221.354 364.179 222.237C364.619 223.119 365.173 223.874 365.646 224.725L368.484 229.488C370.412 232.502 372.328 235.224 374.005 237.683L378.953 244.247C380.379 246.2 381.796 247.73 382.844 249.077L385.322 252.116C385.62 252.47 385.895 252.843 386.146 253.232Z" fill="#9EBCFF"/>
<path d="M366.789 493.686C366.872 493.5 366.973 493.323 367.089 493.156L368.086 491.649C368.535 490.976 369.083 490.174 369.747 489.213L370.795 487.61C371.209 487.082 371.688 486.555 372.167 486.012L375.472 482.176C376.741 480.852 378.19 479.482 379.722 477.984C383.272 474.678 387.037 471.611 390.992 468.803C399.703 462.464 410.909 456.166 423.057 448.766C429.444 444.975 435.591 440.795 441.465 436.251C447.766 431.4 453.355 425.687 458.066 419.281C466.708 406.472 471.537 391.472 471.991 376.027C472.404 363.439 470.502 350.883 466.38 338.982C463.651 330.952 460.188 323.19 456.034 315.797C454.57 313.163 453.372 311.166 452.551 309.807L451.62 308.268C451.415 307.925 451.321 307.728 451.321 307.728C451.464 307.876 451.586 308.042 451.686 308.221L452.698 309.729C453.568 311.04 454.816 313.005 456.312 315.639C460.599 322.996 464.162 330.751 466.95 338.797C471.188 350.749 473.177 363.381 472.817 376.057C472.688 379.711 472.33 383.354 471.745 386.963C471.157 390.739 470.3 394.467 469.178 398.12C466.836 405.854 463.274 413.165 458.625 419.776C453.865 426.252 448.216 432.024 441.843 436.921C435.934 441.47 429.755 445.654 423.338 449.452C411.142 456.786 399.921 463.019 391.211 469.309C387.257 472.079 383.483 475.096 379.911 478.344C378.379 479.826 376.914 481.163 375.629 482.471L372.325 486.225C371.829 486.8 371.351 487.327 370.937 487.823L369.859 489.344L368.199 491.732L367.137 493.189C367.034 493.364 366.918 493.53 366.789 493.686Z" fill="#9EBCFF"/>
<path d="M351.247 522.067C351.145 522.329 351.021 522.581 350.878 522.823L349.677 524.861C349.144 525.727 348.51 526.819 347.857 528.072C347.205 529.326 346.37 530.803 345.661 532.493C345.291 533.33 344.887 534.198 344.483 535.099C344.08 536 343.739 536.999 343.333 537.997C342.523 539.994 341.87 542.187 341.12 544.444C338.134 554.554 336.987 565.119 337.735 575.635C337.971 578.038 338.128 580.342 338.514 582.455C338.675 583.511 338.803 584.551 338.998 585.526C339.193 586.502 339.404 587.445 339.6 588.34C339.927 590.145 340.435 591.725 340.801 593.125C341.167 594.525 341.536 595.73 341.876 596.708L342.601 598.957C342.706 599.211 342.772 599.48 342.798 599.754C342.646 599.526 342.525 599.279 342.438 599.019C342.205 598.415 341.925 597.698 341.567 596.817C341.096 595.655 340.688 594.469 340.345 593.263C339.93 591.863 339.389 590.282 339.014 588.476C338.802 587.581 338.591 586.638 338.364 585.662C338.137 584.686 338.008 583.63 337.815 582.573C337.397 580.427 337.208 578.122 336.956 575.703C336.117 565.121 337.271 554.474 340.36 544.318C341.128 541.997 341.813 539.788 342.672 537.792C343.094 536.794 343.434 535.811 343.871 534.895L345.114 532.273C345.853 530.665 346.786 529.173 347.439 527.887C348.028 526.782 348.679 525.711 349.388 524.678L350.718 522.707C351.049 522.274 351.215 522.05 351.247 522.067Z" fill="#9EBCFF"/>
<path d="M550.917 564.331L550.589 564.553L549.574 565.168L545.598 567.469L542.719 569.042C541.64 569.624 540.448 570.155 539.174 570.766C536.594 571.955 533.748 573.48 530.39 574.689L525.17 576.725C523.359 577.409 521.389 577.943 519.401 578.591C515.44 579.968 511.048 580.933 506.476 582.04C486.407 586.392 465.662 586.6 445.51 582.653C440.892 581.636 436.498 580.753 432.5 579.455C430.501 578.839 428.532 578.352 426.694 577.739L421.444 575.723C418.075 574.582 415.182 573.124 412.592 571.979C411.305 571.39 410.098 570.868 409.022 570.299L406.098 568.711L402.083 566.489L401.056 565.889L400.719 565.672C400.719 565.672 400.865 565.675 401.105 565.825L402.166 566.344L406.249 568.422L409.19 569.929C410.283 570.466 411.507 570.956 412.794 571.528C415.385 572.608 418.279 574.034 421.664 575.127L426.85 577.109C428.687 577.755 430.657 578.226 432.657 578.826C436.639 580.091 441.017 580.925 445.571 581.924C465.631 585.741 486.25 585.531 506.229 581.307C510.785 580.215 515.16 579.299 519.12 577.954C521.108 577.323 523.061 576.82 524.871 576.137L530.09 574.165C533.448 572.989 536.309 571.513 538.889 570.372C540.163 569.777 541.371 569.263 542.448 568.81L545.359 567.238L549.398 565.068L550.46 564.534C550.787 564.362 550.917 564.315 550.917 564.331Z" fill="#9EBCFF"/>
<path d="M573.488 221.679C573.387 221.795 573.271 221.896 573.143 221.981L572.059 222.838C571.058 223.616 569.662 224.711 567.874 226.011C564.23 228.803 558.944 232.848 552.268 237.665C544.497 243.413 536.36 248.649 527.909 253.34C522.884 256.043 517.655 258.347 512.268 260.228C506.458 262.234 500.412 263.474 494.282 263.918C482.37 264.389 470.544 261.723 459.986 256.187C455.42 253.772 451.02 251.057 446.814 248.06C442.907 245.208 439.338 242.442 436.189 239.781C429.793 234.521 424.908 230.081 421.457 227.041L417.512 223.508L416.507 222.584L416.172 222.238C416.172 222.238 416.318 222.24 416.556 222.503L417.628 223.38L421.672 226.786C425.188 229.761 430.205 234.123 436.57 239.317C439.768 241.914 443.305 244.647 447.229 247.467C451.421 250.414 455.8 253.085 460.338 255.464C470.791 260.892 482.478 263.504 494.248 263.042C500.305 262.606 506.279 261.386 512.022 259.414C517.372 257.558 522.568 255.287 527.564 252.621C536.001 248.017 544.145 242.896 551.95 237.287C558.641 232.535 563.974 228.572 567.698 225.862L571.98 222.691L573.112 221.9C573.226 221.808 573.352 221.733 573.488 221.679Z" fill="#9EBCFF"/>
<g opacity="0.24">
<path opacity="0.24" d="M421.459 575.804C429.237 570.001 440.004 571.605 449.466 573.772C458.928 575.938 468.434 579.32 478.064 578.134C485.324 577.233 492.026 573.795 499.229 572.358C506.433 570.921 515.05 572.214 518.918 578.421C487.021 588.12 452.838 587.202 421.507 575.805" fill="black"/>
</g>
<path d="M197.683 515.64C234.076 479.248 234.076 420.244 197.683 383.851C161.291 347.459 102.287 347.459 65.8944 383.851C29.5019 420.244 29.5019 479.248 65.8944 515.64C102.287 552.033 161.291 552.033 197.683 515.64Z" fill="#407BFF"/>
<path opacity="0.4" d="M197.683 515.64C234.076 479.248 234.076 420.244 197.683 383.851C161.291 347.459 102.287 347.459 65.8944 383.851C29.5019 420.244 29.5019 479.248 65.8944 515.64C102.287 552.033 161.291 552.033 197.683 515.64Z" fill="black"/>
<path opacity="0.2" d="M208.936 462.904C216.203 420.301 187.558 379.874 144.955 372.607C102.352 365.34 61.924 393.985 54.657 436.588C47.3901 479.191 76.0356 519.619 118.639 526.886C161.242 534.153 201.669 505.507 208.936 462.904Z" fill="black"/>
<path d="M212.676 457.24C215.58 415.752 184.301 379.764 142.812 376.86C101.323 373.955 65.3356 405.234 62.4314 446.723C59.5272 488.212 90.8062 524.2 132.295 527.104C173.784 530.008 209.772 498.729 212.676 457.24Z" fill="#407BFF"/>
<path opacity="0.4" d="M212.676 457.24C215.58 415.752 184.301 379.764 142.812 376.86C101.323 373.955 65.3356 405.234 62.4314 446.723C59.5272 488.212 90.8062 524.2 132.295 527.104C173.784 530.008 209.772 498.729 212.676 457.24Z" fill="black"/>
<path d="M162.735 442.573L167.639 463.823C167.847 464.634 167.884 465.48 167.748 466.306C167.611 467.133 167.305 467.922 166.847 468.623C166.402 469.34 165.819 469.961 165.13 470.449C164.441 470.936 163.662 471.281 162.838 471.462L144.152 475.781L147.593 490.733C147.796 491.541 147.827 492.383 147.685 493.204C147.543 494.025 147.23 494.807 146.768 495.499C146.323 496.205 145.737 496.81 145.048 497.278C144.358 497.746 143.578 498.066 142.758 498.218C141.937 498.424 141.083 498.463 140.247 498.333C139.411 498.203 138.609 497.906 137.889 497.461C137.172 497.039 136.551 496.472 136.065 495.797C135.579 495.121 135.239 494.352 135.067 493.538L131.626 478.414L113.095 482.698C112.296 482.891 111.467 482.92 110.657 482.784C109.847 482.648 109.072 482.35 108.38 481.907C107.662 481.485 107.038 480.918 106.549 480.243C106.061 479.568 105.717 478.798 105.541 477.984C105.346 477.18 105.315 476.344 105.451 475.528C105.587 474.712 105.887 473.932 106.333 473.235C106.758 472.522 107.326 471.905 108.001 471.423C108.677 470.94 109.444 470.602 110.256 470.43L153.616 460.433L151.585 451.606L108.346 461.569C107.546 461.773 106.712 461.813 105.896 461.686C105.08 461.558 104.298 461.267 103.597 460.829C102.879 460.398 102.259 459.822 101.776 459.137C101.293 458.453 100.958 457.675 100.793 456.854L95.906 435.691C95.5299 434.064 95.8153 432.354 96.6993 430.938C97.5834 429.521 98.9939 428.514 100.621 428.137L119.066 423.887L115.624 408.918C115.425 408.126 115.386 407.303 115.51 406.496C115.634 405.689 115.919 404.916 116.347 404.221C116.801 403.468 117.41 402.821 118.134 402.322C118.858 401.824 119.68 401.485 120.545 401.33C121.341 401.137 122.168 401.107 122.975 401.243C123.783 401.379 124.554 401.678 125.243 402.121C125.949 402.556 126.56 403.129 127.039 403.806C127.519 404.483 127.855 405.251 128.03 406.062L131.471 421.014L150.398 416.678C151.217 416.48 152.067 416.449 152.898 416.588C153.729 416.727 154.523 417.033 155.233 417.487C155.951 417.899 156.575 418.456 157.067 419.123C157.559 419.789 157.907 420.55 158.089 421.358C158.452 423.022 158.149 424.762 157.245 426.206C156.342 427.649 154.909 428.682 153.254 429.084L109.895 439.08L111.787 447.855L154.992 437.893C155.811 437.695 156.661 437.664 157.492 437.803C158.323 437.942 159.117 438.248 159.827 438.702C160.557 439.107 161.193 439.66 161.694 440.328C162.195 440.995 162.549 441.76 162.735 442.573Z" fill="#407BFF"/>
<g opacity="0.7">
<path opacity="0.7" d="M162.735 442.573L167.639 463.823C167.847 464.634 167.884 465.48 167.748 466.306C167.611 467.133 167.305 467.922 166.847 468.623C166.402 469.34 165.819 469.961 165.13 470.449C164.441 470.936 163.662 471.281 162.838 471.462L144.152 475.781L147.593 490.733C147.796 491.541 147.827 492.383 147.685 493.204C147.543 494.025 147.23 494.807 146.768 495.499C146.323 496.205 145.737 496.81 145.048 497.278C144.358 497.746 143.578 498.066 142.758 498.218C141.937 498.424 141.083 498.463 140.247 498.333C139.411 498.203 138.609 497.906 137.889 497.461C137.172 497.039 136.551 496.472 136.065 495.797C135.579 495.121 135.239 494.352 135.067 493.538L131.626 478.414L113.095 482.698C112.296 482.891 111.467 482.92 110.657 482.784C109.847 482.648 109.072 482.35 108.38 481.907C107.662 481.485 107.038 480.918 106.549 480.243C106.061 479.568 105.717 478.798 105.541 477.984C105.346 477.18 105.315 476.344 105.451 475.528C105.587 474.712 105.887 473.932 106.333 473.235C106.758 472.522 107.326 471.905 108.001 471.423C108.677 470.94 109.444 470.602 110.256 470.43L153.616 460.433L151.585 451.606L108.346 461.569C107.546 461.773 106.712 461.813 105.896 461.686C105.08 461.558 104.298 461.267 103.597 460.829C102.879 460.398 102.259 459.822 101.776 459.137C101.293 458.453 100.958 457.675 100.793 456.854L95.906 435.691C95.5299 434.064 95.8153 432.354 96.6993 430.938C97.5834 429.521 98.9939 428.514 100.621 428.137L119.066 423.887L115.624 408.918C115.425 408.126 115.386 407.303 115.51 406.496C115.634 405.689 115.919 404.916 116.347 404.221C116.801 403.468 117.41 402.821 118.134 402.322C118.858 401.824 119.68 401.485 120.545 401.33C121.341 401.137 122.168 401.107 122.975 401.243C123.783 401.379 124.554 401.678 125.243 402.121C125.949 402.556 126.56 403.129 127.039 403.806C127.519 404.483 127.855 405.251 128.03 406.062L131.471 421.014L150.398 416.678C151.217 416.48 152.067 416.449 152.898 416.588C153.729 416.727 154.523 417.033 155.233 417.487C155.951 417.899 156.575 418.456 157.067 419.123C157.559 419.789 157.907 420.55 158.089 421.358C158.452 423.022 158.149 424.762 157.245 426.206C156.342 427.649 154.909 428.682 153.254 429.084L109.895 439.08L111.787 447.855L154.992 437.893C155.811 437.695 156.661 437.664 157.492 437.803C158.323 437.942 159.117 438.248 159.827 438.702C160.557 439.107 161.193 439.66 161.694 440.328C162.195 440.995 162.549 441.76 162.735 442.573Z" fill="white"/>
</g>
<path d="M330.647 375.637C353.832 348.202 350.387 307.165 322.951 283.98C295.515 260.795 254.479 264.241 231.294 291.677C208.109 319.113 211.555 360.149 238.99 383.334C266.426 406.519 307.462 403.073 330.647 375.637Z" fill="#407BFF"/>
<path opacity="0.4" d="M330.647 375.637C353.832 348.202 350.387 307.165 322.951 283.98C295.515 260.795 254.479 264.241 231.294 291.677C208.109 319.113 211.555 360.149 238.99 383.334C266.426 406.519 307.462 403.073 330.647 375.637Z" fill="black"/>
<path opacity="0.2" d="M323.067 368.405C342.284 345.158 339.018 310.734 315.771 291.516C292.525 272.299 258.101 275.565 238.883 298.812C219.665 322.058 222.932 356.482 246.178 375.7C269.425 394.918 303.849 391.651 323.067 368.405Z" fill="black"/>
<path d="M324.715 368.975C342.298 345.97 337.902 313.067 314.896 295.485C291.891 277.903 258.989 282.299 241.406 305.304C223.824 328.309 228.22 361.212 251.225 378.794C274.23 396.377 307.133 391.981 324.715 368.975Z" fill="#407BFF"/>
<path opacity="0.4" d="M324.715 368.975C342.298 345.97 337.902 313.067 314.896 295.485C291.891 277.903 258.989 282.299 241.406 305.304C223.824 328.309 228.22 361.212 251.225 378.794C274.23 396.377 307.133 391.981 324.715 368.975Z" fill="black"/>
<path d="M302.466 338.992L298.767 353.755C298.633 354.316 298.383 354.843 298.033 355.303C297.684 355.762 297.242 356.143 296.737 356.422C296.226 356.732 295.658 356.937 295.067 357.022C294.476 357.108 293.873 357.074 293.295 356.921L280.408 353.669L277.793 363.993C277.66 364.557 277.41 365.087 277.061 365.549C276.711 366.011 276.269 366.395 275.762 366.677C275.274 366.98 274.73 367.18 274.162 367.266C273.594 367.352 273.014 367.321 272.459 367.176C271.886 367.041 271.347 366.794 270.871 366.448C270.395 366.103 269.993 365.665 269.689 365.163C269.378 364.671 269.172 364.122 269.083 363.547C268.994 362.973 269.025 362.387 269.172 361.825L271.805 351.329L258.9 348.18C258.341 348.046 257.815 347.8 257.354 347.457C256.892 347.114 256.505 346.681 256.216 346.184C255.905 345.696 255.699 345.149 255.61 344.578C255.521 344.006 255.552 343.422 255.7 342.863C255.829 342.298 256.072 341.764 256.415 341.297C256.759 340.829 257.195 340.437 257.696 340.145C258.191 339.843 258.742 339.644 259.315 339.562C259.889 339.479 260.474 339.513 261.034 339.663L291.145 347.217L292.693 341.091L262.668 333.555C262.106 333.429 261.576 333.188 261.111 332.848C260.646 332.507 260.257 332.074 259.967 331.576C259.655 331.085 259.451 330.534 259.368 329.959C259.285 329.383 259.325 328.797 259.485 328.238L263.167 313.527C263.306 312.966 263.554 312.438 263.898 311.974C264.242 311.51 264.674 311.119 265.17 310.823C265.666 310.527 266.216 310.332 266.788 310.25C267.36 310.167 267.942 310.199 268.501 310.344L281.268 313.544L283.884 303.22C284.01 302.638 284.256 302.087 284.606 301.604C284.955 301.121 285.401 300.716 285.915 300.413C286.429 300.111 287 299.919 287.592 299.848C288.184 299.777 288.785 299.83 289.355 300.003C289.91 300.131 290.432 300.373 290.888 300.714C291.344 301.055 291.724 301.486 292.005 301.981C292.309 302.472 292.511 303.019 292.596 303.59C292.682 304.161 292.651 304.744 292.504 305.302L289.889 315.626L302.965 318.912C303.539 319.049 304.079 319.301 304.552 319.653C305.025 320.005 305.422 320.45 305.718 320.96C306.032 321.443 306.243 321.986 306.337 322.554C306.432 323.123 306.409 323.704 306.269 324.263C306.125 324.837 305.869 325.375 305.514 325.848C305.16 326.321 304.714 326.718 304.204 327.016C303.696 327.333 303.129 327.541 302.537 327.63C301.945 327.719 301.341 327.686 300.763 327.533L270.635 319.979L269.121 326.07L299.128 333.589C299.702 333.726 300.242 333.978 300.715 334.33C301.188 334.682 301.585 335.127 301.881 335.637C302.213 336.122 302.437 336.672 302.538 337.251C302.638 337.83 302.614 338.423 302.466 338.992Z" fill="#407BFF"/>
<g opacity="0.7">
<path opacity="0.7" d="M302.466 338.992L298.767 353.755C298.633 354.316 298.383 354.843 298.033 355.303C297.684 355.762 297.242 356.143 296.737 356.422C296.226 356.732 295.658 356.937 295.067 357.022C294.476 357.108 293.873 357.074 293.295 356.921L280.408 353.669L277.793 363.993C277.66 364.557 277.41 365.087 277.061 365.549C276.711 366.011 276.269 366.395 275.762 366.677C275.274 366.98 274.73 367.18 274.162 367.266C273.594 367.352 273.014 367.321 272.459 367.176C271.886 367.041 271.347 366.794 270.871 366.448C270.395 366.103 269.993 365.665 269.689 365.163C269.378 364.671 269.172 364.122 269.083 363.547C268.994 362.973 269.025 362.387 269.172 361.825L271.805 351.329L258.9 348.18C258.341 348.046 257.815 347.8 257.354 347.457C256.892 347.114 256.505 346.681 256.216 346.184C255.905 345.696 255.699 345.149 255.61 344.578C255.521 344.006 255.552 343.422 255.7 342.863C255.829 342.298 256.072 341.764 256.415 341.297C256.759 340.829 257.195 340.437 257.696 340.145C258.191 339.843 258.742 339.644 259.315 339.562C259.889 339.479 260.474 339.513 261.034 339.663L291.145 347.217L292.693 341.091L262.668 333.555C262.106 333.429 261.576 333.188 261.111 332.848C260.646 332.507 260.257 332.074 259.967 331.576C259.655 331.085 259.451 330.534 259.368 329.959C259.285 329.383 259.325 328.797 259.485 328.238L263.167 313.527C263.306 312.966 263.554 312.438 263.898 311.974C264.242 311.51 264.674 311.119 265.17 310.823C265.666 310.527 266.216 310.332 266.788 310.25C267.36 310.167 267.942 310.199 268.501 310.344L281.268 313.544L283.884 303.22C284.01 302.638 284.256 302.087 284.606 301.604C284.955 301.121 285.401 300.716 285.915 300.413C286.429 300.111 287 299.919 287.592 299.848C288.184 299.777 288.785 299.83 289.355 300.003C289.91 300.131 290.432 300.373 290.888 300.714C291.344 301.055 291.724 301.486 292.005 301.981C292.309 302.472 292.511 303.019 292.596 303.59C292.682 304.161 292.651 304.744 292.504 305.302L289.889 315.626L302.965 318.912C303.539 319.049 304.079 319.301 304.552 319.653C305.025 320.005 305.422 320.45 305.718 320.96C306.032 321.443 306.243 321.986 306.337 322.554C306.432 323.123 306.409 323.704 306.269 324.263C306.125 324.837 305.869 325.375 305.514 325.848C305.16 326.321 304.714 326.718 304.204 327.016C303.696 327.333 303.129 327.541 302.537 327.63C301.945 327.719 301.341 327.686 300.763 327.533L270.635 319.979L269.121 326.07L299.128 333.589C299.702 333.726 300.242 333.978 300.715 334.33C301.188 334.682 301.585 335.127 301.881 335.637C302.213 336.122 302.437 336.672 302.538 337.251C302.638 337.83 302.614 338.423 302.466 338.992Z" fill="white"/>
</g>
<path d="M495.783 699.531L495.675 709.061C495.598 715.24 510.89 720.554 529.797 720.755C548.704 720.955 564.105 716.121 564.182 709.818L564.29 700.272C564.163 701.263 563.803 702.209 563.239 703.033C562.675 703.858 561.924 704.536 561.047 705.014C557.159 707.354 552.859 708.927 548.38 709.648C536.162 711.884 523.628 711.748 511.462 709.247C507 708.429 502.736 706.761 498.904 704.335C496.88 702.867 495.752 701.23 495.783 699.531Z" fill="#FFC727"/>
<path opacity="0.1" d="M495.783 699.531L495.675 709.061C495.598 715.24 510.89 720.554 529.797 720.755C548.704 720.955 564.105 716.121 564.182 709.818L564.29 700.272C564.163 701.263 563.803 702.209 563.239 703.033C562.675 703.858 561.924 704.536 561.047 705.014C557.159 707.354 552.859 708.927 548.38 709.648C536.162 711.884 523.628 711.748 511.462 709.247C507 708.429 502.736 706.761 498.904 704.335C496.88 702.867 495.752 701.23 495.783 699.531Z" fill="black"/>
<path d="M495.784 699.515C495.784 701.214 496.881 702.852 498.874 704.319C502.706 706.746 506.97 708.414 511.432 709.231C523.596 711.753 536.134 711.889 548.35 709.633C552.831 708.916 557.131 707.343 561.017 704.999C561.895 704.523 562.648 703.845 563.212 703.02C563.776 702.195 564.135 701.248 564.26 700.257C564.26 694.078 549.045 688.78 530.107 688.579C511.695 688.378 496.603 693.043 495.784 699.036C495.8 699.206 495.784 699.361 495.784 699.515Z" fill="#FFC727"/>
<path opacity="0.3" d="M503.445 698.264C503.513 699.028 503.763 699.765 504.174 700.413C504.585 701.06 505.146 701.6 505.808 701.987C508.781 703.874 512.091 705.17 515.555 705.802C520.262 706.813 525.061 707.331 529.875 707.347C534.693 707.43 539.507 707.016 544.24 706.111C547.721 705.556 551.062 704.334 554.08 702.512C554.762 702.145 555.345 701.62 555.781 700.98C556.216 700.34 556.491 699.605 556.582 698.836C556.582 694.001 544.765 689.923 530.075 689.768C515.756 689.614 504.047 693.229 503.414 697.894C503.417 698.018 503.427 698.141 503.445 698.264Z" fill="white"/>
<path d="M591.493 678.152L591.385 687.699C591.385 693.877 606.6 699.176 625.507 699.392C644.414 699.608 659.83 694.681 659.892 688.455L660 678.909C659.883 679.899 659.528 680.846 658.966 681.669C658.404 682.492 657.651 683.167 656.772 683.636C652.887 685.982 648.586 687.555 644.105 688.27C631.884 690.527 619.341 690.39 607.172 687.868C602.715 687.056 598.457 685.393 594.629 682.972C592.605 681.489 591.477 679.852 591.493 678.152Z" fill="#FFC727"/>
<path opacity="0.1" d="M591.493 678.152L591.385 687.699C591.385 693.877 606.6 699.176 625.507 699.392C644.414 699.608 659.83 694.681 659.892 688.455L660 678.909C659.883 679.899 659.528 680.846 658.966 681.669C658.404 682.492 657.651 683.167 656.772 683.636C652.887 685.982 648.586 687.555 644.105 688.27C631.884 690.527 619.341 690.39 607.172 687.868C602.715 687.056 598.457 685.393 594.629 682.972C592.605 681.489 591.477 679.852 591.493 678.152Z" fill="black"/>
<path d="M591.493 678.152C591.583 679.142 591.911 680.096 592.449 680.933C592.987 681.769 593.719 682.463 594.582 682.956C598.409 685.384 602.668 687.051 607.125 687.868C619.295 690.39 631.838 690.526 644.059 688.27C648.536 687.541 652.835 685.968 656.725 683.636C657.607 683.165 658.361 682.488 658.923 681.662C659.486 680.836 659.839 679.886 659.954 678.894C660.031 672.715 644.739 667.417 625.816 667.216C607.388 667.015 592.312 671.664 591.493 677.673C591.477 677.833 591.477 677.993 591.493 678.152Z" fill="#FFC727"/>
<path opacity="0.3" d="M599.154 676.901C599.226 677.678 599.483 678.426 599.906 679.082C600.328 679.738 600.902 680.283 601.58 680.67C604.55 682.563 607.861 683.859 611.327 684.485C620.773 686.441 630.51 686.546 639.996 684.794C643.479 684.245 646.821 683.023 649.836 681.195C650.518 680.827 651.102 680.302 651.54 679.662C651.978 679.023 652.257 678.288 652.354 677.519C652.354 672.668 640.537 668.606 625.831 668.436C611.527 668.281 599.803 671.911 599.17 676.561C599.159 676.674 599.153 676.787 599.154 676.901Z" fill="white"/>
<path d="M429.871 711.224L429.763 720.77C429.763 726.949 444.978 732.247 463.885 732.463C482.793 732.68 498.209 727.829 498.27 721.512L498.379 711.965C498.264 712.958 497.91 713.908 497.348 714.734C496.786 715.56 496.032 716.237 495.15 716.708C491.258 719.049 486.953 720.622 482.468 721.342C470.252 723.598 457.714 723.462 445.55 720.94C441.092 720.123 436.834 718.455 433.007 716.028C432.135 715.54 431.394 714.849 430.848 714.012C430.302 713.175 429.967 712.218 429.871 711.224Z" fill="#FFC727"/>
<path opacity="0.1" d="M429.871 711.224L429.763 720.77C429.763 726.949 444.978 732.247 463.885 732.463C482.793 732.68 498.209 727.829 498.27 721.512L498.379 711.965C498.264 712.958 497.91 713.908 497.348 714.734C496.786 715.56 496.032 716.237 495.15 716.708C491.258 719.049 486.953 720.622 482.468 721.342C470.252 723.598 457.714 723.462 445.55 720.94C441.092 720.123 436.834 718.455 433.007 716.028C432.135 715.54 431.394 714.849 430.848 714.012C430.302 713.175 429.967 712.218 429.871 711.224Z" fill="black"/>
<path d="M429.872 711.224C429.969 712.212 430.301 713.163 430.838 713.998C431.375 714.833 432.102 715.529 432.961 716.028C436.79 718.45 441.048 720.118 445.504 720.94C451.569 722.22 457.749 722.883 463.948 722.917C470.163 723.04 476.374 722.522 482.484 721.373C486.967 720.646 491.271 719.074 495.166 716.739C497.22 715.302 498.379 713.649 498.394 711.996C498.394 705.818 483.179 700.519 464.256 700.303C445.828 700.102 430.737 704.767 429.933 710.761C429.899 710.913 429.879 711.068 429.872 711.224Z" fill="#FFC727"/>
<path opacity="0.3" d="M437.534 710.019C437.611 710.792 437.874 711.535 438.298 712.186C438.723 712.836 439.298 713.375 439.974 713.757C442.948 715.633 446.25 716.928 449.706 717.573C459.158 719.528 468.899 719.633 478.391 717.882C481.872 717.325 485.212 716.103 488.231 714.282C488.912 713.914 489.496 713.388 489.933 712.748C490.371 712.109 490.651 711.375 490.748 710.606C490.748 705.756 478.931 701.693 464.226 701.523C449.922 701.369 438.198 704.999 437.565 709.648C437.547 709.771 437.536 709.895 437.534 710.019Z" fill="white"/>
<path d="M186.721 713.912L186.629 723.458C186.551 729.637 201.844 734.935 220.751 735.151C239.658 735.368 255.059 730.517 255.136 724.2L255.229 714.669C255.112 715.659 254.757 716.606 254.195 717.429C253.633 718.252 252.88 718.927 252 719.396C248.117 721.744 243.816 723.318 239.334 724.03C227.112 726.286 214.569 726.15 202.4 723.628C197.943 722.808 193.685 721.141 189.857 718.716C188.985 718.228 188.244 717.537 187.698 716.7C187.152 715.863 186.817 714.906 186.721 713.912Z" fill="#FFC727"/>
<path opacity="0.1" d="M186.721 713.912L186.629 723.458C186.551 729.637 201.844 734.935 220.751 735.151C239.658 735.368 255.059 730.517 255.136 724.2L255.229 714.669C255.112 715.659 254.757 716.606 254.195 717.429C253.633 718.252 252.88 718.927 252 719.396C248.117 721.744 243.816 723.318 239.334 724.03C227.112 726.286 214.569 726.15 202.4 723.628C197.943 722.808 193.685 721.141 189.857 718.716C188.985 718.228 188.244 717.537 187.698 716.7C187.152 715.863 186.817 714.906 186.721 713.912Z" fill="black"/>
<path d="M186.721 713.912C186.812 714.902 187.14 715.856 187.677 716.692C188.215 717.529 188.947 718.223 189.811 718.716C193.639 721.14 197.897 722.808 202.354 723.628C214.525 726.129 227.064 726.265 239.287 724.03C243.765 723.303 248.064 721.731 251.954 719.395C254.008 717.959 255.167 716.306 255.182 714.653C255.259 708.474 239.982 703.176 221.044 702.96C202.616 702.759 187.54 707.424 186.721 713.417V713.912Z" fill="#FFC727"/>
<path opacity="0.3" d="M194.398 712.645C194.472 713.417 194.731 714.16 195.153 714.811C195.575 715.462 196.148 716.001 196.824 716.383C199.794 718.276 203.105 719.572 206.571 720.199C211.28 721.194 216.077 721.712 220.89 721.743C225.703 721.828 230.512 721.413 235.24 720.508C238.725 719.948 242.07 718.726 245.095 716.908C245.775 716.539 246.356 716.012 246.791 715.373C247.226 714.734 247.503 714 247.598 713.232C247.598 708.382 235.781 704.319 221.091 704.149C206.771 703.995 195.063 707.625 194.429 712.274C194.411 712.397 194.401 712.521 194.398 712.645Z" fill="white"/>
<path d="M374.51 688.115L374.402 697.662C374.324 703.84 389.617 709.139 408.524 709.34C427.431 709.54 442.832 704.705 442.909 698.403L443.017 688.857C442.89 689.847 442.529 690.794 441.965 691.618C441.401 692.442 440.65 693.121 439.773 693.599C435.884 695.934 431.585 697.507 427.107 698.233C414.885 700.49 402.342 700.353 390.173 697.832C385.716 697.012 381.458 695.344 377.63 692.919C375.591 691.483 374.51 689.815 374.51 688.115Z" fill="#FFC727"/>
<path opacity="0.1" d="M374.51 688.115L374.402 697.662C374.324 703.84 389.617 709.139 408.524 709.34C427.431 709.54 442.832 704.705 442.909 698.403L443.017 688.857C442.89 689.847 442.529 690.794 441.965 691.618C441.401 692.442 440.65 693.121 439.773 693.599C435.884 695.934 431.585 697.507 427.107 698.233C414.885 700.49 402.342 700.353 390.173 697.832C385.716 697.012 381.458 695.344 377.63 692.919C375.591 691.483 374.51 689.815 374.51 688.115Z" fill="black"/>
<path d="M374.509 688.1C374.509 689.799 375.606 691.436 377.599 692.904C381.427 695.329 385.685 696.996 390.142 697.816C402.311 700.338 414.854 700.474 427.075 698.218C431.555 697.498 435.855 695.925 439.742 693.584C440.618 693.109 441.37 692.433 441.934 691.611C442.498 690.79 442.858 689.845 442.986 688.857C442.986 682.678 427.77 677.364 408.832 677.163C390.42 676.963 375.328 681.628 374.509 687.621C374.509 687.776 374.509 687.945 374.509 688.1Z" fill="#FFC727"/>
<path opacity="0.3" d="M382.233 686.849C382.309 687.62 382.569 688.362 382.991 689.013C383.413 689.663 383.985 690.203 384.658 690.587C387.636 692.462 390.944 693.752 394.405 694.387C399.112 695.398 403.911 695.916 408.724 695.932C413.542 696.012 418.355 695.603 423.09 694.711C426.567 694.142 429.906 692.921 432.93 691.112C433.611 690.741 434.194 690.212 434.629 689.57C435.064 688.928 435.34 688.191 435.432 687.42C435.432 682.585 423.615 678.507 408.925 678.353C394.606 678.198 382.897 681.813 382.264 686.478C382.246 686.601 382.236 686.725 382.233 686.849Z" fill="white"/>
<path d="M213.259 668.421L213.166 677.967C213.089 684.146 228.366 689.444 247.289 689.66C266.211 689.876 281.596 684.949 281.673 678.708L281.766 669.178C281.649 670.167 281.294 671.114 280.732 671.937C280.17 672.76 279.417 673.435 278.538 673.904C274.655 676.253 270.353 677.826 265.871 678.538C253.65 680.795 241.107 680.658 228.938 678.137C224.481 677.317 220.223 675.649 216.395 673.225C215.523 672.737 214.782 672.045 214.236 671.209C213.689 670.372 213.354 669.415 213.259 668.421Z" fill="#FFC727"/>
<path opacity="0.1" d="M213.259 668.421L213.166 677.967C213.089 684.146 228.366 689.444 247.289 689.66C266.211 689.876 281.596 684.949 281.673 678.708L281.766 669.178C281.649 670.167 281.294 671.114 280.732 671.937C280.17 672.76 279.417 673.435 278.538 673.904C274.655 676.253 270.353 677.826 265.871 678.538C253.65 680.795 241.107 680.658 228.938 678.137C224.481 677.317 220.223 675.649 216.395 673.225C215.523 672.737 214.782 672.045 214.236 671.209C213.689 670.372 213.354 669.415 213.259 668.421Z" fill="black"/>
<path d="M213.259 668.42C213.35 669.411 213.678 670.364 214.216 671.201C214.753 672.037 215.485 672.731 216.349 673.224C220.177 675.649 224.435 677.316 228.892 678.136C241.063 680.637 253.602 680.774 265.825 678.538C270.303 677.812 274.602 676.239 278.492 673.904C280.546 672.467 281.705 670.815 281.72 669.162C281.72 662.983 266.52 657.685 247.582 657.468C229.154 657.268 214.078 661.933 213.259 667.926C213.29 668.096 213.259 668.312 213.259 668.42Z" fill="#FFC727"/>
<path opacity="0.3" d="M220.936 667.154C221.01 667.926 221.268 668.669 221.691 669.32C222.113 669.971 222.686 670.51 223.361 670.892C226.331 672.785 229.642 674.081 233.108 674.707C237.817 675.703 242.615 676.221 247.428 676.252C252.241 676.336 257.05 675.922 261.778 675.016C265.258 674.46 268.599 673.238 271.617 671.417C272.3 671.05 272.885 670.525 273.324 669.885C273.762 669.246 274.04 668.51 274.135 667.741C274.135 662.891 262.318 658.828 247.628 658.658C233.309 658.504 221.6 662.134 220.967 666.783C220.949 666.906 220.939 667.03 220.936 667.154Z" fill="white"/>
<path d="M438.939 678.384L441.441 687.652C443.079 693.676 459.205 694.557 477.464 689.583C495.722 684.609 509.192 675.681 507.554 669.672L505.052 660.404C505.202 661.39 505.115 662.397 504.798 663.343C504.481 664.288 503.943 665.145 503.229 665.841C500.126 669.153 496.42 671.843 492.308 673.765C481.165 679.261 469.064 682.55 456.672 683.45C452.161 683.877 447.61 683.436 443.264 682.153C442.295 681.915 441.396 681.449 440.644 680.793C439.892 680.138 439.307 679.311 438.939 678.384Z" fill="#FFC727"/>
<path opacity="0.1" d="M438.939 678.384L441.441 687.652C443.079 693.676 459.205 694.557 477.464 689.583C495.722 684.609 509.192 675.681 507.554 669.672L505.052 660.404C505.202 661.39 505.115 662.397 504.798 663.343C504.481 664.288 503.943 665.145 503.229 665.841C500.126 669.153 496.42 671.843 492.308 673.765C481.165 679.261 469.064 682.55 456.672 683.45C452.161 683.877 447.61 683.436 443.264 682.153C442.295 681.915 441.396 681.449 440.644 680.793C439.892 680.138 439.307 679.311 438.939 678.384Z" fill="black"/>
<path d="M438.939 678.384C439.297 679.321 439.876 680.159 440.626 680.825C441.376 681.492 442.276 681.969 443.249 682.215C447.599 683.5 452.156 683.941 456.672 683.512C469.067 682.616 481.169 679.321 492.308 673.812C496.416 671.89 500.122 669.206 503.229 665.903C504.774 663.956 505.484 662.087 505.036 660.45C503.399 654.441 487.272 653.561 469.014 658.535C451.235 663.369 437.981 671.973 438.846 677.967C438.866 678.108 438.897 678.248 438.939 678.384Z" fill="#FFC727"/>
<path opacity="0.3" d="M445.967 675.078C446.252 675.799 446.704 676.441 447.287 676.952C447.87 677.462 448.567 677.826 449.319 678.013C452.7 679.003 456.238 679.344 459.746 679.017C469.369 678.319 478.764 675.759 487.411 671.479C490.61 669.986 493.49 667.888 495.892 665.3C496.448 664.762 496.867 664.098 497.114 663.364C497.361 662.631 497.43 661.849 497.313 661.083C496.031 656.449 483.503 655.723 469.323 659.539C455.513 663.292 445.226 669.981 445.89 674.63C445.905 674.781 445.93 674.931 445.967 675.078Z" fill="white"/>
<path d="M569.326 639.473L566.036 648.432C563.873 654.287 576.509 664.342 594.257 670.877C612.006 677.411 628.163 677.951 630.326 672.097L633.616 663.138C633.175 664.034 632.523 664.81 631.716 665.4C630.909 665.989 629.971 666.373 628.982 666.521C624.536 667.418 619.959 667.46 615.497 666.644C603.23 664.657 591.462 660.325 580.834 653.885C576.914 651.615 573.464 648.616 570.67 645.049C569.249 642.979 568.739 641.064 569.326 639.473Z" fill="#FFC727"/>
<path opacity="0.1" d="M569.326 639.473L566.036 648.432C563.873 654.287 576.509 664.342 594.257 670.877C612.006 677.411 628.163 677.951 630.326 672.097L633.616 663.138C633.175 664.034 632.523 664.81 631.716 665.4C630.909 665.989 629.971 666.373 628.982 666.521C624.536 667.418 619.959 667.46 615.497 666.644C603.23 664.657 591.462 660.325 580.834 653.885C576.914 651.615 573.464 648.616 570.67 645.049C569.249 642.979 568.739 641.064 569.326 639.473Z" fill="black"/>
<path d="M569.326 639.458C569.083 640.426 569.078 641.44 569.312 642.411C569.546 643.382 570.012 644.282 570.67 645.034C573.458 648.612 576.915 651.613 580.85 653.87C591.457 660.328 603.22 664.661 615.482 666.629C619.943 667.453 624.522 667.411 628.967 666.505C629.954 666.36 630.891 665.977 631.698 665.391C632.505 664.805 633.158 664.031 633.601 663.138C635.764 657.283 623.128 647.212 605.364 640.678C588.064 634.314 572.292 633.65 569.512 639.025C569.441 639.165 569.379 639.31 569.326 639.458Z" fill="#FFC727"/>
<path opacity="0.3" d="M576.973 640.848C576.784 641.599 576.779 642.384 576.96 643.137C577.14 643.89 577.499 644.589 578.008 645.173C580.179 647.95 582.864 650.284 585.916 652.047C590.022 654.54 594.369 656.61 598.892 658.226C603.388 659.915 608.047 661.137 612.794 661.871C616.258 662.515 619.815 662.484 623.267 661.778C624.034 661.663 624.762 661.363 625.388 660.906C626.015 660.449 626.522 659.847 626.866 659.152C628.55 654.611 618.726 646.795 604.932 641.713C591.508 636.77 579.259 636.26 577.127 640.431C577.062 640.564 577.01 640.704 576.973 640.848Z" fill="white"/>
<path d="M392.861 664.652L392.768 674.198C392.691 680.377 407.968 685.675 426.89 685.891C445.813 686.107 461.198 681.18 461.275 674.939L461.368 665.393C461.253 666.386 460.9 667.336 460.337 668.162C459.775 668.987 459.021 669.665 458.139 670.135C454.253 672.477 449.953 674.05 445.473 674.769C433.252 677.026 420.709 676.889 408.539 674.368C404.082 673.548 399.825 671.88 395.996 669.456C395.124 668.968 394.383 668.276 393.837 667.44C393.291 666.603 392.956 665.646 392.861 664.652Z" fill="#FFC727"/>
<path opacity="0.1" d="M392.861 664.652L392.768 674.198C392.691 680.377 407.968 685.675 426.89 685.891C445.813 686.107 461.198 681.18 461.275 674.939L461.368 665.393C461.253 666.386 460.9 667.336 460.337 668.162C459.775 668.987 459.021 669.665 458.139 670.135C454.253 672.477 449.953 674.05 445.473 674.769C433.252 677.026 420.709 676.889 408.539 674.368C404.082 673.548 399.825 671.88 395.996 669.456C395.124 668.968 394.383 668.276 393.837 667.44C393.291 666.603 392.956 665.646 392.861 664.652Z" fill="black"/>
<path d="M392.861 664.652C392.959 665.64 393.29 666.591 393.827 667.426C394.364 668.261 395.092 668.957 395.95 669.456C399.782 671.874 404.038 673.541 408.493 674.368C414.589 675.653 420.8 676.316 427.029 676.345C433.245 676.465 439.456 675.948 445.566 674.8C450.044 674.074 454.343 672.501 458.232 670.166C460.287 668.73 461.445 667.077 461.461 665.424C461.461 659.245 446.261 653.947 427.323 653.731C408.895 653.53 393.819 658.195 393 664.188L392.861 664.652Z" fill="#FFC727"/>
<path opacity="0.3" d="M400.538 663.385C400.611 664.157 400.87 664.9 401.292 665.551C401.714 666.202 402.288 666.741 402.963 667.123C405.941 669 409.249 670.295 412.71 670.938C422.156 672.894 431.893 672.999 441.379 671.247C444.864 670.687 448.209 669.466 451.234 667.648C451.914 667.278 452.495 666.752 452.93 666.112C453.365 665.473 453.642 664.739 453.737 663.972C453.737 659.121 441.92 655.059 427.23 654.889C412.911 654.734 401.202 658.364 400.568 663.014C400.551 663.137 400.54 663.261 400.538 663.385Z" fill="white"/>
<path d="M265.099 658.148L264.991 667.679C264.991 673.858 280.206 679.171 299.113 679.372C318.021 679.573 333.437 674.661 333.498 668.436L333.607 658.89C333.49 659.879 333.135 660.826 332.573 661.649C332.011 662.472 331.258 663.147 330.378 663.616C326.486 665.958 322.181 667.531 317.696 668.25C305.478 670.492 292.942 670.35 280.778 667.833C276.322 667.02 272.063 665.358 268.235 662.937C267.37 662.445 266.634 661.754 266.089 660.921C265.544 660.088 265.205 659.138 265.099 658.148Z" fill="#FFC727"/>
<path opacity="0.1" d="M265.099 658.148L264.991 667.679C264.991 673.858 280.206 679.171 299.113 679.372C318.021 679.573 333.437 674.661 333.498 668.436L333.607 658.89C333.49 659.879 333.135 660.826 332.573 661.649C332.011 662.472 331.258 663.147 330.378 663.616C326.486 665.958 322.181 667.531 317.696 668.25C305.478 670.492 292.942 670.35 280.778 667.833C276.322 667.02 272.063 665.358 268.235 662.937C267.37 662.445 266.634 661.754 266.089 660.921C265.544 660.088 265.205 659.138 265.099 658.148Z" fill="black"/>
<path d="M265.099 658.133C265.19 659.123 265.518 660.077 266.055 660.913C266.593 661.75 267.325 662.444 268.189 662.937C272.015 665.364 276.274 667.032 280.731 667.849C286.81 669.151 293.006 669.823 299.221 669.857C305.437 669.972 311.647 669.454 317.758 668.312C322.242 667.593 326.547 666.019 330.44 663.678C331.321 663.208 332.075 662.531 332.638 661.705C333.2 660.879 333.553 659.929 333.668 658.936C333.668 652.757 318.453 647.459 299.53 647.258C281.102 647.057 266.011 651.707 265.207 657.716C265.159 657.852 265.123 657.991 265.099 658.133Z" fill="#FFC727"/>
<path opacity="0.3" d="M272.761 656.882C272.841 657.652 273.104 658.392 273.529 659.04C273.953 659.687 274.527 660.224 275.201 660.604C278.172 662.497 281.482 663.793 284.948 664.42C294.395 666.375 304.131 666.48 313.618 664.729C317.1 664.179 320.443 662.957 323.458 661.13C324.141 660.764 324.727 660.239 325.165 659.599C325.603 658.959 325.881 658.223 325.975 657.453C325.975 652.618 314.159 648.54 299.453 648.386C285.149 648.216 273.425 651.846 272.792 656.495C272.774 656.624 272.764 656.752 272.761 656.882Z" fill="white"/>
<path d="M248.632 651.846L244.554 660.465C241.882 666.103 253.591 677.256 270.691 685.319C287.79 693.383 303.84 695.36 306.497 689.722L310.575 681.087C309.849 682.632 308.118 683.605 305.662 684.053C301.15 684.555 296.583 684.188 292.208 682.972C280.166 679.931 268.829 674.58 258.827 667.216C255.114 664.612 251.936 661.319 249.466 657.515C248.88 656.708 248.498 655.77 248.352 654.783C248.207 653.796 248.303 652.788 248.632 651.846Z" fill="#FFC727"/>
<path opacity="0.1" d="M248.632 651.846L244.554 660.465C241.882 666.103 253.591 677.256 270.691 685.319C287.79 693.383 303.84 695.36 306.497 689.722L310.575 681.087C309.849 682.632 308.118 683.605 305.662 684.053C301.15 684.555 296.583 684.188 292.208 682.972C280.166 679.931 268.829 674.58 258.827 667.216C255.114 664.612 251.936 661.319 249.466 657.515C248.88 656.708 248.498 655.77 248.352 654.783C248.207 653.796 248.303 652.788 248.632 651.846Z" fill="black"/>
<path d="M248.633 651.831C248.304 652.773 248.208 653.78 248.353 654.768C248.498 655.755 248.88 656.692 249.467 657.5C251.936 661.303 255.114 664.597 258.828 667.2C263.802 670.897 269.138 674.08 274.754 676.7C280.347 679.384 286.201 681.485 292.224 682.972C296.593 684.191 301.156 684.553 305.663 684.038C308.134 683.605 309.864 682.616 310.575 681.087C313.247 675.449 301.554 664.312 284.423 656.218C267.772 648.355 252.108 646.301 248.895 651.414C248.787 651.553 248.695 651.692 248.633 651.831Z" fill="#FFC727"/>
<path opacity="0.3" d="M256.125 653.885C255.868 654.617 255.794 655.399 255.907 656.166C256.02 656.933 256.317 657.661 256.773 658.287C258.692 661.239 261.156 663.797 264.034 665.826C271.809 671.541 280.615 675.701 289.969 678.075C293.37 679.018 296.919 679.301 300.426 678.909C301.199 678.855 301.948 678.618 302.611 678.217C303.274 677.817 303.833 677.266 304.242 676.608C306.312 672.221 297.214 663.57 283.929 657.299C270.985 651.12 258.828 649.575 256.31 653.561C256.242 653.665 256.181 653.774 256.125 653.885Z" fill="white"/>
<path d="M318.205 649.127L315.934 658.396C314.39 664.466 328.122 673.039 346.489 677.55C364.855 682.06 380.982 680.794 382.464 674.738L384.751 665.47C384.402 666.406 383.837 667.245 383.101 667.919C382.366 668.593 381.48 669.082 380.518 669.348C376.199 670.739 371.652 671.289 367.126 670.969C354.712 670.361 342.533 667.361 331.258 662.134C327.103 660.322 323.337 657.726 320.167 654.488C319.433 653.818 318.872 652.981 318.53 652.048C318.189 651.114 318.077 650.113 318.205 649.127Z" fill="#FFC727"/>
<path opacity="0.1" d="M318.205 649.127L315.934 658.396C314.39 664.466 328.122 673.039 346.489 677.55C364.855 682.06 380.982 680.794 382.464 674.738L384.751 665.47C384.402 666.406 383.837 667.245 383.101 667.919C382.366 668.593 381.48 669.082 380.518 669.348C376.199 670.739 371.652 671.289 367.126 670.969C354.712 670.361 342.533 667.361 331.258 662.134C327.103 660.322 323.337 657.726 320.167 654.488C319.433 653.818 318.872 652.981 318.53 652.048C318.189 651.114 318.077 650.113 318.205 649.127Z" fill="black"/>
<path d="M318.205 649.127C317.804 650.765 318.53 652.618 320.167 654.518C323.343 657.742 327.108 660.327 331.258 662.134C342.533 667.36 354.713 670.355 367.126 670.954C371.654 671.272 376.2 670.716 380.518 669.316C381.485 669.061 382.375 668.574 383.112 667.899C383.849 667.224 384.411 666.38 384.751 665.439C386.295 659.384 372.548 650.796 354.166 646.285C336.278 641.898 320.522 642.995 318.36 648.648L318.205 649.127Z" fill="#FFC727"/>
<path opacity="0.3" d="M325.96 649.652C325.865 650.423 325.955 651.205 326.224 651.933C326.493 652.661 326.932 653.315 327.505 653.839C329.971 656.35 332.897 658.364 336.124 659.77C344.863 663.826 354.305 666.15 363.929 666.613C367.448 666.858 370.982 666.428 374.34 665.347C375.088 665.146 375.777 664.767 376.347 664.242C376.917 663.718 377.352 663.063 377.615 662.334C378.773 657.623 368.146 650.965 353.873 647.459C339.97 644.045 327.736 644.895 326.068 649.297C326.023 649.413 325.987 649.531 325.96 649.652Z" fill="white"/>
<path d="M324.353 698.758L324.261 708.305C324.183 714.483 339.46 719.782 358.383 719.982C377.305 720.183 392.69 715.348 392.768 709.046L392.86 699.5C392.746 700.492 392.392 701.442 391.83 702.268C391.268 703.094 390.513 703.771 389.632 704.242C385.746 706.584 381.445 708.157 376.965 708.876C370.855 710.016 364.644 710.534 358.429 710.421C352.246 710.4 346.082 709.748 340.032 708.474C335.575 707.654 331.317 705.987 327.489 703.562C326.617 703.075 325.876 702.383 325.33 701.546C324.784 700.71 324.449 699.753 324.353 698.758Z" fill="#FFC727"/>
<path opacity="0.1" d="M324.353 698.758L324.261 708.305C324.183 714.483 339.46 719.782 358.383 719.982C377.305 720.183 392.69 715.348 392.768 709.046L392.86 699.5C392.746 700.492 392.392 701.442 391.83 702.268C391.268 703.094 390.513 703.771 389.632 704.242C385.746 706.584 381.445 708.157 376.965 708.876C370.855 710.016 364.644 710.534 358.429 710.421C352.246 710.4 346.082 709.748 340.032 708.474C335.575 707.654 331.317 705.987 327.489 703.562C326.617 703.075 325.876 702.383 325.33 701.546C324.784 700.71 324.449 699.753 324.353 698.758Z" fill="black"/>
<path d="M324.354 698.743C324.354 700.442 325.466 702.08 327.443 703.562C331.274 705.979 335.531 707.641 339.986 708.459C352.155 710.981 364.698 711.117 376.919 708.861C381.401 708.149 385.703 706.575 389.586 704.227C390.465 703.758 391.218 703.083 391.781 702.26C392.343 701.437 392.697 700.49 392.814 699.5C392.892 693.321 377.615 688.007 358.677 687.807C340.248 687.606 325.172 692.271 324.354 698.264C324.384 698.434 324.354 698.589 324.354 698.743Z" fill="#FFC727"/>
<path opacity="0.3" d="M332.03 697.492C332.106 698.263 332.366 699.005 332.788 699.656C333.21 700.306 333.782 700.846 334.455 701.23C337.432 703.109 340.74 704.404 344.202 705.045C353.649 707.001 363.385 707.106 372.872 705.354C376.35 704.789 379.689 703.567 382.712 701.755C383.395 701.388 383.98 700.863 384.418 700.223C384.856 699.583 385.134 698.848 385.23 698.078C385.23 693.228 373.413 689.15 358.723 688.996C344.403 688.841 332.694 692.456 332.061 697.121C332.043 697.244 332.033 697.367 332.03 697.492Z" fill="white"/>
<path d="M255.305 724.879L255.213 734.41C255.135 740.588 270.412 745.902 289.32 746.103C308.227 746.304 323.643 741.392 323.72 735.167L323.813 725.62C323.696 726.61 323.341 727.557 322.779 728.38C322.217 729.203 321.464 729.878 320.584 730.347C316.697 732.686 312.397 734.259 307.918 734.981C301.808 736.129 295.597 736.646 289.381 736.526C283.21 736.5 277.057 735.853 271.015 734.595C266.559 733.773 262.301 732.105 258.472 729.683C257.599 729.193 256.856 728.501 256.305 727.666C255.754 726.83 255.412 725.874 255.305 724.879Z" fill="#FFC727"/>
<path opacity="0.1" d="M255.305 724.879L255.213 734.41C255.135 740.588 270.412 745.902 289.32 746.103C308.227 746.304 323.643 741.392 323.72 735.167L323.813 725.62C323.696 726.61 323.341 727.557 322.779 728.38C322.217 729.203 321.464 729.878 320.584 730.347C316.697 732.686 312.397 734.259 307.918 734.981C301.808 736.129 295.597 736.646 289.381 736.526C283.21 736.5 277.057 735.853 271.015 734.595C266.559 733.773 262.301 732.105 258.472 729.683C257.599 729.193 256.856 728.501 256.305 727.666C255.754 726.83 255.412 725.874 255.305 724.879Z" fill="black"/>
<path d="M255.306 724.864C255.396 725.854 255.724 726.808 256.262 727.644C256.8 728.48 257.532 729.175 258.395 729.668C262.245 732.104 266.531 733.772 271.015 734.58C277.079 735.872 283.259 736.54 289.459 736.572C295.674 736.685 301.884 736.168 307.995 735.028C312.474 734.306 316.774 732.733 320.662 730.394C321.543 729.923 322.297 729.246 322.86 728.42C323.422 727.594 323.775 726.644 323.89 725.651C323.89 719.473 308.675 714.174 289.752 713.974C271.324 713.773 256.248 718.422 255.429 724.431C255.337 724.539 255.306 724.709 255.306 724.864Z" fill="#FFC727"/>
<path opacity="0.3" d="M262.967 723.612C263.05 724.382 263.314 725.121 263.739 725.768C264.163 726.415 264.735 726.953 265.408 727.335C268.378 729.228 271.689 730.524 275.155 731.15C284.602 733.106 294.338 733.211 303.824 731.459C307.307 730.91 310.649 729.688 313.664 727.86C314.35 727.496 314.937 726.972 315.375 726.332C315.814 725.691 316.09 724.955 316.182 724.184C316.182 719.349 304.365 715.271 289.66 715.117C275.356 714.947 263.647 718.577 263.014 723.226L262.967 723.612Z" fill="white"/>
<path d="M385.817 727.706L389.524 736.511C391.934 742.257 408.06 740.975 425.469 733.637C442.878 726.3 455.081 715.657 452.656 709.911L448.949 701.106C449.613 702.651 449.18 704.613 447.867 706.744C445.231 710.431 441.912 713.577 438.089 716.012C432.967 719.501 427.501 722.456 421.777 724.833C416.072 727.262 410.136 729.109 404.06 730.347C399.642 731.37 395.07 731.538 390.59 730.842C389.601 730.741 388.65 730.404 387.819 729.858C386.988 729.312 386.302 728.574 385.817 727.706Z" fill="#FFC727"/>
<path opacity="0.1" d="M385.817 727.706L389.524 736.511C391.934 742.257 408.06 740.975 425.469 733.637C442.878 726.3 455.081 715.657 452.656 709.911L448.949 701.106C449.613 702.651 449.18 704.613 447.867 706.744C445.231 710.431 441.912 713.577 438.089 716.012C432.967 719.501 427.501 722.456 421.777 724.833C416.072 727.262 410.136 729.109 404.06 730.347C399.642 731.37 395.07 731.538 390.59 730.842C389.601 730.741 388.65 730.404 387.819 729.858C386.988 729.312 386.302 728.574 385.817 727.706Z" fill="black"/>
<path d="M385.801 727.706C386.298 728.563 386.991 729.29 387.823 729.827C388.656 730.365 389.604 730.696 390.59 730.795C395.07 731.5 399.643 731.332 404.06 730.301C410.135 729.079 416.067 727.231 421.762 724.786C427.492 722.413 432.963 719.458 438.089 715.966C441.908 713.527 445.227 710.381 447.867 706.698C449.18 704.566 449.613 702.62 448.948 701.06C446.523 695.314 430.412 696.58 412.972 703.933C395.981 711.085 384.009 721.373 385.647 727.196C385.693 727.397 385.739 727.551 385.801 727.706Z" fill="#FFC727"/>
<path opacity="0.3" d="M392.336 723.489C392.714 724.167 393.25 724.745 393.898 725.175C394.545 725.605 395.286 725.874 396.058 725.96C399.537 726.49 403.085 726.359 406.516 725.574C415.959 723.593 424.932 719.812 432.946 714.437C435.922 712.54 438.502 710.085 440.545 707.207C441.023 706.598 441.348 705.884 441.493 705.123C441.639 704.363 441.6 703.578 441.38 702.836C439.495 698.372 426.983 699.36 413.436 705.076C400.244 710.621 390.945 718.607 392.227 723.133C392.254 723.254 392.29 723.373 392.336 723.489Z" fill="white"/>
<path d="M60.2878 667.03L60.1797 676.576C60.1797 682.755 75.3949 688.054 94.302 688.27C113.209 688.486 128.625 683.558 128.687 677.318L128.795 667.787C128.678 668.777 128.323 669.724 127.761 670.547C127.199 671.37 126.446 672.045 125.567 672.514C121.678 674.862 117.371 676.436 112.885 677.148C100.669 679.404 88.1306 679.268 75.9665 676.746C71.507 675.936 67.2472 674.268 63.4235 671.834C62.5514 671.347 61.8105 670.655 61.2643 669.818C60.7182 668.982 60.3831 668.025 60.2878 667.03Z" fill="#FFC727"/>
<path opacity="0.1" d="M60.2878 667.03L60.1797 676.576C60.1797 682.755 75.3949 688.054 94.302 688.27C113.209 688.486 128.625 683.558 128.687 677.318L128.795 667.787C128.678 668.777 128.323 669.724 127.761 670.547C127.199 671.37 126.446 672.045 125.567 672.514C121.678 674.862 117.371 676.436 112.885 677.148C100.669 679.404 88.1306 679.268 75.9665 676.746C71.507 675.936 67.2472 674.268 63.4235 671.834C62.5514 671.347 61.8105 670.655 61.2643 669.818C60.7182 668.982 60.3831 668.025 60.2878 667.03Z" fill="black"/>
<path d="M60.2881 667.03C60.3785 668.021 60.7065 668.974 61.2444 669.811C61.7822 670.647 62.514 671.341 63.3775 671.834C67.2043 674.262 71.4628 675.929 75.9204 676.746C88.0867 679.247 100.621 679.384 112.839 677.148C117.321 676.422 121.625 674.849 125.52 672.514C127.575 671.077 128.733 669.425 128.749 667.772C128.749 661.593 113.534 656.295 94.6112 656.078C76.2293 655.955 61.1531 660.589 60.3344 666.536C60.3037 666.699 60.2882 666.864 60.2881 667.03Z" fill="#FFC727"/>
<path opacity="0.3" d="M67.9502 665.764C68.0279 666.537 68.2901 667.28 68.7149 667.93C69.1396 668.581 69.7144 669.12 70.3908 669.502C73.3611 671.395 76.6718 672.691 80.1378 673.317C84.8466 674.314 89.6441 674.832 94.4571 674.862C99.2703 674.946 104.079 674.531 108.807 673.626C112.288 673.07 115.629 671.848 118.647 670.027C119.331 669.66 119.918 669.135 120.359 668.496C120.799 667.856 121.081 667.121 121.18 666.351C121.18 661.5 109.363 657.438 94.658 657.268C80.3541 657.113 68.6299 660.743 67.9965 665.393C67.9734 665.515 67.9579 665.639 67.9502 665.764Z" fill="white"/>
<path d="M227.594 692.873L227.486 702.419C227.486 708.598 242.701 713.912 261.608 714.113C280.515 714.314 295.931 709.479 295.993 703.176L296.101 693.63C295.984 694.62 295.629 695.567 295.067 696.39C294.505 697.213 293.752 697.888 292.873 698.357C288.988 700.703 284.687 702.276 280.206 702.991C267.985 705.247 255.442 705.111 243.273 702.589C238.816 701.776 234.558 700.114 230.73 697.693C228.706 696.21 227.579 694.572 227.594 692.873Z" fill="#FFC727"/>
<path opacity="0.1" d="M227.594 692.873L227.486 702.419C227.486 708.598 242.701 713.912 261.608 714.113C280.515 714.314 295.931 709.479 295.993 703.176L296.101 693.63C295.984 694.62 295.629 695.567 295.067 696.39C294.505 697.213 293.752 697.888 292.873 698.357C288.988 700.703 284.687 702.276 280.206 702.991C267.985 705.247 255.442 705.111 243.273 702.589C238.816 701.776 234.558 700.114 230.73 697.693C228.706 696.21 227.579 694.572 227.594 692.873Z" fill="black"/>
<path d="M227.594 692.873C227.684 693.863 228.012 694.817 228.55 695.654C229.088 696.49 229.82 697.184 230.683 697.677C234.51 700.105 238.769 701.772 243.226 702.589C255.396 705.111 267.939 705.247 280.16 702.991C284.637 702.262 288.936 700.689 292.826 698.357C293.708 697.886 294.462 697.209 295.024 696.383C295.587 695.557 295.94 694.607 296.055 693.615C296.055 687.436 280.84 682.137 261.917 681.937C243.489 681.736 228.413 686.385 227.594 692.394C227.578 692.553 227.578 692.714 227.594 692.873Z" fill="#FFC727"/>
<path opacity="0.3" d="M235.255 691.622C235.335 692.392 235.599 693.132 236.023 693.78C236.448 694.427 237.022 694.964 237.696 695.345C240.666 697.238 243.977 698.533 247.443 699.16C256.89 701.116 266.626 701.22 276.113 699.469C279.595 698.92 282.937 697.697 285.952 695.87C286.634 695.502 287.219 694.976 287.657 694.337C288.095 693.697 288.374 692.962 288.47 692.193C288.47 687.343 276.653 683.281 261.948 683.126C247.644 682.956 235.92 686.586 235.286 691.236C235.268 691.364 235.258 691.493 235.255 691.622Z" fill="white"/>
<path d="M105.007 688.394L104.914 697.94C104.914 704.119 120.114 709.417 139.036 709.618C157.959 709.818 173.344 704.984 173.421 698.681L173.514 689.135C173.399 690.128 173.046 691.078 172.483 691.904C171.921 692.729 171.167 693.407 170.285 693.877C166.398 696.217 162.098 697.79 157.619 698.511C151.508 699.651 145.298 700.169 139.083 700.056C132.883 700.023 126.703 699.356 120.639 698.063C116.182 697.243 111.924 695.576 108.096 693.151C107.239 692.663 106.511 691.976 105.973 691.148C105.436 690.32 105.104 689.376 105.007 688.394Z" fill="#FFC727"/>
<path opacity="0.1" d="M105.007 688.394L104.914 697.94C104.914 704.119 120.114 709.417 139.036 709.618C157.959 709.818 173.344 704.984 173.421 698.681L173.514 689.135C173.399 690.128 173.046 691.078 172.483 691.904C171.921 692.729 171.167 693.407 170.285 693.877C166.398 696.217 162.098 697.79 157.619 698.511C151.508 699.651 145.298 700.169 139.083 700.056C132.883 700.023 126.703 699.356 120.639 698.063C116.182 697.243 111.924 695.576 108.096 693.151C107.239 692.663 106.511 691.976 105.973 691.148C105.436 690.32 105.104 689.376 105.007 688.394Z" fill="black"/>
<path d="M105.007 688.394C105.007 690.093 106.12 691.73 108.097 693.213C111.927 695.63 116.185 697.292 120.64 698.11C132.809 700.631 145.352 700.768 157.573 698.511C162.054 697.796 166.355 696.223 170.24 693.877C171.119 693.408 171.872 692.733 172.434 691.91C172.996 691.087 173.351 690.14 173.468 689.15C173.545 682.972 158.253 677.658 139.33 677.457C120.902 677.256 105.826 681.921 105.007 687.915C105.038 688.131 105.007 688.285 105.007 688.394Z" fill="#FFC727"/>
<path opacity="0.3" d="M112.684 687.189C112.76 687.96 113.02 688.702 113.442 689.353C113.864 690.003 114.436 690.543 115.109 690.927C118.086 692.807 121.394 694.101 124.856 694.742C134.305 696.677 144.037 696.782 153.526 695.051C157.004 694.486 160.343 693.264 163.365 691.452C164.048 691.085 164.633 690.56 165.072 689.92C165.51 689.28 165.788 688.545 165.883 687.776C165.883 682.925 154.066 678.847 139.361 678.693C125.057 678.538 113.348 682.153 112.715 686.818C112.697 686.941 112.687 687.064 112.684 687.189Z" fill="white"/>
<path d="M52.0083 690.077L53.8156 699.453C55.005 705.632 71.0235 707.656 89.5907 704.088C108.158 700.519 122.276 692.61 121.087 686.493L119.28 677.117C119.604 678.785 118.785 680.593 117.055 682.4C113.72 685.475 109.824 687.877 105.578 689.475C99.8423 691.831 93.8793 693.59 87.7834 694.727C81.6812 695.945 75.4695 696.53 69.2471 696.472C64.7172 696.566 60.2118 695.785 55.9782 694.171C55.0394 693.852 54.1899 693.314 53.4997 692.602C52.8095 691.891 52.2983 691.025 52.0083 690.077Z" fill="#FFC727"/>
<path opacity="0.1" d="M52.0083 690.077L53.8156 699.453C55.005 705.632 71.0235 707.656 89.5907 704.088C108.158 700.519 122.276 692.61 121.087 686.493L119.28 677.117C119.604 678.785 118.785 680.593 117.055 682.4C113.72 685.475 109.824 687.877 105.578 689.475C99.8423 691.831 93.8793 693.59 87.7834 694.727C81.6812 695.945 75.4695 696.53 69.2471 696.472C64.7172 696.566 60.2118 695.785 55.9782 694.171C55.0394 693.852 54.1899 693.314 53.4997 692.602C52.8095 691.891 52.2983 691.025 52.0083 690.077Z" fill="black"/>
<path d="M52.0085 690.062C52.3057 691.016 52.8267 691.885 53.528 692.597C54.2293 693.309 55.0906 693.843 56.0402 694.155C60.276 695.761 64.7798 696.542 69.3091 696.457C75.5311 696.507 81.742 695.922 87.8454 694.711C93.9413 693.575 99.9043 691.815 105.64 689.459C109.882 687.855 113.778 685.454 117.117 682.384C117.89 681.748 118.495 680.933 118.883 680.01C119.27 679.087 119.428 678.083 119.342 677.086C118.168 670.907 102.134 668.884 83.5512 672.452C65.4628 675.943 51.6069 683.528 52.0085 689.567C51.9994 689.732 51.9994 689.897 52.0085 690.062Z" fill="#FFC727"/>
<path opacity="0.3" d="M59.269 687.312C59.4959 688.047 59.8944 688.717 60.4316 689.268C60.9688 689.819 61.6292 690.234 62.3583 690.479C65.6466 691.728 69.1448 692.331 72.6615 692.255C77.4783 692.301 82.2871 691.851 87.0117 690.911C91.7561 690.03 96.3986 688.669 100.868 686.849C104.167 685.602 107.198 683.736 109.796 681.349C110.387 680.85 110.851 680.216 111.149 679.502C111.447 678.787 111.571 678.012 111.511 677.241C110.599 672.483 98.1489 670.876 83.706 673.657C69.6493 676.36 58.8982 682.261 59.2072 686.941C59.2198 687.066 59.2405 687.19 59.269 687.312Z" fill="white"/>
<path d="M157.533 242.03L167.836 239.58L168.076 227.839L157.799 224.963C157.197 221.199 156.132 217.524 154.63 214.02L161.793 206.033L155.269 196.288L145.045 199.909C140.518 195.288 135.077 191.661 129.071 189.259L128.485 178.29L116.956 176L112.031 186.091C108.321 186.067 104.622 186.478 101.008 187.316L94.1919 178.583L83.5419 183.322L85.4323 194.291C82.3785 196.378 79.5814 198.818 77.0987 201.56L66.4488 198.312L60.3783 208.349L68.1527 216.337C67.2224 218.774 66.5009 221.286 65.9961 223.845C65.7831 224.937 65.6233 226.028 65.4902 227.12L55 230.528L55.7721 242.243L66.4221 244.213C67.3444 247.868 68.7032 251.399 70.4691 254.73L63.946 263.41L71.3211 272.569L81.0658 268.122C83.9462 270.627 87.1201 272.773 90.5177 274.512L90.1981 285.162L101.487 288.437L106.812 279.331C110.648 279.754 114.523 279.683 118.341 279.118L124.145 287.931L135.248 284.124L134.475 273.66C137.852 271.772 140.982 269.474 143.794 266.818L153.565 270.678L160.488 261.2L153.832 253.052C155.513 249.544 156.756 245.842 157.533 242.03ZM140.519 238.462C139.393 244.138 136.611 249.353 132.524 253.45C128.437 257.546 123.228 260.34 117.554 261.478C111.88 262.617 105.997 262.049 100.646 259.847C95.2943 257.645 90.7154 253.907 87.4867 249.104C84.2581 244.302 82.5244 238.651 82.5044 232.865C82.4844 227.078 84.1791 221.415 87.3745 216.591C90.57 211.766 95.1229 207.997 100.459 205.758C105.795 203.518 111.674 202.91 117.356 204.009C121.143 204.742 124.748 206.216 127.964 208.346C131.18 210.477 133.944 213.221 136.096 216.422C138.249 219.624 139.748 223.219 140.507 227.001C141.266 230.783 141.27 234.678 140.519 238.462Z" fill="#9EBCFF"/>
<path d="M145.576 69.2432L155.906 70.8775" stroke="#9EBCFF" stroke-linecap="round" stroke-linejoin="round"/>
<path d="M156.66 55.3278L161.256 57.6854" stroke="#9EBCFF" stroke-linecap="round" stroke-linejoin="round"/>
<path d="M164.451 39.1434L170.447 44.8066" stroke="#9EBCFF" stroke-linecap="round" stroke-linejoin="round"/>
<path d="M226.326 24.4163L222.257 34.0329" stroke="#9EBCFF" stroke-linecap="round" stroke-linejoin="round"/>
<path d="M208.649 26.4604L208.247 31.6071" stroke="#9EBCFF" stroke-linecap="round" stroke-linejoin="round"/>
<path d="M190.807 24.4992L192.441 32.5989" stroke="#9EBCFF" stroke-linecap="round" stroke-linejoin="round"/>
<path d="M184.699 41.3285L184.554 41.5192L184.425 41.6888C161.759 54.824 154.198 81.921 166.196 103.488C169.75 109.934 174.833 115.408 181 119.428C183.967 121.685 191.086 127.366 199.389 135.185C204.809 140.24 209.754 145.781 214.162 151.738L214.351 152.15C214.561 152.554 214.849 152.913 215.199 153.204C215.55 153.495 215.955 153.713 216.391 153.845C216.827 153.977 217.285 154.02 217.738 153.972C218.191 153.924 218.63 153.786 219.028 153.565L219.157 153.396L236.924 143.492L237.053 143.323L241.82 140.66L241.965 140.469L259.732 130.566L259.861 130.396C260.257 130.176 260.606 129.879 260.885 129.521C261.164 129.164 261.369 128.754 261.486 128.317C261.604 127.879 261.632 127.422 261.57 126.972C261.507 126.523 261.355 126.091 261.122 125.702C260.995 125.606 260.97 125.419 260.896 125.296C258.161 118.409 256.066 111.284 254.637 104.013C252.411 92.8204 251.353 83.7874 250.983 80.0946C250.81 72.3905 248.672 64.8583 244.773 58.2115C240.873 51.5648 235.342 46.0236 228.702 42.113C222.061 38.2024 214.533 36.0519 206.829 35.8652C199.125 35.6785 191.501 37.4618 184.68 41.0462L184.699 41.3285Z" fill="#3498DB"/>
<path d="M260.569 129.978L217.923 153.654L223.416 163.547L266.061 139.871L260.569 129.978Z" fill="#9EBCFF"/>
<path d="M272.395 151.301L267.381 142.236L224.718 165.92L229.601 174.718L272.395 151.301Z" fill="#9EBCFF"/>
<path d="M266.063 139.879L223.417 163.555L224.723 165.906L267.368 142.23L266.063 139.879Z" fill="#142850"/>
<path d="M229.601 174.718L243.62 178.187L267.475 164.852L272.395 151.301L229.601 174.718Z" fill="#9EBCFF"/>
<path d="M248.287 113.902C245.318 105.656 243.652 96.9979 243.351 88.2391C242.937 66.4833 239.693 49.0647 214.434 42.1655" stroke="#9EBCFF" stroke-linecap="round" stroke-linejoin="round"/>
<path d="M254.998 129.006C254.998 129.006 253.639 126.701 251.849 122.765" stroke="#9EBCFF" stroke-linecap="round" stroke-linejoin="round"/>
<path d="M232.124 144.525C232.124 144.525 209.146 120.596 199.733 117.886C190.32 115.177 210.181 133.793 215.171 121.03C220.16 108.267 203.297 104.006 207.918 109.895C212.538 115.783 223.006 117.589 224.173 108.576C225.341 99.5628 220.104 95.1453 219.694 100.654C219.285 106.163 233.186 109.743 235.279 101.802C237.371 93.8598 232.917 92.5468 231.466 98.5013C230.016 104.456 241.86 129.083 246.788 137.514" stroke="#9EBCFF" stroke-linecap="round" stroke-linejoin="round"/>
</svg>
