<svg width="459" height="630" viewBox="0 0 459 630" fill="none" xmlns="http://www.w3.org/2000/svg">
<path d="M229.356 630C343.276 630 435.627 611.531 435.627 588.749C435.627 565.966 343.276 547.498 229.356 547.498C115.435 547.498 23.0845 565.966 23.0845 588.749C23.0845 611.531 115.435 630 229.356 630Z" fill="#3498DB"/>
<path opacity="0.5" d="M229.356 630C343.276 630 435.627 611.531 435.627 588.749C435.627 565.966 343.276 547.498 229.356 547.498C115.435 547.498 23.0845 565.966 23.0845 588.749C23.0845 611.531 115.435 630 229.356 630Z" fill="white"/>
<path d="M448.334 39.9892H299.607C294.526 39.9892 290.408 44.1078 290.408 49.1883V213.14C290.408 218.221 294.526 222.339 299.607 222.339H448.334C453.414 222.339 457.533 218.221 457.533 213.14V49.1883C457.533 44.1078 453.414 39.9892 448.334 39.9892Z" fill="white" stroke="#263238" stroke-linecap="round" stroke-linejoin="round"/>
<path d="M299.607 39.9893H448.319C450.746 39.9893 453.074 40.9536 454.791 42.6702C456.508 44.3868 457.472 46.715 457.472 49.1426V58.6926H290.408V49.1884C290.402 47.9786 290.636 46.7797 291.096 45.6609C291.556 44.542 292.233 43.5255 293.089 42.6701C293.944 41.8147 294.961 41.1373 296.079 40.6771C297.198 40.217 298.397 39.9832 299.607 39.9893Z" fill="#263238" stroke="#263238" stroke-linecap="round" stroke-linejoin="round"/>
<path d="M299.516 137.351H366.762" stroke="#263238" stroke-linecap="round" stroke-linejoin="round"/>
<path d="M299.516 146.031H366.762" stroke="#263238" stroke-linecap="round" stroke-linejoin="round"/>
<path d="M299.516 154.711H366.762" stroke="#263238" stroke-linecap="round" stroke-linejoin="round"/>
<path d="M299.516 163.392H366.762" stroke="#263238" stroke-linecap="round" stroke-linejoin="round"/>
<path d="M299.516 172.072H366.762" stroke="#263238" stroke-linecap="round" stroke-linejoin="round"/>
<path d="M299.516 180.768H366.762" stroke="#263238" stroke-linecap="round" stroke-linejoin="round"/>
<path d="M299.516 189.448H366.762" stroke="#263238" stroke-linecap="round" stroke-linejoin="round"/>
<path d="M299.516 198.129H366.762" stroke="#263238" stroke-linecap="round" stroke-linejoin="round"/>
<path d="M299.516 206.809H366.762" stroke="#263238" stroke-linecap="round" stroke-linejoin="round"/>
<path d="M378.585 137.351H445.832" stroke="#263238" stroke-linecap="round" stroke-linejoin="round"/>
<path d="M378.585 146.031H445.832" stroke="#263238" stroke-linecap="round" stroke-linejoin="round"/>
<path d="M378.585 154.711H445.832" stroke="#263238" stroke-linecap="round" stroke-linejoin="round"/>
<path d="M378.585 163.392H445.832" stroke="#263238" stroke-linecap="round" stroke-linejoin="round"/>
<path d="M378.585 172.072H445.832" stroke="#263238" stroke-linecap="round" stroke-linejoin="round"/>
<path d="M378.585 180.768H445.832" stroke="#263238" stroke-linecap="round" stroke-linejoin="round"/>
<path d="M378.585 189.448H445.832" stroke="#263238" stroke-linecap="round" stroke-linejoin="round"/>
<path d="M378.585 198.129H445.832" stroke="#263238" stroke-linecap="round" stroke-linejoin="round"/>
<path d="M378.585 206.809H445.832" stroke="#263238" stroke-linecap="round" stroke-linejoin="round"/>
<path d="M344.489 82.3846C344.821 81.3538 344.996 80.2789 345.008 79.1961C345.008 75.2449 340.996 75.0161 337.06 75.0161H336.068V74.0855H353.246V75.0161C348.776 75.0161 347.144 77.8689 345.755 82.0947L336.602 109.417C335.915 111.446 335.336 112.957 333.185 112.957H333.002L324.947 86.8544L317.456 109.479C316.754 111.508 316.175 113.018 314.024 113.018H313.856L302.14 75.0161H298.021V74.0855H313.093V75.0161H308.806L317.502 104.948H317.853L324.413 85.0695L321.362 75.0924H317.243V74.0855H332.33V75.0161H328.044L336.739 104.948H337.075L344.489 82.3846Z" fill="#3498DB"/>
<path d="M446.306 65.4355H377.106V127.984H446.306V65.4355Z" fill="#3498DB" stroke="#263238" stroke-width="2" stroke-linecap="round" stroke-linejoin="round"/>
<path d="M446.305 91.5837C443.984 91.7159 441.678 92.0374 439.409 92.5448C428.898 94.8332 426.152 109.921 414.268 109.921C403.742 109.921 402.841 95.7485 387.754 93.9178C384.083 93.3396 380.324 94.0055 377.075 95.8095V127.984H446.305V91.5837Z" fill="#263238" stroke="#263238" stroke-linecap="round" stroke-linejoin="round"/>
<path d="M400.096 79.7454C400.099 81.2855 399.645 82.7918 398.791 84.0736C397.937 85.3554 396.722 86.355 395.3 86.9458C393.878 87.5365 392.312 87.6919 390.801 87.3922C389.291 87.0925 387.903 86.3512 386.814 85.2621C385.725 84.1731 384.984 82.7854 384.684 81.2747C384.384 79.7641 384.54 78.1984 385.13 76.7761C385.721 75.3538 386.721 74.1389 388.002 73.2851C389.284 72.4314 390.791 71.9772 392.331 71.9802C394.39 71.9802 396.365 72.7984 397.822 74.2546C399.278 75.7108 400.096 77.6859 400.096 79.7454Z" fill="white" stroke="#263238" stroke-linecap="round" stroke-linejoin="round"/>
<path d="M449.463 45.466H295.427V51.4005H449.463V45.466Z" fill="white" stroke="#263238" stroke-linecap="round" stroke-linejoin="round"/>
<path d="M439.852 258.724H373.17C370.548 258.724 368.034 259.766 366.18 261.62C364.326 263.474 363.284 265.988 363.284 268.61V304.277C363.284 306.899 364.326 309.414 366.18 311.268C368.034 313.122 370.548 314.163 373.17 314.163H375.214C373.14 318.74 369.112 325.757 362.75 329.922C362.75 329.922 376.282 328.976 390.378 314.163H439.822C442.444 314.163 444.958 313.122 446.812 311.268C448.666 309.414 449.707 306.899 449.707 304.277V268.61C449.707 265.993 448.67 263.483 446.823 261.63C444.976 259.777 442.469 258.732 439.852 258.724Z" fill="white" stroke="#263238" stroke-linecap="round" stroke-linejoin="round"/>
<path d="M394.008 285.553C394.011 284.544 393.714 283.557 393.156 282.716C392.597 281.876 391.801 281.221 390.87 280.833C389.938 280.446 388.912 280.343 387.922 280.54C386.933 280.736 386.023 281.221 385.31 281.935C384.596 282.648 384.111 283.558 383.915 284.547C383.718 285.537 383.821 286.563 384.208 287.495C384.596 288.426 385.251 289.222 386.091 289.781C386.932 290.339 387.919 290.636 388.928 290.633C390.274 290.629 391.564 290.093 392.516 289.141C393.468 288.189 394.004 286.899 394.008 285.553Z" fill="#3498DB" stroke="white" stroke-linecap="round" stroke-linejoin="round"/>
<path d="M411.292 285.553C411.292 284.548 410.994 283.566 410.436 282.731C409.878 281.895 409.084 281.244 408.156 280.86C407.228 280.475 406.206 280.375 405.221 280.571C404.235 280.767 403.33 281.25 402.62 281.961C401.909 282.671 401.425 283.576 401.229 284.562C401.033 285.547 401.134 286.569 401.519 287.497C401.903 288.425 402.554 289.219 403.39 289.777C404.225 290.335 405.207 290.633 406.212 290.633C407.558 290.629 408.848 290.093 409.8 289.141C410.752 288.189 411.288 286.899 411.292 285.553Z" fill="#3498DB" stroke="white" stroke-linecap="round" stroke-linejoin="round"/>
<path d="M428.592 285.553C428.595 284.545 428.299 283.558 427.741 282.718C427.183 281.878 426.388 281.223 425.457 280.835C424.526 280.447 423.501 280.344 422.512 280.538C421.523 280.733 420.613 281.217 419.899 281.929C419.185 282.641 418.698 283.549 418.5 284.538C418.303 285.527 418.403 286.552 418.788 287.484C419.173 288.416 419.826 289.213 420.664 289.773C421.503 290.334 422.488 290.633 423.497 290.633C424.844 290.629 426.136 290.093 427.09 289.142C428.044 288.19 428.584 286.9 428.592 285.553Z" fill="#3498DB" stroke="white" stroke-linecap="round" stroke-linejoin="round"/>
<path d="M136.799 178.892H13.9451C11.5692 178.892 9.64307 180.818 9.64307 183.194V230.013C9.64307 232.389 11.5692 234.315 13.9451 234.315H136.799C139.175 234.315 141.101 232.389 141.101 230.013V183.194C141.101 180.818 139.175 178.892 136.799 178.892Z" fill="white" stroke="#263238" stroke-linecap="round" stroke-linejoin="round"/>
<path d="M25.2948 186.443L25.9355 187.511C23.0369 189.128 20.3367 191.966 20.3367 195.291C20.2996 195.863 20.3769 196.436 20.5641 196.977C20.7512 197.518 21.0445 198.016 21.4267 198.442C21.8089 198.868 22.2723 199.214 22.7898 199.459C23.3073 199.704 23.8685 199.843 24.4405 199.868C24.8676 199.868 25.1575 199.654 25.1575 199.227C25.1575 198.8 24.9439 198.663 24.5167 198.587C23.9407 198.431 23.4388 198.075 23.1007 197.583C22.7626 197.091 22.6103 196.495 22.6708 195.902C22.6819 195.428 22.7893 194.961 22.9863 194.531C23.1834 194.1 23.466 193.713 23.817 193.395C24.1681 193.077 24.5802 192.833 25.0283 192.679C25.4764 192.525 25.9512 192.464 26.4237 192.5C26.9377 192.501 27.4461 192.606 27.9189 192.808C28.3917 193.01 28.8192 193.304 29.1762 193.674C29.5332 194.044 29.8125 194.481 29.9974 194.961C30.1823 195.441 30.2692 195.952 30.2528 196.466C30.2454 197.112 30.1079 197.749 29.8486 198.341C29.5892 198.932 29.2134 199.465 28.7435 199.908C28.2736 200.351 27.7193 200.694 27.1136 200.918C26.508 201.142 25.8634 201.241 25.2185 201.211C24.4167 201.262 23.6129 201.145 22.8592 200.867C22.1056 200.588 21.4188 200.154 20.8435 199.593C20.2682 199.033 19.8172 198.357 19.5196 197.611C19.2221 196.864 19.0847 196.064 19.1163 195.261C19.0705 191.401 22.0453 188.289 25.2948 186.443ZM38.3993 186.443L39.0401 187.511C36.1263 189.128 33.4413 191.966 33.4413 195.291C33.4021 195.863 33.4779 196.437 33.6643 196.979C33.8506 197.521 34.1438 198.02 34.5264 198.447C34.909 198.873 35.3732 199.219 35.8917 199.463C36.4102 199.707 36.9724 199.845 37.545 199.868C37.9722 199.868 38.262 199.654 38.262 199.227C38.262 198.8 38.0485 198.663 37.6213 198.587C37.0453 198.431 36.5434 198.075 36.2053 197.583C35.8672 197.091 35.7148 196.495 35.7754 195.902C35.7843 195.427 35.8902 194.96 36.0865 194.528C36.2828 194.096 36.5654 193.709 36.917 193.39C37.2685 193.071 37.6815 192.828 38.1306 192.675C38.5796 192.522 39.0553 192.462 39.5283 192.5C40.0423 192.501 40.5507 192.606 41.0235 192.808C41.4963 193.01 41.9238 193.304 42.2808 193.674C42.6378 194.044 42.917 194.481 43.1019 194.961C43.2869 195.441 43.3737 195.952 43.3574 196.466C43.3478 197.111 43.2089 197.748 42.9489 198.338C42.6888 198.928 42.3129 199.46 41.8435 199.903C41.374 200.345 40.8206 200.689 40.2158 200.914C39.6111 201.138 38.9675 201.239 38.3231 201.211C37.5218 201.26 36.7191 201.141 35.9665 200.862C35.2139 200.582 34.5281 200.149 33.9533 199.588C33.3786 199.028 32.9274 198.353 32.6291 197.608C32.3307 196.863 32.1916 196.063 32.2208 195.261C32.1598 191.401 35.1346 188.289 38.3993 186.443Z" fill="#3498DB"/>
<path d="M50.9399 197.732H125.753" stroke="#3498DB" stroke-linecap="round" stroke-linejoin="round"/>
<path d="M50.9399 204.155H125.753" stroke="#3498DB" stroke-linecap="round" stroke-linejoin="round"/>
<path d="M50.9399 210.577H125.753" stroke="#3498DB" stroke-linecap="round" stroke-linejoin="round"/>
<path d="M50.9399 217.015H125.753" stroke="#3498DB" stroke-linecap="round" stroke-linejoin="round"/>
<path d="M89.7693 143.948C125.566 138.105 149.848 104.35 144.006 68.5532C138.163 32.7567 104.408 8.47433 68.6112 14.317C32.8147 20.1596 8.53231 53.9149 14.375 89.7114C20.2176 125.508 53.9728 149.79 89.7693 143.948Z" fill="#3498DB" stroke="#3498DB" stroke-linecap="round" stroke-linejoin="round"/>
<path d="M120.847 115.775C141.043 92.7787 138.772 57.7641 115.775 37.5681C92.7788 17.3721 57.7641 19.6425 37.5681 42.6392C17.3721 65.6359 19.6425 100.651 42.6392 120.847C65.636 141.043 100.651 138.772 120.847 115.775Z" fill="white" stroke="#3498DB" stroke-linecap="round" stroke-linejoin="round"/>
<path d="M79.2202 39.0566V79.1253H106.31" stroke="#3498DB" stroke-width="2" stroke-linecap="round" stroke-linejoin="round"/>
<path d="M285.205 292.348C285.205 292.348 301.453 327.024 301.453 328.854C301.453 330.685 287.036 338.526 284.29 340.174C282.16 341.387 279.965 342.482 277.715 343.454L279.362 359.518C279.362 359.518 304.183 353.858 314.588 348.198C324.992 342.539 324.626 336.146 322.215 326.657C319.805 317.168 303.771 280.494 303.771 280.494L285.205 292.348Z" fill="white"/>
<g style="mix-blend-mode:multiply" opacity="0.5">
<path d="M314.542 348.198C324.946 342.539 324.58 336.146 322.17 326.657C319.759 317.168 303.726 280.494 303.726 280.494L301.132 282.142L300.308 283.667C300.308 283.667 315.274 320.403 316.174 332.638C316.785 340.86 300.232 351.112 289.294 356.97C297.41 354.819 308.455 351.509 314.542 348.198Z" fill="#3498DB"/>
</g>
<path d="M285.205 292.348C285.205 292.348 301.453 327.024 301.453 328.854C301.453 330.685 287.036 338.526 284.29 340.174C282.16 341.387 279.965 342.482 277.715 343.454L279.362 359.518C279.362 359.518 304.183 353.858 314.588 348.198C324.992 342.539 324.626 336.146 322.215 326.657C319.805 317.168 303.771 280.494 303.771 280.494L285.205 292.348Z" stroke="#263238" stroke-linecap="round" stroke-linejoin="round"/>
<path d="M167.981 284.689C167.981 284.689 156.128 328.122 155.777 335.795C155.426 343.469 179.316 358.603 180.186 359.518C181.055 360.433 178.828 333.126 178.828 333.126L186.929 293.461L167.981 284.689Z" fill="white"/>
<g style="mix-blend-mode:multiply" opacity="0.5">
<path d="M173.412 288.244L173.153 287.069L167.981 284.689C167.981 284.689 156.128 328.122 155.777 335.795C155.426 343.469 179.316 358.603 180.186 359.518C180.537 359.884 180.399 355.796 180.109 350.746C173 344.72 162.794 336.238 161.604 332.668" fill="#3498DB"/>
</g>
<path d="M167.981 284.689C167.981 284.689 156.128 328.122 155.777 335.795C155.426 343.469 179.316 358.603 180.186 359.518C181.055 360.433 178.828 333.126 178.828 333.126L186.929 293.461L167.981 284.689Z" stroke="#263238" stroke-linecap="round" stroke-linejoin="round"/>
<path d="M223.649 241.058C223.649 241.058 219.072 244.353 210.148 244.719C201.223 245.086 200.796 238.617 189.705 238.617C176.265 238.617 159.408 281.135 159.408 281.135C159.408 281.135 167.798 289.357 176.021 292.82C180.57 294.813 185.352 296.223 190.255 297.016L191.536 324.949H282.063L283.146 297.016L311.445 278.663C311.445 278.663 297.563 253.842 290.82 244.536C284.077 235.23 272.742 238.694 269.279 241.058C265.816 243.423 255.549 243.987 251.765 243.438C246.83 242.346 241.952 241.007 237.15 239.426C237.15 239.426 231.323 234.575 223.649 241.058Z" fill="#3498DB" stroke="#263238" stroke-linecap="round" stroke-linejoin="round"/>
<path d="M191.17 250.913L190.804 297.275" stroke="#263238" stroke-width="0.5" stroke-linecap="round" stroke-linejoin="round"/>
<path d="M194.45 255.124C194.45 255.124 195.732 277.748 200.552 290.349" stroke="#263238" stroke-width="0.5" stroke-linecap="round" stroke-linejoin="round"/>
<path d="M201.391 292.164C202.432 295.24 203.712 298.229 205.22 301.104" stroke="#263238" stroke-width="0.5" stroke-linecap="round" stroke-linejoin="round"/>
<path d="M197.364 252.561C199.096 260.787 201.541 268.847 204.672 276.649" stroke="#263238" stroke-width="0.5" stroke-linecap="round" stroke-linejoin="round"/>
<path d="M276.052 256.573C276.052 256.573 271.674 274.468 267.83 282.508" stroke="#263238" stroke-width="0.5" stroke-linecap="round" stroke-linejoin="round"/>
<path d="M283.146 297.092L282.963 260.951" stroke="#263238" stroke-width="0.5" stroke-linecap="round" stroke-linejoin="round"/>
<path d="M281.148 261.684C281.148 261.684 277.853 284.567 269.828 296.543" stroke="#263238" stroke-width="0.5" stroke-linecap="round" stroke-linejoin="round"/>
<path d="M277.136 291.981C277.136 291.981 273.474 298.923 270.927 302.569" stroke="#263238" stroke-width="0.5" stroke-linecap="round" stroke-linejoin="round"/>
<path d="M218.539 243.804C218.539 243.804 221.102 259.502 224.748 267.527C228.394 275.551 234.786 277.199 240.263 274.834C245.739 272.469 249.752 260.768 249.416 245.848" stroke="#263238" stroke-width="0.5" stroke-linecap="round" stroke-linejoin="round"/>
<path d="M205.587 210.944C205.587 210.944 202.109 204.933 199.378 208.03C196.647 211.127 201.575 218.251 204.305 220.616C207.036 222.98 209.05 221.531 208.882 218.983C208.714 216.436 205.587 210.944 205.587 210.944Z" fill="#3498DB" stroke="#263238" stroke-linecap="round" stroke-linejoin="round"/>
<path opacity="0.5" d="M205.587 210.944C205.587 210.944 202.109 204.933 199.378 208.03C196.647 211.127 201.575 218.251 204.305 220.616C207.036 222.98 209.05 221.531 208.882 218.983C208.714 216.436 205.587 210.944 205.587 210.944Z" fill="white"/>
<path d="M205.587 210.944C205.587 210.944 202.109 204.933 199.378 208.03C196.647 211.127 201.575 218.251 204.305 220.616C207.036 222.98 209.05 221.531 208.882 218.983C208.714 216.436 205.587 210.944 205.587 210.944Z" stroke="#263238" stroke-linecap="round" stroke-linejoin="round"/>
<path d="M260.797 210.944C260.797 210.944 264.26 204.933 267.006 208.03C269.752 211.127 264.809 218.251 262.078 220.616C259.348 222.98 257.319 221.531 257.502 218.983C257.685 216.436 260.797 210.944 260.797 210.944Z" fill="#3498DB" stroke="#263238" stroke-linecap="round" stroke-linejoin="round"/>
<path opacity="0.5" d="M260.797 210.944C260.797 210.944 264.26 204.933 267.006 208.03C269.752 211.127 264.809 218.251 262.078 220.616C259.348 222.98 257.319 221.531 257.502 218.983C257.685 216.436 260.797 210.944 260.797 210.944Z" fill="white"/>
<path d="M260.797 210.944C260.797 210.944 264.26 204.933 267.006 208.03C269.752 211.127 264.809 218.251 262.078 220.616C259.348 222.98 257.319 221.531 257.502 218.983C257.685 216.436 260.797 210.944 260.797 210.944Z" stroke="#263238" stroke-linecap="round" stroke-linejoin="round"/>
<path d="M222.002 239.792C223.725 247.582 225.921 255.259 228.577 262.782C231.872 270.99 238.066 270.99 240.629 265.696C243.192 260.402 244.824 240.677 244.824 240.677C244.824 240.677 227.662 243.072 222.002 239.792Z" fill="white" stroke="#263238" stroke-linecap="round" stroke-linejoin="round"/>
<path d="M205.952 212.957C205.952 212.957 210.697 229.738 219.683 239.609C228.668 249.479 231.887 251.813 236.662 251.096C241.437 250.379 246.517 244.17 253.626 231.264C260.735 218.358 261.254 208.457 261.849 207.542C262.444 206.626 260.323 188.381 250.163 180.524C240.003 172.667 228.622 169.219 218.767 177.793C208.912 186.367 202.657 200.356 205.952 212.957Z" fill="white"/>
<g style="mix-blend-mode:multiply" opacity="0.5">
<path d="M250.118 180.463C239.896 172.622 228.577 169.158 218.722 177.732C208.866 186.306 202.657 200.356 205.953 212.957C205.953 212.957 206.853 216.192 208.638 220.585C208.632 220.023 208.709 219.462 208.866 218.922C211.048 212.012 217.486 198.632 239.149 204.765C256.357 209.616 254.252 224.75 252.65 232.82L253.581 231.142C260.705 218.19 261.208 208.335 261.803 207.42C262.398 206.504 260.339 188.32 250.118 180.463Z" fill="#3498DB"/>
</g>
<path d="M205.952 212.957C205.952 212.957 210.697 229.738 219.683 239.609C228.668 249.479 231.887 251.813 236.662 251.096C241.437 250.379 246.517 244.17 253.626 231.264C260.735 218.358 261.254 208.457 261.849 207.542C262.444 206.626 260.323 188.381 250.163 180.524C240.003 172.667 228.622 169.219 218.767 177.793C208.912 186.367 202.657 200.356 205.952 212.957Z" stroke="#263238" stroke-linecap="round" stroke-linejoin="round"/>
<path d="M236.617 221.714C236.051 225.277 235.745 228.877 235.701 232.485C235.884 236.131 236.983 237.229 235.335 237.595C233.687 237.961 231.872 235.398 231.872 235.398" stroke="#263238" stroke-linecap="round" stroke-linejoin="round"/>
<path d="M218.355 224.643C219.413 225.407 220.677 225.833 221.981 225.866C223.285 225.899 224.568 225.536 225.663 224.826" stroke="#263238" stroke-linecap="round" stroke-linejoin="round"/>
<path d="M241.544 224.643C242.599 225.406 243.86 225.831 245.162 225.864C246.463 225.897 247.744 225.535 248.836 224.826" stroke="#263238" stroke-linecap="round" stroke-linejoin="round"/>
<path d="M230.011 218.495C230.011 218.495 226.533 209.906 215.045 213.918" stroke="#263238" stroke-linecap="round" stroke-linejoin="round"/>
<path d="M239.577 217.442C239.577 217.442 242.49 209.037 252.895 213.964" stroke="#263238" stroke-linecap="round" stroke-linejoin="round"/>
<path d="M232.223 225.269C232.223 229.967 226.838 233.766 220.187 233.766C213.535 233.766 208.135 229.967 208.135 225.269C208.135 220.57 213.169 218.617 219.821 218.617C226.472 218.617 232.223 220.585 232.223 225.269Z" stroke="#263238" stroke-linecap="round" stroke-linejoin="round"/>
<path d="M259.973 225.269C259.973 229.967 254.573 233.766 247.921 233.766C241.27 233.766 235.885 229.967 235.885 225.269C235.885 220.57 240.904 218.617 247.555 218.617C254.207 218.617 259.973 220.585 259.973 225.269Z" stroke="#263238" stroke-linecap="round" stroke-linejoin="round"/>
<path d="M106.151 371.616L105.403 556.559C105.403 557.142 105.635 557.701 106.047 558.113C106.459 558.525 107.018 558.756 107.6 558.756C108.168 558.756 108.714 558.535 109.122 558.139C109.529 557.743 109.766 557.204 109.782 556.636L115.06 371.875L106.151 371.616Z" fill="white" stroke="#263238" stroke-linecap="round" stroke-linejoin="round"/>
<path d="M93.7024 414.85L92.9854 606.049C92.9834 606.338 93.0388 606.624 93.1485 606.892C93.2582 607.159 93.4199 607.402 93.6243 607.607C93.8287 607.811 94.0717 607.973 94.3391 608.082C94.6066 608.192 94.8932 608.247 95.1822 608.245C95.7493 608.246 96.2947 608.027 96.7041 607.635C97.1135 607.242 97.3554 606.707 97.379 606.14L102.642 415.094L93.7024 414.85Z" fill="white" stroke="#263238" stroke-linecap="round" stroke-linejoin="round"/>
<path d="M361.834 371.616L362.582 556.559C362.584 556.847 362.529 557.133 362.42 557.399C362.312 557.665 362.151 557.908 361.948 558.112C361.746 558.316 361.505 558.478 361.239 558.589C360.973 558.699 360.688 558.756 360.4 558.756C359.831 558.757 359.283 558.536 358.873 558.14C358.464 557.744 358.223 557.205 358.204 556.636L352.94 371.875L361.834 371.616Z" fill="white" stroke="#263238" stroke-linecap="round" stroke-linejoin="round"/>
<path d="M374.298 414.85L375.046 606.049C375.048 606.338 374.993 606.624 374.883 606.892C374.773 607.159 374.611 607.402 374.407 607.607C374.203 607.811 373.96 607.973 373.692 608.082C373.425 608.192 373.138 608.247 372.849 608.245C372.284 608.246 371.74 608.026 371.333 607.634C370.926 607.241 370.687 606.705 370.668 606.14L365.389 415.094L374.298 414.85Z" fill="white" stroke="#263238" stroke-linecap="round" stroke-linejoin="round"/>
<path d="M180.384 422.798L179.942 592.502C179.893 592.925 180.011 593.351 180.27 593.689C180.529 594.028 180.909 594.253 181.33 594.317C181.741 594.26 182.115 594.048 182.376 593.725C182.637 593.402 182.765 592.992 182.734 592.578L186.044 422.997L180.384 422.798Z" fill="white" stroke="#263238" stroke-linecap="round" stroke-linejoin="round"/>
<path d="M287.799 417.337L288.211 565.438C288.246 565.797 288.142 566.155 287.921 566.439C287.699 566.723 287.377 566.911 287.021 566.964C286.666 566.911 286.345 566.722 286.126 566.438C285.907 566.153 285.807 565.795 285.846 565.438L283.024 417.459L287.799 417.337Z" fill="white" stroke="#263238" stroke-linecap="round" stroke-linejoin="round"/>
<path d="M178.722 417.337L179.134 565.438C179.169 565.797 179.065 566.155 178.844 566.439C178.622 566.723 178.3 566.911 177.944 566.964C177.589 566.911 177.268 566.722 177.049 566.438C176.83 566.153 176.73 565.795 176.769 565.438L173.947 417.459L178.722 417.337Z" fill="white" stroke="#263238" stroke-linecap="round" stroke-linejoin="round"/>
<path d="M284.733 422.798L285.206 592.502C285.255 592.925 285.137 593.351 284.878 593.689C284.619 594.028 284.239 594.253 283.818 594.317C283.408 594.257 283.036 594.044 282.776 593.722C282.516 593.4 282.387 592.991 282.414 592.578L279.104 422.997L284.733 422.798Z" fill="white" stroke="#263238" stroke-linecap="round" stroke-linejoin="round"/>
<path d="M231.811 434.682C269.304 434.682 299.699 427.736 299.699 419.167C299.699 410.599 269.304 403.652 231.811 403.652C194.318 403.652 163.924 410.599 163.924 419.167C163.924 427.736 194.318 434.682 231.811 434.682Z" fill="white" stroke="#263238" stroke-linecap="round" stroke-linejoin="round"/>
<path d="M198.752 550.869C198.752 550.869 195.198 555.964 197.746 558.497C200.293 561.029 202.826 560.022 202.566 562.57C202.307 565.118 198.249 573.752 194.694 582.906C191.14 592.059 198.508 601.213 205.373 598.68C212.238 596.148 211.476 570.701 212.482 566.125C213.489 561.548 214.267 560.785 214.008 556.468C213.749 552.151 213.505 547.574 210.194 547.055C206.884 546.536 200.278 549.099 198.752 550.869Z" fill="white" stroke="#263238" stroke-linecap="round" stroke-linejoin="round"/>
<path d="M209.66 591.663C205.083 589.923 198.065 590.274 194.114 590.671C195.441 596.422 200.522 600.465 205.373 598.68C207.402 597.933 208.729 595.217 209.66 591.663Z" fill="#3498DB" stroke="#263238" stroke-linecap="round" stroke-linejoin="round"/>
<path d="M190.88 539.687C190.88 539.687 198.249 552.151 200.278 555.446C202.307 558.741 209.187 557.734 209.95 553.157C210.713 548.581 207.143 535.873 207.143 535.873L191.887 539.687H190.88Z" fill="white" stroke="#263238" stroke-linecap="round" stroke-linejoin="round"/>
<path d="M173.336 519.854C173.336 519.854 171.291 523.165 172.314 525.453C173.336 527.742 176.127 534.347 177.912 537.658C179.697 540.968 187.828 542.997 197.226 541.472C206.623 539.946 211.978 535.613 212.237 531.8C212.497 527.986 210.712 522.906 209.43 516.803C208.149 510.701 204.854 510.96 200.277 510.96C195.7 510.96 177.15 516.3 173.336 519.854Z" fill="#3498DB" stroke="#263238" stroke-linecap="round" stroke-linejoin="round"/>
<path d="M200.796 445.102C200.934 438.847 204.549 435.765 204.824 431.479C205.254 425.811 204.786 420.112 203.436 414.591L196.479 405.086C176.464 405.346 162.123 405.681 161.895 405.758C161.132 406.002 160.613 410.334 160.11 413.889C160.11 413.889 151.612 414.972 153.138 438.618C153.351 441.913 161.925 480.037 162.551 484.385C166.365 510.945 174.862 524.248 174.862 524.248C174.862 524.248 175.625 527.558 185.541 526.796C195.457 526.033 205.373 519.427 205.373 519.427C205.373 519.427 200.278 467.726 200.796 445.102Z" fill="#263238" stroke="#263238" stroke-linecap="round" stroke-linejoin="round"/>
<path d="M158.737 410.014C158.737 410.014 148.225 411.54 141.788 418.893C135.35 426.246 140.811 431.097 153.321 429.785C165.83 428.473 180.262 415.674 180.872 414.987C181.483 414.301 167.829 405.605 158.737 410.014Z" fill="white" stroke="#263238" stroke-linecap="round" stroke-linejoin="round"/>
<path d="M177.394 414.591C184.091 414.935 190.736 415.958 197.226 417.642C205.876 420.19 221.132 425.27 224.686 425.27C228.241 425.27 227.234 412.043 227.234 409.511C227.234 406.978 181.467 405.437 175.868 405.437C170.27 405.437 177.394 414.591 177.394 414.591Z" fill="white" stroke="#263238" stroke-linecap="round" stroke-linejoin="round"/>
<path d="M227.235 409.511C227.235 409.511 223.161 411.54 221.636 419.167C220.11 426.795 218.081 430.868 221.132 432.897C224.183 434.926 237.41 436.452 239.439 434.423C241.468 432.394 247.067 422.219 248.089 415.613C249.111 409.007 227.235 409.511 227.235 409.511Z" fill="#3498DB" stroke="#263238" stroke-linecap="round" stroke-linejoin="round"/>
<path d="M244.519 412.043C242.154 414.757 240.266 417.852 238.935 421.196C237.857 424.697 237.006 428.265 236.388 431.875C241.255 433.209 246.013 434.913 250.621 436.971C258.768 440.525 272.498 443.073 285.709 446.124C298.92 449.175 302.49 452.226 307.067 452.226C311.644 452.226 317.242 448.657 324.367 440.022C331.491 431.387 325.374 413.065 318.265 407.466C311.155 401.868 273.001 397.306 267.921 398.832C262.841 400.357 244.519 412.043 244.519 412.043Z" fill="#263238" stroke="#263238" stroke-linecap="round" stroke-linejoin="round"/>
<path d="M149.111 429.923C148.106 425.359 146.071 421.085 143.161 417.428C142.688 417.871 142.231 418.328 141.788 418.832C136.129 425.27 139.668 429.846 149.111 429.923Z" fill="#3498DB" stroke="#263238" stroke-linecap="round" stroke-linejoin="round"/>
<path d="M200.018 433.95C200.018 433.95 194.77 490.106 184.061 498.847" stroke="white" stroke-width="0.5" stroke-linecap="round" stroke-linejoin="round"/>
<path d="M196.311 487.253C196.311 487.253 192.147 505.56 181.224 512.837" stroke="white" stroke-width="0.5" stroke-linecap="round" stroke-linejoin="round"/>
<path d="M263.848 423.744C263.848 423.744 247.57 424.766 258.249 431.875C268.928 438.984 288.257 443.576 288.257 443.576" stroke="white" stroke-width="0.5" stroke-linecap="round" stroke-linejoin="round"/>
<path d="M382.018 404.507L376.526 399.564L363.833 372.104C363.231 370.855 362.286 369.802 361.108 369.07C359.93 368.338 358.569 367.956 357.182 367.97H110.651C109.262 367.954 107.897 368.334 106.716 369.066C105.535 369.799 104.588 370.852 103.984 372.104L88.1644 406.307L85.5557 405.346V413.172L85.6777 413.08C85.8331 414.125 86.363 415.076 87.1687 415.759C87.9743 416.441 89.0006 416.806 90.0561 416.787H377.762C378.873 416.813 379.951 416.406 380.768 415.651C381.585 414.897 382.077 413.855 382.14 412.745L382.018 404.507Z" fill="#263238" stroke="#263238" stroke-linecap="round" stroke-linejoin="round"/>
<path d="M377.761 409.633H90.0555C89.343 409.661 88.635 409.508 87.9979 409.188C87.3608 408.868 86.8154 408.391 86.4129 407.802C86.0103 407.214 85.7638 406.533 85.6965 405.823C85.6292 405.113 85.7433 404.398 86.028 403.744L103.984 364.949C104.584 363.695 105.531 362.639 106.712 361.907C107.894 361.174 109.261 360.795 110.651 360.815H357.181C358.569 360.798 359.932 361.178 361.111 361.911C362.289 362.643 363.234 363.697 363.833 364.949L381.789 403.744C382.073 404.398 382.187 405.113 382.12 405.823C382.053 406.533 381.806 407.214 381.404 407.802C381.001 408.391 380.456 408.868 379.819 409.188C379.182 409.508 378.474 409.661 377.761 409.633Z" fill="white" stroke="#263238" stroke-linecap="round" stroke-linejoin="round"/>
<g style="mix-blend-mode:multiply" opacity="0.5">
<path d="M104.624 383.576C104.624 383.576 98.1102 388.046 102.183 389.678C106.257 391.311 153.076 390.09 158.782 388.458C164.487 386.825 170.986 371.768 170.986 369.327C170.986 366.886 162.779 365.132 159.758 364.995C156.738 364.857 116.829 367.283 116.829 367.283L104.624 383.576Z" fill="#3498DB"/>
</g>
<g style="mix-blend-mode:multiply" opacity="0.5">
<path d="M337.518 391.311C346.735 391.311 354.207 388.21 354.207 384.385C354.207 380.559 346.735 377.459 337.518 377.459C328.3 377.459 320.828 380.559 320.828 384.385C320.828 388.21 328.3 391.311 337.518 391.311Z" fill="#3498DB"/>
</g>
<g style="mix-blend-mode:multiply" opacity="0.5">
<path d="M231.262 399.869C264.315 399.869 291.11 394.856 291.11 388.671C291.11 382.487 264.315 377.474 231.262 377.474C198.209 377.474 171.414 382.487 171.414 388.671C171.414 394.856 198.209 399.869 231.262 399.869Z" fill="#3498DB"/>
</g>
<path d="M325.312 357.138C325.312 357.138 324.214 352.76 320.568 354.224C316.922 355.689 317.288 365.361 318.005 370.838C318.722 376.314 323.665 373.751 323.665 373.751V370.471C323.665 370.471 321.849 371.921 320.934 369.922C320.019 367.924 320.202 357.87 321.117 358.053C322.032 358.236 323.848 361.333 323.848 361.333C323.848 361.333 324.397 360.982 325.312 357.138Z" fill="#3498DB" stroke="#263238" stroke-linecap="round" stroke-linejoin="round"/>
<path d="M322.689 357.87V381.852C322.689 384.674 329.173 386.963 337.182 386.963C345.191 386.963 351.659 384.674 351.659 381.852V357.87H322.689Z" fill="#3498DB" stroke="#263238" stroke-linecap="round" stroke-linejoin="round"/>
<path d="M351.659 357.87C351.659 360.311 345.176 362.279 337.182 362.279C329.188 362.279 322.689 360.311 322.689 357.87C322.689 355.429 329.173 353.461 337.182 353.461C345.191 353.461 351.659 355.445 351.659 357.87Z" fill="white" stroke="#263238" stroke-linecap="round" stroke-linejoin="round"/>
<path d="M349.767 357.87C349.767 359.991 344.123 361.699 337.181 361.699C330.24 361.699 324.58 359.991 324.58 357.87C324.58 355.75 330.225 354.041 337.181 354.041C344.138 354.041 349.767 355.75 349.767 357.87Z" fill="white" stroke="#263238" stroke-linecap="round" stroke-linejoin="round"/>
<path d="M327.464 360.311C333.805 362.162 340.543 362.162 346.884 360.311C340.543 358.461 333.805 358.461 327.464 360.311Z" fill="#263238" stroke="#263238" stroke-linecap="round" stroke-linejoin="round"/>
<path d="M102.825 368.824L103.008 377.031L158.31 377.581V368.092L102.825 368.824Z" fill="white" stroke="#263238" stroke-linecap="round" stroke-linejoin="round"/>
<path d="M158.31 377.581L166.35 360.25V355.14L157.944 369.739L158.31 377.581Z" fill="white" stroke="#263238" stroke-linecap="round" stroke-linejoin="round"/>
<path d="M102.825 376.299L103.008 384.522L158.31 385.071V375.582L102.825 376.299Z" fill="white" stroke="#263238" stroke-linecap="round" stroke-linejoin="round"/>
<path d="M158.31 385.071L166.35 367.726V362.615L157.944 377.214L158.31 385.071Z" fill="white" stroke="#263238" stroke-linecap="round" stroke-linejoin="round"/>
<path d="M124.183 348.015C124.183 348.015 125.464 345.468 123.633 344.369C121.803 343.271 119.804 345.895 118.706 346.734C117.607 347.573 94.6171 362.798 93.8849 365.178C93.1526 367.558 93.8849 372.806 98.8124 373.385C103.74 373.965 108.118 370.655 110.315 370.105C112.512 369.556 113.366 369.373 113.366 369.373L128.515 348.931L124.183 348.015Z" fill="white" stroke="#263238" stroke-linecap="round" stroke-linejoin="round"/>
<path d="M98.8129 373.401C103.74 373.95 108.119 370.67 110.316 370.121C112.512 369.571 113.367 369.388 113.367 369.388L113.916 368.641L99.6825 365.742C98.9087 365.013 97.9137 364.563 96.8554 364.464C95.797 364.365 94.7357 364.621 93.8396 365.193C93.1531 367.542 93.8854 372.836 98.8129 373.401Z" fill="white" stroke="#263238" stroke-linecap="round" stroke-linejoin="round"/>
<path d="M99.728 365.773H142.444C155.777 365.773 159.789 365.04 159.789 365.04L167.997 348.061C167.997 348.061 142.062 349.709 134.053 349.159C130.744 349.064 127.447 348.697 124.198 348.061L99.728 365.773Z" fill="white" stroke="#263238" stroke-linecap="round" stroke-linejoin="round"/>
<path d="M99.728 365.773L100.46 369.053C100.46 369.053 135.136 369.236 144.259 369.236C153.382 369.236 160.323 369.602 160.323 369.602L159.774 365.025L99.728 365.773Z" fill="white" stroke="#263238" stroke-linecap="round" stroke-linejoin="round"/>
<path d="M160.323 369.556L167.981 352.027V348.015L159.774 364.995L160.323 369.556Z" fill="white" stroke="#263238" stroke-linecap="round" stroke-linejoin="round"/>
<path d="M283.528 390.06H178.95C178.719 390.062 178.489 390.018 178.274 389.931C178.06 389.843 177.864 389.714 177.7 389.551C177.535 389.388 177.405 389.194 177.316 388.98C177.227 388.766 177.181 388.537 177.181 388.305C177.181 388.074 177.227 387.844 177.316 387.63C177.405 387.417 177.535 387.222 177.7 387.059C177.864 386.896 178.06 386.767 178.274 386.68C178.489 386.593 178.719 386.549 178.95 386.551H283.528C283.758 386.549 283.988 386.593 284.201 386.68C284.415 386.768 284.609 386.897 284.773 387.06C284.936 387.224 285.065 387.418 285.153 387.632C285.24 387.845 285.284 388.074 285.282 388.305C285.284 388.536 285.24 388.765 285.153 388.979C285.065 389.193 284.936 389.387 284.773 389.55C284.609 389.714 284.415 389.843 284.201 389.93C283.988 390.018 283.758 390.062 283.528 390.06Z" fill="white" stroke="#263238" stroke-linecap="round" stroke-linejoin="round"/>
<path d="M284.413 386.52H178.05C177.661 386.521 177.286 386.373 177.003 386.106C176.719 385.84 176.548 385.475 176.525 385.086L170.743 315.597C170.717 315.382 170.737 315.164 170.802 314.957C170.867 314.75 170.975 314.56 171.12 314.398C171.264 314.236 171.441 314.107 171.639 314.019C171.837 313.932 172.052 313.887 172.269 313.888H290.21C290.426 313.887 290.641 313.932 290.839 314.019C291.037 314.107 291.214 314.236 291.359 314.398C291.503 314.56 291.611 314.75 291.676 314.957C291.741 315.164 291.761 315.382 291.735 315.597L285.953 385.086C285.93 385.478 285.757 385.845 285.47 386.112C285.183 386.379 284.804 386.525 284.413 386.52Z" fill="white" stroke="#263238" stroke-linecap="round" stroke-linejoin="round"/>
<path d="M241.27 351.402C241.27 355.551 236.769 358.908 231.232 358.908C225.694 358.908 221.178 355.551 221.178 351.402C221.178 347.252 225.679 343.911 231.232 343.911C236.785 343.911 241.27 347.268 241.27 351.402Z" fill="white" stroke="#263238" stroke-linecap="round" stroke-linejoin="round"/>
<path d="M345.206 297.123C346.837 295.85 347.984 294.057 348.456 292.042C348.798 290.531 348.762 288.959 348.349 287.466" stroke="#263238" stroke-linecap="round" stroke-linejoin="round"/>
<path d="M333.031 351.524C333.031 351.524 343.176 345.422 339.866 338.45C336.555 331.478 325.358 326.856 325.358 315.994C325.358 306.627 335.32 303.164 341.819 299.411" stroke="#263238" stroke-linecap="round" stroke-linejoin="round"/>
<path d="M342.399 351.326C342.399 351.326 348.059 347.558 348.059 341.577C348.059 337.565 343.772 334.941 338.112 328.488" stroke="#263238" stroke-linecap="round" stroke-linejoin="round"/>
<path d="M334.985 324.583C334.985 324.583 331.278 321.669 334.009 316.192" stroke="#263238" stroke-linecap="round" stroke-linejoin="round"/>
<path d="M249.096 164.78C250.911 164.399 254.802 162.904 257.426 156.817C257.466 156.725 257.488 156.625 257.49 156.525C257.492 156.424 257.474 156.324 257.437 156.231C257.4 156.137 257.345 156.052 257.275 155.98C257.205 155.907 257.121 155.85 257.029 155.81C256.842 155.732 256.633 155.73 256.445 155.804C256.257 155.878 256.106 156.023 256.022 156.206C253.612 161.79 250.164 163.026 248.73 163.3C251.296 160.195 252.713 156.299 252.742 152.27C252.742 141.683 242.933 133.109 230.835 133.109C218.737 133.109 208.928 141.683 208.928 152.27C208.936 156.137 210.224 159.891 212.589 162.949C210.286 162.827 206.396 163.804 201.468 169.555C201.327 169.7 201.249 169.894 201.249 170.097C201.249 170.299 201.327 170.493 201.468 170.638C201.609 170.756 201.787 170.821 201.971 170.821C202.082 170.821 202.192 170.797 202.292 170.749C202.392 170.702 202.481 170.633 202.551 170.547C208.852 163.209 213.016 164.444 213.855 164.78C212.431 165.564 211.096 166.5 209.874 167.572C202.841 173.903 198.554 185.879 199.103 195.856C199.721 202.473 202.119 208.799 206.045 214.162C211.153 210.507 215.388 205.766 218.447 200.28C220.727 196.25 222.765 192.088 224.55 187.816C224.55 192.286 225.129 197.686 227.479 201.546C229.174 204.595 231.656 207.132 234.667 208.893C237.679 210.653 241.108 211.572 244.596 211.554C245.8 211.571 247.002 211.453 248.181 211.203C248.284 211.177 248.381 211.13 248.465 211.064C248.549 210.998 248.619 210.916 248.669 210.822C254.557 212.072 260.416 211.966 261.316 210.715C262.765 208.716 264.824 202.477 265.511 194.849C266.762 181.912 258.615 170.684 249.096 164.78ZM228.898 200.616C225.938 195.779 226.029 187.892 226.38 183.361L226.579 182.843C226.719 187.503 227.907 192.071 230.054 196.21C232.201 200.348 235.253 203.95 238.981 206.748C241.041 208.172 243.326 209.24 245.74 209.906C242.002 210.166 234.313 209.449 228.898 200.616Z" fill="#263238"/>
<path d="M229.157 176.603C229.157 176.603 227.906 185.848 239.653 194.91C251.399 203.972 262.536 200.402 262.536 200.402" stroke="white" stroke-width="0.5" stroke-linecap="round" stroke-linejoin="round"/>
<path d="M230.88 173.552C230.88 173.552 243.253 191.569 260.339 186.87" stroke="white" stroke-width="0.5" stroke-linecap="round" stroke-linejoin="round"/>
<path d="M224.763 167.557C222.812 166.566 220.626 166.13 218.445 166.297C216.263 166.464 214.169 167.227 212.391 168.503C205.816 172.881 202.521 183.224 202.521 183.224" stroke="white" stroke-width="0.5" stroke-linecap="round" stroke-linejoin="round"/>
<path d="M225.084 172.576C225.084 172.576 219.76 171.157 216.464 174.452C214.858 175.907 213.485 177.6 212.391 179.471" stroke="white" stroke-width="0.5" stroke-linecap="round" stroke-linejoin="round"/>
</svg>
