<svg width="394" height="127" viewBox="0 0 394 127" fill="none" xmlns="http://www.w3.org/2000/svg">
<path d="M340.866 90.2744L340.783 97.5949C340.724 102.341 352.47 106.422 366.992 106.576C381.515 106.731 393.344 103.017 393.403 98.1762L393.486 90.8439C393.388 91.6047 393.112 92.3316 392.678 92.9647C392.245 93.5979 391.668 94.1193 390.995 94.4863C388.009 96.2831 384.706 97.4914 381.266 98.0457C371.881 99.7633 362.254 99.6586 352.909 97.7372C349.482 97.1092 346.207 95.8283 343.263 93.9643C341.709 92.8371 340.843 91.5795 340.866 90.2744Z" fill="#FFC727"/>
<path opacity="0.1" d="M340.866 90.2744L340.783 97.5949C340.724 102.341 352.47 106.422 366.992 106.576C381.515 106.731 393.344 103.017 393.403 98.1762L393.486 90.8439C393.388 91.6047 393.112 92.3316 392.678 92.9647C392.245 93.5979 391.668 94.1193 390.995 94.4863C388.009 96.2831 384.706 97.4914 381.266 98.0457C371.881 99.7633 362.254 99.6586 352.909 97.7372C349.482 97.1092 346.207 95.8283 343.263 93.9643C341.709 92.8371 340.843 91.5795 340.866 90.2744Z" fill="black"/>
<path d="M340.866 90.2625C340.866 91.5677 341.709 92.8253 343.239 93.9524C346.183 95.8165 349.458 97.0973 352.885 97.7254C362.228 99.6622 371.859 99.767 381.242 98.0339C384.683 97.4835 387.986 96.275 390.971 94.4745C391.646 94.109 392.224 93.588 392.657 92.9545C393.09 92.3211 393.366 91.5935 393.462 90.832C393.462 86.0862 381.776 82.0166 367.229 81.8623C353.087 81.7081 341.495 85.2913 340.866 89.8947C340.878 90.0253 340.866 90.1439 340.866 90.2625Z" fill="#FFC727"/>
<path opacity="0.3" d="M346.751 89.3015C346.804 89.8884 346.996 90.4543 347.311 90.9518C347.627 91.4492 348.058 91.8638 348.567 92.1609C350.85 93.6105 353.392 94.6056 356.053 95.0914C359.668 95.868 363.354 96.2657 367.052 96.2779C370.753 96.342 374.45 96.0239 378.086 95.3287C380.76 94.9025 383.326 93.9638 385.644 92.5643C386.167 92.2826 386.615 91.8789 386.95 91.3873C387.284 90.8958 387.496 90.3309 387.566 89.7405C387.566 86.0269 378.489 82.8946 367.206 82.7759C356.207 82.6573 347.214 85.4336 346.728 89.0167C346.73 89.112 346.737 89.2072 346.751 89.3015Z" fill="white"/>
<path d="M290.24 99.2559L290.157 106.588C290.157 111.334 301.843 115.404 316.366 115.57C330.888 115.736 342.729 112.01 342.777 107.158L342.86 99.8254C342.772 100.588 342.5 101.318 342.068 101.952C341.636 102.586 341.057 103.106 340.38 103.468C337.39 105.266 334.084 106.474 330.639 107.027C321.256 108.76 311.626 108.656 302.282 106.719C298.859 106.091 295.588 104.81 292.648 102.946C291.978 102.571 291.409 102.04 290.99 101.397C290.57 100.755 290.313 100.02 290.24 99.2559Z" fill="#FFC727"/>
<path opacity="0.1" d="M290.24 99.2559L290.157 106.588C290.157 111.334 301.843 115.404 316.366 115.57C330.888 115.736 342.729 112.01 342.777 107.158L342.86 99.8254C342.772 100.588 342.5 101.318 342.068 101.952C341.636 102.586 341.057 103.106 340.38 103.468C337.39 105.266 334.084 106.474 330.639 107.027C321.256 108.76 311.626 108.656 302.282 106.719C298.859 106.091 295.588 104.81 292.648 102.946C291.978 102.571 291.409 102.04 290.99 101.397C290.57 100.755 290.313 100.02 290.24 99.2559Z" fill="black"/>
<path d="M290.24 99.2559C290.315 100.015 290.57 100.745 290.982 101.387C291.395 102.028 291.954 102.563 292.613 102.946C295.555 104.806 298.825 106.087 302.247 106.719C306.906 107.702 311.652 108.211 316.414 108.237C321.188 108.331 325.959 107.934 330.651 107.051C334.095 106.493 337.4 105.285 340.392 103.492C341.97 102.388 342.86 101.119 342.872 99.8492C342.872 95.1033 331.185 91.0337 316.651 90.8676C302.496 90.7134 290.905 94.2965 290.288 98.9C290.262 99.017 290.246 99.1361 290.24 99.2559Z" fill="#FFC727"/>
<path opacity="0.3" d="M296.125 98.3305C296.184 98.9242 296.386 99.4949 296.712 99.9946C297.038 100.494 297.48 100.908 297.999 101.202C300.283 102.642 302.819 103.637 305.474 104.132C312.734 105.634 320.216 105.715 327.507 104.37C330.18 103.942 332.746 103.004 335.064 101.605C335.588 101.322 336.036 100.918 336.372 100.427C336.709 99.9358 336.923 99.3717 336.998 98.7813C336.998 95.0558 327.922 91.9354 316.627 91.8049C305.64 91.6863 296.635 94.4745 296.148 98.0457C296.134 98.1401 296.127 98.2352 296.125 98.3305Z" fill="white"/>
<path d="M103.478 101.32L103.407 108.653C103.348 113.399 115.094 117.468 129.616 117.634C144.138 117.8 155.967 114.075 156.027 109.222L156.098 101.902C156.008 102.662 155.736 103.389 155.304 104.022C154.872 104.654 154.294 105.172 153.618 105.532C150.636 107.336 147.332 108.545 143.889 109.092C134.502 110.825 124.868 110.72 115.521 108.783C112.098 108.153 108.827 106.873 105.887 105.01C105.217 104.636 104.648 104.104 104.228 103.462C103.809 102.819 103.551 102.084 103.478 101.32Z" fill="#FFC727"/>
<path opacity="0.1" d="M103.478 101.32L103.407 108.653C103.348 113.399 115.094 117.468 129.616 117.634C144.138 117.8 155.967 114.075 156.027 109.222L156.098 101.902C156.008 102.662 155.736 103.389 155.304 104.022C154.872 104.654 154.294 105.172 153.618 105.532C150.636 107.336 147.332 108.545 143.889 109.092C134.502 110.825 124.868 110.72 115.521 108.783C112.098 108.153 108.827 106.873 105.887 105.01C105.217 104.636 104.648 104.104 104.228 103.462C103.809 102.819 103.551 102.084 103.478 101.32Z" fill="black"/>
<path d="M103.479 101.32C103.548 102.081 103.8 102.814 104.213 103.456C104.626 104.098 105.188 104.632 105.851 105.01C108.792 106.873 112.062 108.153 115.486 108.783C124.834 110.704 134.466 110.809 143.854 109.092C147.294 108.534 150.596 107.326 153.583 105.532C155.161 104.429 156.051 103.159 156.063 101.89C156.122 97.144 144.388 93.0744 129.842 92.9083C115.687 92.7541 104.107 96.3372 103.479 100.941V101.32Z" fill="#FFC727"/>
<path opacity="0.3" d="M109.375 100.347C109.431 100.941 109.63 101.511 109.955 102.011C110.279 102.511 110.719 102.925 111.238 103.219C113.519 104.673 116.062 105.668 118.724 106.149C122.341 106.914 126.026 107.312 129.723 107.336C133.42 107.4 137.114 107.082 140.745 106.387C143.422 105.957 145.991 105.018 148.315 103.622C148.837 103.338 149.283 102.934 149.617 102.443C149.952 101.952 150.164 101.388 150.237 100.798C150.237 97.0728 141.16 93.9524 129.877 93.8219C118.879 93.7032 109.885 96.4914 109.399 100.063C109.385 100.157 109.377 100.252 109.375 100.347Z" fill="white"/>
<path d="M247.717 81.5064L247.634 88.8388C247.575 93.5846 259.321 97.6542 273.843 97.8084C288.365 97.9627 300.194 94.2491 300.254 89.4083L300.337 82.0759C300.239 82.8367 299.962 83.5636 299.529 84.1967C299.096 84.8299 298.519 85.3514 297.845 85.7184C294.858 87.512 291.556 88.72 288.116 89.2778C278.729 91.0109 269.095 90.9061 259.748 88.9693C256.325 88.3395 253.054 87.0587 250.114 85.1963C248.548 84.0929 247.717 82.8115 247.717 81.5064Z" fill="#FFC727"/>
<path opacity="0.1" d="M247.717 81.5064L247.634 88.8388C247.575 93.5846 259.321 97.6542 273.843 97.8084C288.365 97.9627 300.194 94.2491 300.254 89.4083L300.337 82.0759C300.239 82.8367 299.962 83.5636 299.529 84.1967C299.096 84.8299 298.519 85.3514 297.845 85.7184C294.858 87.512 291.556 88.72 288.116 89.2778C278.729 91.0109 269.095 90.9061 259.748 88.9693C256.325 88.3395 253.054 87.0587 250.114 85.1963C248.548 84.0929 247.717 82.8115 247.717 81.5064Z" fill="black"/>
<path d="M247.717 81.4945C247.717 82.7996 248.559 84.0573 250.09 85.1844C253.03 87.0468 256.301 88.3276 259.724 88.9574C269.071 90.8943 278.705 90.999 288.092 89.2658C291.533 88.7135 294.836 87.5051 297.821 85.7064C298.495 85.3421 299.072 84.8229 299.505 84.1917C299.938 83.5604 300.215 82.8352 300.313 82.0759C300.313 77.33 288.626 73.2486 274.08 73.0943C259.937 72.9401 248.346 76.5232 247.717 81.1267C247.717 81.2453 247.717 81.3759 247.717 81.4945Z" fill="#FFC727"/>
<path opacity="0.3" d="M253.649 80.5335C253.708 81.1261 253.907 81.6961 254.232 82.1957C254.556 82.6953 254.995 83.1099 255.512 83.4048C257.799 84.8449 260.34 85.8355 262.999 86.3235C266.614 87.1001 270.3 87.4977 273.997 87.5099C277.698 87.5717 281.395 87.2576 285.031 86.5726C287.702 86.1356 290.267 85.1977 292.589 83.8082C293.113 83.523 293.56 83.1168 293.894 82.6235C294.229 82.1302 294.44 81.5641 294.511 80.9725C294.511 77.2588 285.435 74.1266 274.152 74.0079C263.153 73.8893 254.16 76.6656 253.673 80.2488C253.659 80.3431 253.651 80.4382 253.649 80.5335Z" fill="white"/>
<path d="M123.862 66.379L123.791 73.7113C123.731 78.4572 135.466 82.5268 150 82.6929C164.534 82.859 176.351 79.0742 176.411 74.2808L176.482 66.9603C176.392 67.7206 176.119 68.4479 175.688 69.0801C175.256 69.7123 174.678 70.2306 174.002 70.5909C171.019 72.3947 167.715 73.6034 164.273 74.1503C154.886 75.8835 145.252 75.7787 135.905 73.8418C132.481 73.212 129.211 71.9312 126.27 70.0689C125.601 69.6944 125.031 69.163 124.612 68.5204C124.193 67.8777 123.935 67.1429 123.862 66.379Z" fill="#FFC727"/>
<path opacity="0.1" d="M123.862 66.379L123.791 73.7113C123.731 78.4572 135.466 82.5268 150 82.6929C164.534 82.859 176.351 79.0742 176.411 74.2808L176.482 66.9603C176.392 67.7206 176.119 68.4479 175.688 69.0801C175.256 69.7123 174.678 70.2306 174.002 70.5909C171.019 72.3947 167.715 73.6034 164.273 74.1503C154.886 75.8835 145.252 75.7787 135.905 73.8418C132.481 73.212 129.211 71.9312 126.27 70.0689C125.601 69.6944 125.031 69.163 124.612 68.5204C124.193 67.8777 123.935 67.1429 123.862 66.379Z" fill="black"/>
<path d="M123.862 66.3789C123.931 67.1395 124.183 67.8721 124.596 68.5145C125.009 69.1569 125.571 69.6901 126.235 70.0688C129.175 71.9312 132.446 73.212 135.869 73.8418C145.218 75.7629 154.849 75.8676 164.237 74.1503C167.677 73.5925 170.979 72.3845 173.966 70.5909C175.544 69.4875 176.434 68.2179 176.446 66.9484C176.446 62.2026 164.771 58.133 150.225 57.9669C136.071 57.8127 124.491 61.3958 123.862 65.9993C123.886 66.1298 123.862 66.2959 123.862 66.3789Z" fill="#FFC727"/>
<path opacity="0.3" d="M129.758 65.406C129.815 65.9992 130.014 66.57 130.338 67.0699C130.662 67.5698 131.102 67.984 131.621 68.2773C133.903 69.7312 136.445 70.7267 139.108 71.2079C142.725 71.9728 146.409 72.3703 150.106 72.3944C153.803 72.459 157.497 72.1409 161.128 71.4452C163.802 71.0178 166.368 70.0792 168.686 68.6807C169.211 68.3989 169.66 67.9953 169.997 67.504C170.333 67.0127 170.547 66.4479 170.62 65.8569C170.62 62.1314 161.544 59.011 150.26 58.8805C139.262 58.7618 130.268 61.55 129.782 65.1213C129.768 65.2156 129.76 65.3107 129.758 65.406Z" fill="white"/>
<path d="M297.205 74.0316L299.127 81.1504C300.384 85.7777 312.771 86.4539 326.795 82.6335C340.819 78.8131 351.165 71.9553 349.907 67.34L347.985 60.2212C348.101 60.9785 348.034 61.7524 347.791 62.4788C347.547 63.2051 347.134 63.8629 346.585 64.3975C344.202 66.9418 341.355 69.0077 338.197 70.4841C329.638 74.7053 320.343 77.2314 310.825 77.9233C307.36 78.2508 303.865 77.9125 300.527 76.9266C299.782 76.7441 299.092 76.386 298.514 75.8824C297.936 75.3788 297.487 74.7442 297.205 74.0316Z" fill="#FFC727"/>
<path opacity="0.1" d="M297.205 74.0316L299.127 81.1504C300.384 85.7777 312.771 86.4539 326.795 82.6335C340.819 78.8131 351.165 71.9553 349.907 67.34L347.985 60.2212C348.101 60.9785 348.034 61.7524 347.791 62.4788C347.547 63.2051 347.134 63.8629 346.585 64.3975C344.202 66.9418 341.355 69.0077 338.197 70.4841C329.638 74.7053 320.343 77.2314 310.825 77.9233C307.36 78.2508 303.865 77.9125 300.527 76.9266C299.782 76.7441 299.092 76.386 298.514 75.8824C297.936 75.3788 297.487 74.7442 297.205 74.0316Z" fill="black"/>
<path d="M297.204 74.0316C297.48 74.7516 297.924 75.3949 298.5 75.907C299.077 76.4191 299.767 76.7851 300.515 76.9741C303.856 77.9615 307.356 78.2998 310.825 77.9707C320.345 77.2823 329.641 74.7518 338.197 70.5197C341.352 69.0438 344.199 66.9824 346.585 64.445C347.772 62.95 348.317 61.5144 347.973 60.2568C346.716 55.6414 334.329 54.9651 320.305 58.7856C306.649 62.4992 296.469 69.1078 297.133 73.7113C297.148 73.8198 297.172 73.927 297.204 74.0316Z" fill="#FFC727"/>
<path opacity="0.3" d="M302.603 71.4926C302.822 72.0463 303.17 72.5397 303.617 72.9318C304.065 73.3239 304.6 73.6033 305.178 73.7469C307.775 74.5071 310.492 74.7687 313.186 74.5181C320.578 73.9817 327.794 72.0153 334.436 68.7282C336.893 67.581 339.105 65.9695 340.95 63.9823C341.377 63.5687 341.699 63.0588 341.889 62.4953C342.079 61.9318 342.131 61.3311 342.041 60.7433C341.057 57.1839 331.434 56.6262 320.543 59.5568C309.936 62.4399 302.034 67.5773 302.544 71.1486C302.555 71.2645 302.575 71.3796 302.603 71.4926Z" fill="white"/>
<path d="M261.812 63.4839L261.741 70.8163C261.682 75.5622 273.416 79.6318 287.95 79.7979C302.484 79.964 314.301 76.1791 314.361 71.3858L314.432 64.0534C314.344 64.8158 314.072 65.5455 313.64 66.1799C313.209 66.8143 312.629 67.3345 311.952 67.6959C308.967 69.4946 305.664 70.7029 302.223 71.2553C292.836 72.9884 283.202 72.8837 273.855 70.9468C270.432 70.317 267.161 69.0362 264.221 67.1738C263.551 66.7994 262.982 66.268 262.562 65.6254C262.143 64.9827 261.885 64.2479 261.812 63.4839Z" fill="#FFC727"/>
<path opacity="0.1" d="M261.812 63.4839L261.741 70.8163C261.682 75.5622 273.416 79.6318 287.95 79.7979C302.484 79.964 314.301 76.1791 314.361 71.3858L314.432 64.0534C314.344 64.8158 314.072 65.5455 313.64 66.1799C313.209 66.8143 312.629 67.3345 311.952 67.6959C308.967 69.4946 305.664 70.7029 302.223 71.2553C292.836 72.9884 283.202 72.8837 273.855 70.9468C270.432 70.317 267.161 69.0362 264.221 67.1738C263.551 66.7994 262.982 66.268 262.562 65.6254C262.143 64.9827 261.885 64.2479 261.812 63.4839Z" fill="black"/>
<path d="M261.812 63.4839C261.887 64.2429 262.141 64.9732 262.554 65.6147C262.967 66.2562 263.526 66.7906 264.185 67.1738C267.128 69.0312 270.397 70.3117 273.819 70.9468C278.501 71.9341 283.272 72.443 288.057 72.4655C292.831 72.5579 297.601 72.1603 302.294 71.279C305.734 70.7213 309.036 69.5133 312.023 67.7196C313.601 66.6162 314.491 65.3467 314.503 64.0772C314.503 59.3313 302.828 55.2617 288.282 55.0956C274.128 54.9414 262.548 58.5245 261.919 63.128L261.812 63.4839Z" fill="#FFC727"/>
<path opacity="0.3" d="M267.709 62.511C267.766 63.1042 267.965 63.675 268.289 64.1749C268.613 64.6747 269.054 65.089 269.572 65.3823C271.86 66.8243 274.4 67.8188 277.059 68.3129C284.315 69.8149 291.793 69.8954 299.08 68.5501C301.756 68.1202 304.326 67.1818 306.649 65.7857C307.171 65.5016 307.618 65.0973 307.952 64.6062C308.286 64.1151 308.498 63.5515 308.571 62.9619C308.571 59.2364 299.495 56.116 288.212 55.9855C277.213 55.8668 268.22 58.655 267.733 62.2263C267.719 62.3206 267.711 62.4157 267.709 62.511Z" fill="white"/>
<path d="M163.68 58.489L163.597 65.8094C163.597 70.5553 175.283 74.6368 189.806 74.791C204.328 74.9452 216.169 71.1722 216.216 66.3908L216.3 59.0584C216.21 59.8187 215.937 60.546 215.505 61.1782C215.074 61.8104 214.495 62.3287 213.82 62.689C210.83 64.4872 207.524 65.6955 204.079 66.2484C194.694 67.9698 185.066 67.8611 175.722 65.9281C172.3 65.3036 169.029 64.0267 166.088 62.167C165.424 61.789 164.859 61.2583 164.44 60.6187C164.021 59.9792 163.761 59.2492 163.68 58.489Z" fill="#FFC727"/>
<path opacity="0.1" d="M163.68 58.489L163.597 65.8094C163.597 70.5553 175.283 74.6368 189.806 74.791C204.328 74.9452 216.169 71.1722 216.216 66.3908L216.3 59.0584C216.21 59.8187 215.937 60.546 215.505 61.1782C215.074 61.8104 214.495 62.3287 213.82 62.689C210.83 64.4872 207.524 65.6955 204.079 66.2484C194.694 67.9698 185.066 67.8611 175.722 65.9281C172.3 65.3036 169.029 64.0267 166.088 62.167C165.424 61.789 164.859 61.2583 164.44 60.6187C164.021 59.9792 163.761 59.2492 163.68 58.489Z" fill="black"/>
<path d="M163.68 58.4771C163.749 59.2377 164.001 59.9703 164.414 60.6126C164.827 61.255 165.389 61.7882 166.053 62.167C168.992 64.0314 172.263 65.3124 175.687 65.9399C180.355 66.9397 185.114 67.4565 189.889 67.4823C194.663 67.5705 199.433 67.1729 204.126 66.2959C207.571 65.743 210.878 64.5347 213.867 62.7365C214.544 62.3751 215.124 61.8549 215.555 61.2205C215.987 60.5861 216.259 59.8564 216.347 59.094C216.347 54.3481 204.66 50.2786 190.126 50.1243C175.971 49.9701 164.38 53.5414 163.763 58.1567C163.726 58.2609 163.698 58.3681 163.68 58.4771Z" fill="#FFC727"/>
<path opacity="0.3" d="M169.565 57.5161C169.626 58.1077 169.829 58.676 170.155 59.1735C170.481 59.6709 170.922 60.0831 171.44 60.3754C173.721 61.8294 176.264 62.8248 178.926 63.306C186.182 64.808 193.66 64.8886 200.947 63.5433C203.622 63.1214 206.189 62.1825 208.505 60.7788C209.03 60.4978 209.48 60.0945 209.816 59.603C210.153 59.1115 210.366 58.5463 210.439 57.955C210.439 54.2414 201.362 51.1091 190.067 50.9905C179.08 50.86 170.075 53.6482 169.589 57.2194C169.575 57.3178 169.567 57.4168 169.565 57.5161Z" fill="white"/>
<path d="M151.032 53.6481L147.9 60.2686C145.847 64.5992 154.841 73.1655 167.975 79.3589C181.109 85.5522 193.436 87.0709 195.477 82.7403L198.609 76.1079C198.052 77.2944 196.723 78.0419 194.836 78.386C191.37 78.772 187.862 78.4901 184.502 77.5554C175.253 75.2202 166.545 71.1101 158.863 65.4535C156.011 63.4537 153.57 60.9241 151.673 58.0025C151.222 57.3824 150.929 56.6624 150.817 55.9041C150.706 55.1458 150.779 54.3717 151.032 53.6481Z" fill="#FFC727"/>
<path opacity="0.1" d="M151.032 53.6481L147.9 60.2686C145.847 64.5992 154.841 73.1655 167.975 79.3589C181.109 85.5522 193.436 87.0709 195.477 82.7403L198.609 76.1079C198.052 77.2944 196.723 78.0419 194.836 78.386C191.37 78.772 187.862 78.4901 184.502 77.5554C175.253 75.2202 166.545 71.1101 158.863 65.4535C156.011 63.4537 153.57 60.9241 151.673 58.0025C151.222 57.3824 150.929 56.6624 150.817 55.9041C150.706 55.1458 150.779 54.3717 151.032 53.6481Z" fill="black"/>
<path d="M151.032 53.6363C150.779 54.3599 150.706 55.1339 150.817 55.8922C150.929 56.6505 151.222 57.3705 151.673 57.9906C153.57 60.9122 156.011 63.4418 158.863 65.4416C162.683 68.281 166.782 70.7258 171.095 72.7384C175.391 74.7997 179.888 76.4139 184.514 77.5555C187.87 78.4919 191.375 78.7699 194.836 78.3741C196.735 78.0419 198.064 77.2826 198.609 76.108C200.662 71.7774 191.68 63.223 178.523 57.0059C165.732 50.9668 153.702 49.3887 151.234 53.3159C151.151 53.4227 151.08 53.5295 151.032 53.6363Z" fill="#FFC727"/>
<path opacity="0.3" d="M156.786 55.2143C156.59 55.7762 156.532 56.3774 156.619 56.9664C156.706 57.5554 156.934 58.1145 157.285 58.5957C158.758 60.8627 160.651 62.8278 162.861 64.3857C168.833 68.7759 175.598 71.9707 182.782 73.7944C185.394 74.5188 188.12 74.7363 190.814 74.435C191.408 74.3932 191.983 74.2111 192.492 73.9038C193.002 73.5965 193.431 73.1727 193.745 72.6672C195.335 69.2976 188.346 62.6534 178.143 57.8364C168.2 53.0905 158.863 51.9041 156.929 54.9651C156.877 55.0456 156.829 55.1287 156.786 55.2143Z" fill="white"/>
<path d="M204.47 51.5599L202.726 58.6787C201.539 63.3415 212.087 69.9265 226.194 73.391C240.301 76.8554 252.688 75.8825 253.827 71.2316L255.583 64.1128C255.316 64.8311 254.881 65.4756 254.316 65.9933C253.751 66.5111 253.071 66.8872 252.332 67.0908C249.014 68.1592 245.522 68.5821 242.045 68.3366C232.511 67.8696 223.156 65.5652 214.496 61.55C211.305 60.1587 208.412 58.1645 205.977 55.677C205.413 55.1625 204.982 54.5196 204.719 53.8029C204.457 53.0862 204.372 52.3168 204.47 51.5599Z" fill="#FFC727"/>
<path opacity="0.1" d="M204.47 51.5599L202.726 58.6787C201.539 63.3415 212.087 69.9265 226.194 73.391C240.301 76.8554 252.688 75.8825 253.827 71.2316L255.583 64.1128C255.316 64.8311 254.881 65.4756 254.316 65.9933C253.751 66.5111 253.071 66.8872 252.332 67.0908C249.014 68.1592 245.522 68.5821 242.045 68.3366C232.511 67.8696 223.156 65.5652 214.496 61.55C211.305 60.1587 208.412 58.1645 205.977 55.677C205.413 55.1625 204.982 54.5196 204.719 53.8029C204.457 53.0862 204.372 52.3168 204.47 51.5599Z" fill="black"/>
<path d="M204.47 51.56C204.162 52.8177 204.719 54.2414 205.977 55.7008C208.417 58.1771 211.308 60.1627 214.496 61.5501C223.156 65.5643 232.511 67.8648 242.045 68.3248C245.523 68.5694 249.016 68.1424 252.332 67.0671C253.075 66.8708 253.758 66.4972 254.324 65.9785C254.891 65.4598 255.323 64.8115 255.583 64.0891C256.77 59.4382 246.21 52.8414 232.091 49.3769C218.352 46.0073 206.25 46.8497 204.589 51.1922L204.47 51.56Z" fill="#FFC727"/>
<path opacity="0.3" d="M210.427 51.9634C210.354 52.5551 210.423 53.1557 210.63 53.715C210.836 54.2744 211.173 54.7762 211.613 55.1787C213.508 57.1076 215.755 58.6543 218.234 59.7347C224.946 62.85 232.198 64.6349 239.59 64.9908C242.293 65.179 245.007 64.8488 247.587 64.0178C248.161 63.8636 248.69 63.5727 249.128 63.1698C249.566 62.767 249.9 62.2641 250.102 61.7043C250.992 58.0855 242.829 52.9719 231.866 50.2786C221.188 47.6565 211.791 48.309 210.51 51.6905C210.475 51.7791 210.447 51.8704 210.427 51.9634Z" fill="white"/>
<path d="M209.193 89.6812L209.121 97.0135C209.062 101.759 220.796 105.829 235.33 105.983C249.865 106.137 261.682 102.424 261.741 97.583L261.812 90.2507C261.724 91.0131 261.453 91.7427 261.021 92.3771C260.589 93.0115 260.01 93.5317 259.333 93.8931C256.347 95.6918 253.045 96.9002 249.604 97.4525C244.91 98.3282 240.14 98.7257 235.366 98.639C230.617 98.6233 225.882 98.1223 221.235 97.144C217.812 96.5142 214.541 95.2334 211.601 93.3711C210.931 92.9966 210.362 92.4653 209.943 91.8226C209.523 91.1799 209.266 90.4451 209.193 89.6812Z" fill="#FFC727"/>
<path opacity="0.1" d="M209.193 89.6812L209.121 97.0135C209.062 101.759 220.796 105.829 235.33 105.983C249.865 106.137 261.682 102.424 261.741 97.583L261.812 90.2507C261.724 91.0131 261.453 91.7427 261.021 92.3771C260.589 93.0115 260.01 93.5317 259.333 93.8931C256.347 95.6918 253.045 96.9002 249.604 97.4525C244.91 98.3282 240.14 98.7257 235.366 98.639C230.617 98.6233 225.882 98.1223 221.235 97.144C217.812 96.5142 214.541 95.2334 211.601 93.3711C210.931 92.9966 210.362 92.4653 209.943 91.8226C209.523 91.1799 209.266 90.4451 209.193 89.6812Z" fill="black"/>
<path d="M209.192 89.6693C209.192 90.9744 210.047 92.232 211.565 93.3711C214.508 95.2274 217.778 96.504 221.199 97.1321C230.547 99.069 240.181 99.1738 249.568 97.4406C253.01 96.8938 256.314 95.685 259.297 93.8812C259.972 93.521 260.551 93.0026 260.983 92.3704C261.414 91.7382 261.687 91.0109 261.777 90.2506C261.836 85.5048 250.102 81.4233 235.556 81.2691C221.401 81.1148 209.821 84.698 209.192 89.3015C209.216 89.432 209.192 89.5506 209.192 89.6693Z" fill="#FFC727"/>
<path opacity="0.3" d="M215.089 88.7082C215.147 89.3009 215.347 89.8708 215.671 90.3704C215.995 90.87 216.434 91.2846 216.952 91.5795C219.238 93.0233 221.779 94.0179 224.438 94.51C231.694 96.0121 239.172 96.0927 246.459 94.7474C249.131 94.3131 251.696 93.375 254.017 91.9829C254.541 91.701 254.991 91.2975 255.327 90.8062C255.664 90.3149 255.878 89.7501 255.951 89.1591C255.951 85.4336 246.874 82.3013 235.591 82.1827C224.592 82.064 215.599 84.8403 215.113 88.4235C215.099 88.5178 215.091 88.6129 215.089 88.7082Z" fill="white"/>
<path d="M156.157 109.744L156.086 117.065C156.027 121.811 167.761 125.892 182.283 126.046C196.806 126.201 208.647 122.428 208.706 117.646L208.777 110.314C208.687 111.074 208.415 111.801 207.983 112.434C207.551 113.066 206.973 113.584 206.297 113.944C203.311 115.741 200.009 116.949 196.568 117.504C191.876 118.385 187.105 118.783 182.331 118.69C177.591 118.671 172.864 118.174 168.224 117.207C164.801 116.575 161.531 115.295 158.59 113.434C157.919 113.058 157.348 112.527 156.925 111.885C156.502 111.243 156.239 110.509 156.157 109.744Z" fill="#FFC727"/>
<path opacity="0.1" d="M156.157 109.744L156.086 117.065C156.027 121.811 167.761 125.892 182.283 126.046C196.806 126.201 208.647 122.428 208.706 117.646L208.777 110.314C208.687 111.074 208.415 111.801 207.983 112.434C207.551 113.066 206.973 113.584 206.297 113.944C203.311 115.741 200.009 116.949 196.568 117.504C191.876 118.385 187.105 118.783 182.331 118.69C177.591 118.671 172.864 118.174 168.224 117.207C164.801 116.575 161.531 115.295 158.59 113.434C157.919 113.058 157.348 112.527 156.925 111.885C156.502 111.243 156.239 110.509 156.157 109.744Z" fill="black"/>
<path d="M156.157 109.732C156.227 110.493 156.479 111.226 156.892 111.868C157.305 112.51 157.867 113.044 158.53 113.422C161.487 115.294 164.779 116.575 168.224 117.195C172.881 118.188 177.628 118.701 182.39 118.726C187.164 118.813 191.934 118.415 196.628 117.539C200.068 116.985 203.371 115.777 206.357 113.98C207.034 113.619 207.613 113.098 208.045 112.464C208.477 111.83 208.748 111.1 208.836 110.338C208.836 105.592 197.15 101.522 182.615 101.368C168.461 101.214 156.881 104.785 156.252 109.4C156.181 109.483 156.157 109.614 156.157 109.732Z" fill="#FFC727"/>
<path opacity="0.3" d="M162.042 108.771C162.105 109.362 162.308 109.93 162.634 110.427C162.96 110.924 163.4 111.337 163.917 111.631C166.198 113.085 168.741 114.08 171.403 114.561C178.659 116.063 186.137 116.144 193.424 114.799C196.099 114.377 198.666 113.438 200.982 112.034C201.508 111.755 201.959 111.352 202.296 110.86C202.633 110.368 202.845 109.802 202.916 109.21C202.916 105.497 193.839 102.364 182.544 102.246C171.557 102.115 162.564 104.903 162.078 108.475L162.042 108.771Z" fill="white"/>
<path d="M256.402 111.916L259.249 118.678C261.1 123.092 273.487 122.107 286.858 116.472C300.23 110.836 309.603 102.661 307.74 98.2475L304.893 91.4846C305.403 92.6711 305.071 94.1779 304.062 95.8152C302.037 98.6468 299.488 101.063 296.552 102.934C292.617 105.613 288.419 107.883 284.023 109.709C279.64 111.575 275.081 112.994 270.414 113.944C267.021 114.73 263.509 114.859 260.068 114.324C259.308 114.247 258.578 113.988 257.94 113.569C257.302 113.149 256.774 112.582 256.402 111.916Z" fill="#FFC727"/>
<path opacity="0.1" d="M256.402 111.916L259.249 118.678C261.1 123.092 273.487 122.107 286.858 116.472C300.23 110.836 309.603 102.661 307.74 98.2475L304.893 91.4846C305.403 92.6711 305.071 94.1779 304.062 95.8152C302.037 98.6468 299.488 101.063 296.552 102.934C292.617 105.613 288.419 107.883 284.023 109.709C279.64 111.575 275.081 112.994 270.414 113.944C267.021 114.73 263.509 114.859 260.068 114.324C259.308 114.247 258.578 113.988 257.94 113.569C257.302 113.149 256.774 112.582 256.402 111.916Z" fill="black"/>
<path d="M256.39 111.916C256.772 112.574 257.304 113.133 257.944 113.545C258.583 113.958 259.311 114.212 260.068 114.289C263.509 114.83 267.022 114.701 270.414 113.909C275.081 112.971 279.638 111.551 284.011 109.673C288.413 107.85 292.615 105.58 296.552 102.898C299.486 101.025 302.035 98.6087 304.063 95.7796C305.071 94.1423 305.403 92.6474 304.893 91.449C303.03 87.0354 290.656 88.0083 277.26 93.6558C264.209 99.1492 255.014 107.051 256.272 111.524C256.307 111.678 256.343 111.797 256.39 111.916Z" fill="#FFC727"/>
<path opacity="0.3" d="M261.409 108.676C261.7 109.198 262.111 109.642 262.609 109.972C263.106 110.302 263.675 110.509 264.268 110.575C266.941 110.982 269.666 110.881 272.301 110.278C279.554 108.757 286.447 105.852 292.601 101.724C294.887 100.267 296.869 98.3814 298.439 96.1711C298.806 95.7032 299.055 95.1542 299.167 94.5701C299.278 93.9859 299.248 93.3836 299.079 92.8134C297.632 89.3845 288.022 90.1438 277.616 94.5338C267.484 98.7932 260.341 104.927 261.326 108.404C261.347 108.497 261.374 108.588 261.409 108.676Z" fill="white"/>
<path d="M6.36577 65.3112L6.28271 72.6435C6.28271 77.3894 17.9694 81.459 32.4918 81.6251C47.0141 81.7912 58.8551 78.0063 58.9025 73.213L58.9856 65.8925C58.8957 66.6528 58.6233 67.3801 58.1915 68.0123C57.7597 68.6445 57.1814 69.1628 56.5058 69.5231C53.5188 71.3267 50.2111 72.5354 46.765 73.0825C37.3819 74.8156 27.7516 74.7108 18.4084 72.774C14.9831 72.1517 11.7112 70.8703 8.7743 69.0011C8.1044 68.6266 7.53532 68.0952 7.11583 67.4526C6.69634 66.8099 6.43897 66.0751 6.36577 65.3112Z" fill="#FFC727"/>
<path opacity="0.1" d="M6.36577 65.3112L6.28271 72.6435C6.28271 77.3894 17.9694 81.459 32.4918 81.6251C47.0141 81.7912 58.8551 78.0063 58.9025 73.213L58.9856 65.8925C58.8957 66.6528 58.6233 67.3801 58.1915 68.0123C57.7597 68.6445 57.1814 69.1628 56.5058 69.5231C53.5188 71.3267 50.2111 72.5354 46.765 73.0825C37.3819 74.8156 27.7516 74.7108 18.4084 72.774C14.9831 72.1517 11.7112 70.8703 8.7743 69.0011C8.1044 68.6266 7.53532 68.0952 7.11583 67.4526C6.69634 66.8099 6.43897 66.0751 6.36577 65.3112Z" fill="black"/>
<path d="M6.36572 65.3112C6.43515 66.0718 6.68712 66.8043 7.10024 67.4467C7.51335 68.0891 8.0754 68.6223 8.73866 69.001C11.678 70.8655 14.949 72.1465 18.3728 72.774C27.7176 74.695 37.3449 74.7998 46.7293 73.0825C50.1726 72.5245 53.4783 71.3166 56.4702 69.5231C58.0482 68.4197 58.938 67.1502 58.9499 65.8806C58.9499 61.1348 47.2632 57.0652 32.729 56.8991C18.6101 56.8042 7.03014 60.3636 6.40132 64.9315C6.37769 65.0567 6.36578 65.1838 6.36572 65.3112Z" fill="#FFC727"/>
<path opacity="0.3" d="M12.2515 64.3382C12.3111 64.932 12.5126 65.5027 12.8388 66.0024C13.165 66.502 13.6065 66.916 14.1261 67.2095C16.4075 68.6634 18.9505 69.6588 21.6127 70.14C25.2294 70.9056 28.9144 71.3032 32.6112 71.3265C36.3082 71.3907 40.0019 71.0726 43.6335 70.3773C46.307 69.95 48.873 69.0113 51.1913 67.6129C51.7169 67.3309 52.1676 66.9276 52.506 66.4365C52.8444 65.9454 53.0608 65.3806 53.1371 64.7891C53.1371 61.0636 44.0606 57.9432 32.7655 57.8127C21.7788 57.694 12.7735 60.4822 12.2871 64.0535C12.2693 64.1475 12.2574 64.2427 12.2515 64.3382Z" fill="white"/>
<path d="M134.873 85.1607L134.79 92.4931C134.79 97.2389 146.476 101.32 160.999 101.475C175.521 101.629 187.362 97.9152 187.409 93.0745L187.492 85.7421C187.403 86.5024 187.13 87.2296 186.698 87.8618C186.267 88.494 185.688 89.0124 185.013 89.3727C182.029 91.1743 178.726 92.3829 175.284 92.9321C165.897 94.6652 156.262 94.5605 146.915 92.6236C143.492 91.9991 140.222 90.7222 137.281 88.8625C135.727 87.7235 134.861 86.4658 134.873 85.1607Z" fill="#FFC727"/>
<path opacity="0.1" d="M134.873 85.1607L134.79 92.4931C134.79 97.2389 146.476 101.32 160.999 101.475C175.521 101.629 187.362 97.9152 187.409 93.0745L187.492 85.7421C187.403 86.5024 187.13 87.2296 186.698 87.8618C186.267 88.494 185.688 89.0124 185.013 89.3727C182.029 91.1743 178.726 92.3829 175.284 92.9321C165.897 94.6652 156.262 94.5605 146.915 92.6236C143.492 91.9991 140.222 90.7222 137.281 88.8625C135.727 87.7235 134.861 86.4658 134.873 85.1607Z" fill="black"/>
<path d="M134.872 85.1607C134.942 85.9213 135.194 86.654 135.607 87.2963C136.02 87.9387 136.582 88.4719 137.245 88.8506C140.185 90.7151 143.456 91.9961 146.88 92.6236C156.227 94.5605 165.861 94.6652 175.248 92.9321C178.687 92.3721 181.988 91.1642 184.977 89.3727C185.654 89.0113 186.233 88.4911 186.665 87.8567C187.097 87.2223 187.369 86.4926 187.457 85.7302C187.457 80.9844 175.77 76.9148 161.236 76.7606C147.081 76.6063 135.501 80.1776 134.872 84.7929C134.86 84.9152 134.86 85.0384 134.872 85.1607Z" fill="#FFC727"/>
<path opacity="0.3" d="M140.757 84.1996C140.819 84.7913 141.021 85.3596 141.347 85.8571C141.673 86.3546 142.114 86.7667 142.632 87.059C144.913 88.513 147.456 89.5084 150.119 89.9896C157.374 91.4916 164.853 91.5722 172.139 90.2269C174.814 89.8051 177.381 88.8661 179.697 87.4624C180.221 87.1798 180.67 86.7761 181.006 86.2849C181.343 85.7938 181.557 85.2293 181.631 84.6386C181.631 80.9131 172.555 77.7927 161.259 77.6741C150.273 77.5436 141.267 80.3318 140.781 83.903C140.767 84.0013 140.759 84.1004 140.757 84.1996Z" fill="white"/>
<path d="M40.7147 81.72L40.6436 89.0523C40.6436 93.7982 52.3184 97.8678 66.8526 98.022C81.3868 98.1763 93.204 94.4626 93.2634 89.6218L93.3345 82.2895C93.2465 83.0519 92.9749 83.7816 92.543 84.416C92.1111 85.0504 91.5318 85.5705 90.8548 85.9319C87.8688 87.7287 84.5663 88.937 81.1258 89.4913C76.4322 90.367 71.662 90.7645 66.8882 90.6778C62.1262 90.6528 57.3793 90.1399 52.7218 89.1473C49.2986 88.5175 46.0281 87.2366 43.0877 85.3743C42.429 84.999 41.8699 84.4713 41.4571 83.8355C41.0442 83.1998 40.7897 82.4743 40.7147 81.72Z" fill="#FFC727"/>
<path opacity="0.1" d="M40.7147 81.72L40.6436 89.0523C40.6436 93.7982 52.3184 97.8678 66.8526 98.022C81.3868 98.1763 93.204 94.4626 93.2634 89.6218L93.3345 82.2895C93.2465 83.0519 92.9749 83.7816 92.543 84.416C92.1111 85.0504 91.5318 85.5705 90.8548 85.9319C87.8688 87.7287 84.5663 88.937 81.1258 89.4913C76.4322 90.367 71.662 90.7645 66.8882 90.6778C62.1262 90.6528 57.3793 90.1399 52.7218 89.1473C49.2986 88.5175 46.0281 87.2366 43.0877 85.3743C42.429 84.999 41.8699 84.4713 41.4571 83.8355C41.0442 83.1998 40.7897 82.4743 40.7147 81.72Z" fill="black"/>
<path d="M40.7139 81.72C40.7139 83.0251 41.5681 84.2827 43.0868 85.4217C46.0291 87.2781 49.2992 88.5547 52.7209 89.1829C62.0681 91.1197 71.7023 91.2245 81.0893 89.4913C84.5312 88.9421 87.8347 87.7335 90.8183 85.9319C91.4939 85.5716 92.0722 85.0533 92.504 84.4211C92.9358 83.7889 93.2082 83.0616 93.2981 82.3013C93.3574 77.5555 81.6114 73.474 67.0772 73.3198C52.9226 73.1656 41.3427 76.7487 40.7139 81.3522C40.7376 81.5183 40.7139 81.6369 40.7139 81.72Z" fill="#FFC727"/>
<path opacity="0.3" d="M46.6113 80.7945C46.6697 81.3871 46.8694 81.9571 47.1935 82.4567C47.5176 82.9563 47.9567 83.3709 48.4741 83.6658C50.7607 85.1096 53.3016 86.1042 55.9607 86.5963C63.2183 88.0826 70.6936 88.1631 77.9815 86.8336C80.6532 86.3994 83.218 85.4613 85.5393 84.0691C86.0639 83.7873 86.5132 83.3838 86.8497 82.8925C87.1862 82.4011 87.4 81.8363 87.4732 81.2454C87.4732 77.5198 78.3968 74.3876 67.1016 74.2689C56.1149 74.1503 47.1215 76.9266 46.6351 80.5097C46.6213 80.6041 46.6133 80.6992 46.6113 80.7945Z" fill="white"/>
<path d="M0.00634766 83.0132L1.39451 90.2151C2.30809 94.9609 14.6118 96.5152 28.8731 93.7745C43.1344 91.0337 53.9787 84.959 53.0651 80.2606L51.677 73.0588C51.9261 74.3402 51.2973 75.7283 49.9685 77.1165C47.407 79.4781 44.4138 81.3232 41.153 82.5505C36.7473 84.36 32.1671 85.7118 27.4849 86.5845C22.7978 87.5202 18.0267 87.9694 13.2473 87.9252C9.76795 87.9973 6.3074 87.397 3.05557 86.1573C2.33454 85.9124 1.68205 85.4996 1.1519 84.9529C0.621746 84.4063 0.229107 83.7414 0.00634766 83.0132Z" fill="#FFC727"/>
<path opacity="0.1" d="M0.00634766 83.0132L1.39451 90.2151C2.30809 94.9609 14.6118 96.5152 28.8731 93.7745C43.1344 91.0337 53.9787 84.959 53.0651 80.2606L51.677 73.0588C51.9261 74.3402 51.2973 75.7283 49.9685 77.1165C47.407 79.4781 44.4138 81.3232 41.153 82.5505C36.7473 84.36 32.1671 85.7118 27.4849 86.5845C22.7978 87.5202 18.0267 87.9694 13.2473 87.9252C9.76795 87.9973 6.3074 87.397 3.05557 86.1573C2.33454 85.9124 1.68205 85.4996 1.1519 84.9529C0.621746 84.4063 0.229107 83.7414 0.00634766 83.0132Z" fill="black"/>
<path d="M0.00653889 83.0013C0.23484 83.7342 0.63499 84.402 1.17365 84.9489C1.71231 85.4958 2.37387 85.9061 3.10322 86.1455C6.35669 87.3791 9.81608 87.9792 13.295 87.9133C18.0741 87.9516 22.8446 87.5024 27.5326 86.5726C32.2148 85.6999 36.7949 84.3481 41.2007 82.5386C44.4591 81.3065 47.4514 79.462 50.0161 77.1046C50.6092 76.6154 51.0746 75.9894 51.3722 75.2805C51.6698 74.5716 51.7908 73.801 51.7246 73.035C50.8229 68.2891 38.5074 66.7349 24.2342 69.4756C10.3407 72.157 -0.301942 77.9826 0.00653889 82.6217C-0.000424809 82.7481 -0.000424809 82.8749 0.00653889 83.0013Z" fill="#FFC727"/>
<path opacity="0.3" d="M5.5832 80.8894C5.75753 81.454 6.06362 81.969 6.47622 82.3919C6.88881 82.8148 7.39608 83.1335 7.95614 83.3217C10.4818 84.2811 13.1688 84.7443 15.8699 84.6861C19.5697 84.7216 23.2633 84.3757 26.8921 83.6539C30.5363 82.9772 34.1022 81.9317 37.5347 80.5335C40.0693 79.5761 42.3971 78.1424 44.3925 76.3097C44.8466 75.9258 45.2028 75.4393 45.4318 74.8906C45.6608 74.3418 45.756 73.7465 45.7095 73.1537C45.0095 69.4994 35.4466 68.2654 24.3531 70.4011C13.5563 72.4774 5.29846 77.0097 5.53575 80.6047C5.54547 80.7005 5.56132 80.7956 5.5832 80.8894Z" fill="white"/>
<path d="M281.757 46.909L285.091 53.4465C287.263 57.7059 299.531 55.8194 312.463 49.2464C325.396 42.6733 334.152 33.8223 331.969 29.551L328.646 23.0255C329.24 24.2119 329.026 25.695 328.136 27.4035C326.316 30.3764 323.949 32.9772 321.16 35.0681C313.639 40.9396 305.059 45.31 295.888 47.9412C292.566 48.9896 289.075 49.3924 285.601 49.1277C284.83 49.0932 284.078 48.8736 283.409 48.4875C282.74 48.1013 282.173 47.56 281.757 46.909Z" fill="#FFC727"/>
<path opacity="0.1" d="M281.757 46.909L285.091 53.4465C287.263 57.7059 299.531 55.8194 312.463 49.2464C325.396 42.6733 334.152 33.8223 331.969 29.551L328.646 23.0255C329.24 24.2119 329.026 25.695 328.136 27.4035C326.316 30.3764 323.949 32.9772 321.16 35.0681C313.639 40.9396 305.059 45.31 295.888 47.9412C292.566 48.9896 289.075 49.3924 285.601 49.1277C284.83 49.0932 284.078 48.8736 283.409 48.4875C282.74 48.1013 282.173 47.56 281.757 46.909Z" fill="black"/>
<path d="M281.757 46.909C282.177 47.5509 282.745 48.0816 283.415 48.4556C284.084 48.8296 284.835 49.0358 285.601 49.0565C289.074 49.3283 292.568 48.9254 295.888 47.8701C305.064 45.2519 313.646 40.8803 321.16 34.9969C323.951 32.912 326.315 30.3099 328.124 27.3323C328.559 26.6993 328.833 25.9702 328.924 25.2076C329.015 24.445 328.92 23.6718 328.646 22.9543C326.463 18.683 314.207 20.5814 301.251 27.1544C288.638 33.585 280.025 42.1276 281.615 46.5056C281.651 46.6437 281.699 46.7786 281.757 46.909Z" fill="#FFC727"/>
<path opacity="0.3" d="M286.526 43.3141C286.85 43.8138 287.29 44.2279 287.809 44.5212C288.327 44.8145 288.909 44.9783 289.504 44.9988C292.201 45.2186 294.915 44.9206 297.501 44.1209C304.629 42.0917 311.294 38.6946 317.125 34.119C319.296 32.5108 321.133 30.496 322.535 28.1866C322.872 27.6959 323.085 27.1307 323.155 26.5397C323.225 25.9486 323.151 25.3493 322.939 24.7933C321.254 21.4712 311.726 22.9306 301.665 28.0561C291.865 33.0511 285.185 39.6835 286.407 43.0768C286.441 43.1588 286.48 43.2381 286.526 43.3141Z" fill="white"/>
<path d="M293.502 14.0913L294.689 21.3169C295.484 26.0628 307.74 27.9374 322.073 25.5289C336.405 23.1204 347.368 17.3067 346.573 12.5845L345.387 5.35895C345.429 6.12463 345.287 6.88925 344.973 7.58897C344.66 8.28869 344.183 8.90317 343.583 9.38105C340.96 11.6735 337.924 13.4452 334.637 14.6015C325.703 17.9645 316.204 19.5758 306.66 19.3474C303.181 19.3296 299.738 18.6449 296.516 17.3304C295.788 17.0758 295.134 16.6479 294.609 16.0835C294.084 15.5191 293.704 14.8354 293.502 14.0913Z" fill="#FFC727"/>
<path opacity="0.1" d="M293.502 14.0913L294.689 21.3169C295.484 26.0628 307.74 27.9374 322.073 25.5289C336.405 23.1204 347.368 17.3067 346.573 12.5845L345.387 5.35895C345.429 6.12463 345.287 6.88925 344.973 7.58897C344.66 8.28869 344.183 8.90317 343.583 9.38105C340.96 11.6735 337.924 13.4452 334.637 14.6015C325.703 17.9645 316.204 19.5758 306.66 19.3474C303.181 19.3296 299.738 18.6449 296.516 17.3304C295.788 17.0758 295.134 16.6479 294.609 16.0835C294.084 15.5191 293.704 14.8354 293.502 14.0913Z" fill="black"/>
<path d="M293.502 14.0202C293.716 15.3134 294.796 16.3931 296.516 17.2355C299.743 18.5438 303.19 19.2243 306.672 19.2406C316.217 19.4846 325.719 17.8728 334.649 14.4947C337.938 13.3433 340.975 11.571 343.595 9.27429C344.199 8.79973 344.678 8.18583 344.992 7.48528C345.306 6.78473 345.446 6.01844 345.398 5.25215C344.604 0.506281 332.347 -1.35645 318.003 1.05208C304.038 3.42501 293.277 8.97767 293.467 13.6168C293.479 13.771 293.479 13.9015 293.502 14.0202Z" fill="#FFC727"/>
<path opacity="0.3" d="M299.127 12.0388C299.294 12.6138 299.597 13.1403 300.01 13.5739C300.423 14.0075 300.934 14.3355 301.5 14.5303C304.003 15.5441 306.677 16.0716 309.378 16.0846C316.788 16.2875 324.167 15.0463 331.102 12.4303C333.66 11.5385 336.021 10.1606 338.055 8.37258C338.52 8.00141 338.889 7.52467 339.133 6.98194C339.376 6.43921 339.487 5.84617 339.455 5.25217C338.838 1.58599 329.311 0.114767 318.182 1.98938C307.337 3.81654 298.973 8.13528 299.127 11.7421C299.121 11.8409 299.121 11.94 299.127 12.0388Z" fill="white"/>
</svg>
