<svg width="51" height="36" viewBox="0 0 51 36" fill="none" xmlns="http://www.w3.org/2000/svg">
<path d="M40.3605 14.2725C39.4322 14.9371 38.4978 15.606 37.5695 16.2706C35.3354 17.87 33.1014 19.4694 30.8673 21.0688C28.1661 23.0026 25.4649 24.9364 22.7636 26.8703C20.4397 28.534 18.1098 30.202 15.78 31.8699C14.648 32.6803 13.474 33.465 12.384 34.3012C12.366 34.314 12.354 34.3226 12.336 34.3355C12.6175 34.2497 12.8991 34.1682 13.1806 34.0825C11.9288 34.0825 10.677 34.0825 9.42519 34.0782C7.41873 34.0782 5.41228 34.0739 3.40582 34.0739C2.94464 34.0739 2.48944 34.0739 2.02826 34.0739C2.42955 34.3612 2.82485 34.6442 3.22614 34.9315C3.22614 34.0353 3.22614 33.1392 3.22015 32.243C3.22015 30.8065 3.21416 29.3701 3.21416 27.9337C3.21416 27.6035 3.21416 27.2776 3.21416 26.9474C3.09437 27.149 2.98058 27.3505 2.86079 27.552C3.78915 26.8874 4.7235 26.2185 5.65185 25.5539C7.88591 23.9545 10.12 22.3551 12.354 20.7557C15.0552 18.8219 17.7565 16.8881 20.4577 14.9542C22.7876 13.2863 25.1115 11.6226 27.4414 9.95456C28.5734 9.14415 29.7473 8.35947 30.8374 7.52334C30.8553 7.51047 30.8673 7.50189 30.8853 7.48903C30.3223 7.48903 29.7533 7.48903 29.1903 7.48903C30.454 8.39377 31.7178 9.29852 32.9816 10.2033C34.976 11.6311 36.9765 13.0633 38.971 14.4911C39.4322 14.8213 39.8934 15.1515 40.3486 15.4774C40.7918 15.7947 41.6063 15.8204 42.0436 15.4774C42.4808 15.1343 42.5167 14.6026 42.0436 14.2639C40.7798 13.3591 39.516 12.4544 38.2523 11.5497C36.2578 10.1218 34.2573 8.68964 32.2628 7.26177C31.8017 6.93161 31.3405 6.60144 30.8853 6.27556C30.4301 5.94968 29.6515 5.94539 29.1903 6.27556C28.789 6.56285 28.3817 6.85442 27.9804 7.14171C26.9143 7.90496 25.8542 8.66391 24.788 9.42716C23.2787 10.5077 21.7694 11.5882 20.26 12.6688C18.5411 13.8994 16.8161 15.1343 15.0972 16.365C13.3782 17.5956 11.6592 18.8262 9.94028 20.0568C8.44891 21.1245 6.95156 22.1965 5.46019 23.2642C4.41205 24.0145 3.3639 24.7649 2.31575 25.5153C2.02826 25.7211 1.74077 25.9269 1.45327 26.1327C1.12386 26.3686 0.836363 26.5572 0.818395 26.9432C0.758501 28.058 0.818396 29.1814 0.824385 30.2963C0.824385 31.7542 0.830374 33.2078 0.830374 34.6656C0.830374 34.7514 0.830374 34.8414 0.830374 34.9272C0.830374 35.3903 1.3814 35.7848 2.02826 35.7848C3.57952 35.7848 5.13078 35.7848 6.68204 35.7891C8.72443 35.7891 10.7608 35.7934 12.8032 35.7934C12.9889 35.7934 13.1626 35.7976 13.3423 35.7762C13.6417 35.7462 13.8873 35.639 14.0969 35.4932C14.3006 35.3517 14.4922 35.2102 14.6899 35.0687C15.6003 34.4169 16.5047 33.7695 17.4151 33.1177C18.8226 32.1101 20.2301 31.1024 21.6376 30.0948C23.3206 28.8899 25.0037 27.685 26.6927 26.4758C28.4356 25.228 30.1725 23.9845 31.9155 22.7367C33.4907 21.609 35.0719 20.477 36.6471 19.3493C37.839 18.496 39.0309 17.6427 40.2228 16.7894C40.8097 16.3692 41.4027 15.9533 41.9777 15.5331C42.0016 15.5159 42.0316 15.4945 42.0555 15.4774C42.4988 15.1601 42.5347 14.5769 42.0555 14.2639C41.5764 13.9594 40.8337 13.9337 40.3605 14.2725Z" fill="#3498DB"/>
<path d="M47.6974 9.02425C46.8709 9.61597 46.0443 10.2077 45.2178 10.7994C43.9061 11.7385 42.5944 12.6775 41.2828 13.6165C40.9773 13.8352 40.6718 14.0539 40.3664 14.2726C40.9294 14.2726 41.4984 14.2726 42.0614 14.2726C40.7976 13.3679 39.5339 12.4631 38.2701 11.5584C36.2756 10.1305 34.2752 8.69837 32.2807 7.27051C31.8195 6.94035 31.3584 6.61018 30.9032 6.28431C30.9032 6.68737 30.9032 7.09471 30.9032 7.49777C31.9932 6.71738 33.0773 5.94128 34.1674 5.16089C35.485 4.21756 36.8027 3.27423 38.1204 2.3309C38.1563 2.30517 38.1922 2.27945 38.2282 2.25372L38.2342 2.24943C38.1503 2.30517 38.3539 2.16796 38.33 2.18511C38.4138 2.11651 38.2701 2.2237 38.2521 2.2237C38.3 2.2237 38.4857 2.1208 38.5336 2.09936C38.5696 2.08649 38.6894 2.05648 38.5396 2.09507C38.3599 2.13795 38.5875 2.08649 38.6235 2.07792C38.6834 2.06505 38.9649 2.03075 38.7792 2.04361C38.5815 2.05648 38.893 2.04361 38.9409 2.04361C38.9948 2.04361 39.0487 2.0479 39.1026 2.0479C39.2464 2.0479 39.1505 2.09507 39.0248 2.03933C39.0966 2.07363 39.2583 2.0822 39.3362 2.09936C39.474 2.12508 39.3542 2.15081 39.2763 2.07792C39.2943 2.09507 39.3602 2.10793 39.3841 2.11651C39.432 2.13366 39.5758 2.2237 39.6297 2.22799C39.5219 2.2237 39.474 2.12937 39.5818 2.20655C39.5938 2.21513 39.6297 2.24086 39.6417 2.24943L39.6477 2.25372C40.001 2.50242 40.3484 2.7554 40.7018 3.00838C42.277 4.13609 43.8462 5.25951 45.4214 6.38722C46.0443 6.83315 46.6612 7.2748 47.2841 7.72074C47.4159 7.81507 47.5536 7.90941 47.6854 8.00803C47.6914 8.01231 47.7034 8.02089 47.7094 8.02518C47.7273 8.04233 47.7573 8.06377 47.7693 8.07234C47.7872 8.08521 47.889 8.16668 47.7872 8.08092C47.6734 7.98659 47.8172 8.11951 47.8411 8.14524C47.8711 8.17954 47.895 8.21384 47.919 8.24815C47.9489 8.28245 47.9489 8.35106 47.925 8.25244C47.889 8.1238 47.9549 8.33819 47.9669 8.37249C47.9669 8.36821 48.0088 8.48398 47.9969 8.48827C47.9849 8.49684 47.9789 8.26101 47.9789 8.43681C47.9789 8.46683 47.9969 8.66407 47.9729 8.67265C47.9609 8.67693 48.0388 8.44968 47.9789 8.6169C47.9669 8.64692 47.9609 8.67265 47.9489 8.70266C47.937 8.74125 47.913 8.77555 47.901 8.81414C47.8711 8.90419 47.931 8.74983 47.943 8.74554C47.901 8.76269 47.8112 8.92134 47.7812 8.95564C47.7633 8.97708 47.6734 9.04569 47.7752 8.96851C47.901 8.8656 47.7034 9.01567 47.6974 9.02425C47.2602 9.34584 47.2122 9.92041 47.6974 10.2377C48.1705 10.5464 48.9252 10.585 49.3924 10.2377C50.71 9.25579 50.6801 7.72932 49.3445 6.76884C48.8773 6.43438 48.4101 6.09993 47.937 5.76119C46.2839 4.57774 44.6368 3.39858 42.9837 2.21513C42.4746 1.85066 41.9596 1.4819 41.4505 1.11744C41.145 0.898756 40.8036 0.701514 40.4083 0.572878C39.3542 0.22985 38.0425 0.238425 37.0662 0.722953C36.5332 0.988801 36.09 1.34898 35.6288 1.67486C34.8562 2.22799 34.0835 2.78113 33.3109 3.33426C31.9693 4.29474 30.6037 5.25093 29.274 6.22428C29.2501 6.24143 29.2261 6.25858 29.1962 6.28002C28.741 6.6059 28.735 7.16332 29.1962 7.49348C30.4599 8.39822 31.7237 9.30296 32.9875 10.2077C34.9819 11.6356 36.9824 13.0677 38.9768 14.4956C39.438 14.8257 39.8992 15.1559 40.3544 15.4818C40.8096 15.8076 41.5882 15.8119 42.0494 15.4818C42.8759 14.89 43.7025 14.2983 44.529 13.7066C45.8407 12.7675 47.1524 11.8285 48.464 10.8895C48.7695 10.6708 49.0749 10.4521 49.3804 10.2334C49.8236 9.91612 49.8596 9.33298 49.3804 9.01996C48.9132 8.70695 48.1705 8.68122 47.6974 9.02425Z" fill="#3498DB"/>
</svg>
