<svg width="1080" height="1091" viewBox="0 0 1080 1091" fill="none" xmlns="http://www.w3.org/2000/svg">
<path d="M791.66 27H281.28C204.358 27 142 89.3578 142 166.28V676.66C142 753.582 204.358 815.94 281.28 815.94H791.66C868.582 815.94 930.94 753.582 930.94 676.66V166.28C930.94 89.3578 868.582 27 791.66 27Z" fill="white"/>
<path d="M799.41 27H289.03C212.108 27 149.75 89.3578 149.75 166.28V676.66C149.75 753.582 212.108 815.94 289.03 815.94H799.41C876.332 815.94 938.69 753.582 938.69 676.66V166.28C938.69 89.3578 876.332 27 799.41 27Z" stroke="#3598DB" stroke-width="54" stroke-miterlimit="10" stroke-linecap="round"/>
<path d="M454.83 82.28H311.12C251.976 82.28 204.03 130.226 204.03 189.37V653.57C204.03 712.714 251.976 760.66 311.12 760.66H454.83C513.974 760.66 561.92 712.714 561.92 653.57V189.37C561.92 130.226 513.974 82.28 454.83 82.28Z" fill="#CCF7FF"/>
<path d="M775.32 82.28H622.03C562.886 82.28 514.94 130.226 514.94 189.37V653.57C514.94 712.714 562.886 760.66 622.03 760.66H775.32C834.464 760.66 882.41 712.714 882.41 653.57V189.37C882.41 130.226 834.464 82.28 775.32 82.28Z" fill="#152850"/>
<path d="M542.19 709.89V760.66H640.56L542.19 709.89Z" fill="#152850"/>
<path d="M542.19 760.66V709.89L454.84 760.66H542.19Z" fill="#CCF7FF"/>
<path d="M646.62 88.16V287.08C646.62 287.08 641.81 314.35 616.14 309.54C616.14 309.54 609.72 431.45 699.56 508.45C699.56 508.45 586.02 601.45 548.94 758.7H546.8L548.94 537.15H542.17V760.62C542.17 760.62 498.68 589.87 387.81 510.02C387.81 510.02 486.2 422.32 469.63 307.89C469.63 307.89 443.42 310.03 443.42 284.89L444.49 82.23H646.62V88.16Z" fill="white"/>
<path d="M547.11 530.12C567.417 530.12 583.88 518.233 583.88 503.57C583.88 488.907 567.417 477.02 547.11 477.02C526.802 477.02 510.34 488.907 510.34 503.57C510.34 518.233 526.802 530.12 547.11 530.12Z" fill="#152850"/>
<path d="M616.05 107.34V293.22H602.05C602.05 293.22 613.32 227.51 616.05 107.34Z" fill="#E5E5E5"/>
<path d="M591.53 319.43C591.53 319.43 579.62 422.62 660.98 499.85C660.98 499.85 653.49 511.77 645.66 515.17C645.62 515.17 570.62 447.01 591.53 319.43Z" fill="#E5E5E5"/>
<path d="M487.36 487.62C487.36 487.62 476.64 532.96 518.77 545.22V637.13C518.77 637.13 512.95 587.96 502.46 562.38C502.46 562.38 442.94 530.36 487.36 487.62Z" fill="#E5E5E5"/>
<path d="M616.05 546.75C616.05 546.75 570.85 604.19 560.13 633.3L561.66 640.96C561.66 640.96 577.45 599.91 616.05 546.75Z" fill="#E5E5E5"/>
<path d="M549.33 526.4L548.97 537.15H542.19V524.36L549.33 526.4Z" fill="#152850"/>
<path d="M37.0166 981.343V1039.79H17.3291V890.493H72.3926C88.7305 890.493 101.514 894.663 110.742 903.003C120.039 911.343 124.688 922.383 124.688 936.123C124.688 950.615 120.142 961.792 111.05 969.653C102.026 977.446 89.0723 981.343 72.1875 981.343H37.0166ZM37.0166 965.244H72.3926C82.9199 965.244 90.9863 962.783 96.5918 957.861C102.197 952.871 105 945.693 105 936.328C105 927.441 102.197 920.332 96.5918 915C90.9863 909.668 83.2959 906.899 73.5205 906.694H37.0166V965.244ZM214.102 1039.79C213.008 1037.6 212.119 1033.71 211.436 1028.1C202.617 1037.26 192.09 1041.84 179.854 1041.84C168.916 1041.84 159.927 1038.76 152.886 1032.61C145.913 1026.39 142.427 1018.53 142.427 1009.03C142.427 997.476 146.802 988.521 155.552 982.163C164.37 975.737 176.743 972.524 192.671 972.524H211.128V963.809C211.128 957.178 209.146 951.914 205.181 948.018C201.216 944.053 195.371 942.07 187.646 942.07C180.879 942.07 175.205 943.779 170.625 947.197C166.045 950.615 163.755 954.751 163.755 959.604H144.683C144.683 954.067 146.631 948.735 150.527 943.608C154.492 938.413 159.824 934.312 166.523 931.304C173.291 928.296 180.708 926.792 188.774 926.792C201.558 926.792 211.572 930.005 218.818 936.431C226.064 942.788 229.824 951.572 230.098 962.783V1013.85C230.098 1024.03 231.396 1032.13 233.994 1038.15V1039.79H214.102ZM182.622 1025.33C188.569 1025.33 194.209 1023.79 199.541 1020.72C204.873 1017.64 208.735 1013.64 211.128 1008.72V985.957H196.26C173.018 985.957 161.396 992.759 161.396 1006.36C161.396 1012.31 163.379 1016.96 167.344 1020.31C171.309 1023.66 176.401 1025.33 182.622 1025.33ZM353.555 985.547C353.555 1002.43 349.692 1016.04 341.968 1026.36C334.243 1036.68 323.784 1041.84 310.591 1041.84C297.124 1041.84 286.528 1037.57 278.804 1029.02V1082.45H259.834V928.843H277.163L278.086 941.147C285.811 931.577 296.543 926.792 310.283 926.792C323.613 926.792 334.141 931.816 341.865 941.865C349.658 951.914 353.555 965.894 353.555 983.804V985.547ZM334.585 983.394C334.585 970.884 331.919 961.006 326.587 953.76C321.255 946.514 313.94 942.891 304.644 942.891C293.159 942.891 284.546 947.983 278.804 958.169V1011.18C284.478 1021.3 293.159 1026.36 304.849 1026.36C313.94 1026.36 321.152 1022.77 326.484 1015.59C331.885 1008.34 334.585 997.612 334.585 983.394ZM423.794 1041.84C408.755 1041.84 396.519 1036.92 387.085 1027.08C377.651 1017.16 372.935 1003.94 372.935 987.393V983.906C372.935 972.9 375.02 963.091 379.189 954.478C383.428 945.796 389.307 939.028 396.826 934.175C404.414 929.253 412.617 926.792 421.436 926.792C435.859 926.792 447.07 931.543 455.068 941.045C463.066 950.547 467.065 964.15 467.065 981.855V989.751H391.904C392.178 1000.69 395.356 1009.54 401.44 1016.31C407.593 1023.01 415.386 1026.36 424.819 1026.36C431.519 1026.36 437.192 1024.99 441.841 1022.26C446.489 1019.52 450.557 1015.9 454.043 1011.39L465.63 1020.41C456.333 1034.7 442.388 1041.84 423.794 1041.84ZM421.436 942.378C413.779 942.378 407.354 945.181 402.158 950.786C396.963 956.323 393.75 964.116 392.52 974.165H448.096V972.729C447.549 963.091 444.951 955.64 440.303 950.376C435.654 945.044 429.365 942.378 421.436 942.378ZM542.739 945.864C539.868 945.386 536.758 945.146 533.408 945.146C520.967 945.146 512.524 950.444 508.081 961.04V1039.79H489.111V928.843H507.568L507.876 941.66C514.097 931.748 522.915 926.792 534.331 926.792C538.022 926.792 540.825 927.271 542.739 928.228V945.864ZM624.873 1010.36C624.873 1005.23 622.925 1001.27 619.028 998.467C615.2 995.596 608.467 993.135 598.828 991.084C589.258 989.033 581.636 986.572 575.962 983.701C570.356 980.83 566.187 977.412 563.452 973.447C560.786 969.482 559.453 964.766 559.453 959.297C559.453 950.205 563.281 942.515 570.938 936.226C578.662 929.937 588.506 926.792 600.469 926.792C613.047 926.792 623.232 930.039 631.025 936.533C638.887 943.027 642.817 951.333 642.817 961.45H623.745C623.745 956.255 621.523 951.777 617.08 948.018C612.705 944.258 607.168 942.378 600.469 942.378C593.564 942.378 588.164 943.882 584.268 946.89C580.371 949.897 578.423 953.828 578.423 958.682C578.423 963.262 580.234 966.714 583.857 969.038C587.48 971.362 594.009 973.584 603.442 975.703C612.944 977.822 620.635 980.352 626.514 983.291C632.393 986.23 636.733 989.785 639.536 993.955C642.407 998.057 643.843 1003.08 643.843 1009.03C643.843 1018.94 639.878 1026.9 631.948 1032.92C624.019 1038.87 613.73 1041.84 601.084 1041.84C592.197 1041.84 584.336 1040.27 577.5 1037.12C570.664 1033.98 565.298 1029.6 561.401 1024C557.573 1018.33 555.659 1012.21 555.659 1005.64H574.629C574.971 1012 577.5 1017.06 582.217 1020.82C587.002 1024.51 593.291 1026.36 601.084 1026.36C608.262 1026.36 614.004 1024.92 618.311 1022.05C622.686 1019.11 624.873 1015.21 624.873 1010.36ZM663.94 983.394C663.94 966.372 667.974 952.7 676.04 942.378C684.106 931.987 694.668 926.792 707.725 926.792C720.713 926.792 731.001 931.235 738.589 940.122V882.29H757.559V1039.79H740.127L739.204 1027.9C731.616 1037.19 721.055 1041.84 707.52 1041.84C694.668 1041.84 684.175 1036.58 676.04 1026.05C667.974 1015.52 663.94 1001.78 663.94 984.829V983.394ZM682.91 985.547C682.91 998.125 685.508 1007.97 690.703 1015.08C695.898 1022.19 703.076 1025.74 712.236 1025.74C724.268 1025.74 733.052 1020.34 738.589 1009.54V958.579C732.915 948.12 724.199 942.891 712.441 942.891C703.145 942.891 695.898 946.479 690.703 953.657C685.508 960.835 682.91 971.465 682.91 985.547ZM840.718 945.864C837.847 945.386 834.736 945.146 831.387 945.146C818.945 945.146 810.503 950.444 806.06 961.04V1039.79H787.09V928.843H805.547L805.854 941.66C812.075 931.748 820.894 926.792 832.31 926.792C836.001 926.792 838.804 927.271 840.718 928.228V945.864ZM851.177 983.291C851.177 972.422 853.296 962.646 857.534 953.965C861.841 945.283 867.788 938.584 875.376 933.867C883.032 929.15 891.748 926.792 901.523 926.792C916.631 926.792 928.833 932.021 938.13 942.48C947.495 952.939 952.178 966.851 952.178 984.214V985.547C952.178 996.348 950.093 1006.05 945.923 1014.67C941.821 1023.21 935.908 1029.88 928.184 1034.66C920.527 1039.45 911.709 1041.84 901.729 1041.84C886.689 1041.84 874.487 1036.61 865.122 1026.15C855.825 1015.69 851.177 1001.85 851.177 984.624V983.291ZM870.249 985.547C870.249 997.852 873.086 1007.73 878.76 1015.18C884.502 1022.63 892.158 1026.36 901.729 1026.36C911.367 1026.36 919.023 1022.6 924.697 1015.08C930.371 1007.49 933.208 996.895 933.208 983.291C933.208 971.123 930.303 961.279 924.492 953.76C918.75 946.172 911.094 942.378 901.523 942.378C892.158 942.378 884.604 946.104 878.862 953.555C873.12 961.006 870.249 971.67 870.249 985.547ZM1069.69 985.547C1069.69 1002.43 1065.83 1016.04 1058.1 1026.36C1050.38 1036.68 1039.92 1041.84 1026.72 1041.84C1013.26 1041.84 1002.66 1037.57 994.937 1029.02V1082.45H975.967V928.843H993.296L994.219 941.147C1001.94 931.577 1012.68 926.792 1026.42 926.792C1039.75 926.792 1050.27 931.816 1058 941.865C1065.79 951.914 1069.69 965.894 1069.69 983.804V985.547ZM1050.72 983.394C1050.72 970.884 1048.05 961.006 1042.72 953.76C1037.39 946.514 1030.07 942.891 1020.78 942.891C1009.29 942.891 1000.68 947.983 994.937 958.169V1011.18C1000.61 1021.3 1009.29 1026.36 1020.98 1026.36C1030.07 1026.36 1037.29 1022.77 1042.62 1015.59C1048.02 1008.34 1050.72 997.612 1050.72 983.394Z" fill="#CCF7FF"/>
<path d="M36 890H18V1040H36V890Z" fill="#3598DB"/>
<path d="M279 929H260V1083H279V929Z" fill="#3598DB"/>
<path d="M995 929H976V1082H995V929Z" fill="#3598DB"/>
<path d="M758 882H739V1040H758V882Z" fill="#3598DB"/>
</svg>
