<svg xmlns="http://www.w3.org/2000/svg" viewBox="0 0 904.24 1107.29"><defs><style>.cls-1{fill:#fff;}.cls-2{fill:none;stroke:#3598db;stroke-linecap:round;stroke-miterlimit:10;stroke-width:54px;}.cls-3,.cls-6{fill:#ccf7ff;}.cls-4{fill:#152850;}.cls-5{fill:#e5e5e5;}.cls-6{font-size:210px;font-family:MyriadPro-Regular, Myriad Pro;}.cls-7{letter-spacing:0.02em;}.cls-8{letter-spacing:0.02em;}.cls-9{letter-spacing:0em;}.cls-10{fill:#3598db;}</style></defs><g id="Layer_2" data-name="Layer 2"><rect class="cls-1" x="57.65" y="27" width="788.94" height="788.94" rx="139.28"/><rect class="cls-2" x="65.4" y="27" width="788.94" height="788.94" rx="139.28"/><rect class="cls-3" x="119.68" y="82.28" width="357.89" height="678.38" rx="107.09"/><rect class="cls-4" x="430.59" y="82.28" width="367.47" height="678.38" rx="107.09"/><polygon class="cls-4" points="457.84 709.89 457.84 760.66 556.21 760.66 457.84 709.89"/><polygon class="cls-3" points="457.84 760.66 457.84 709.89 370.49 760.66 457.84 760.66"/><path class="cls-1" d="M1300,880.54l0,198.92s-4.81,27.27-30.48,22.46c0,0-6.42,121.91,83.42,198.91,0,0-113.54,93-150.62,250.25h-2.14l2.14-221.55h-6.77V1553s-43.49-170.75-154.36-250.6c0,0,98.39-87.7,81.82-202.13,0,0-26.21,2.14-26.21-23l1.07-202.66H1300Z" transform="translate(-737.73 -792.38)"/><ellipse class="cls-4" cx="462.76" cy="503.57" rx="36.77" ry="26.55"/><path class="cls-5" d="M1269.43,899.72V1085.6h-14S1266.7,1019.89,1269.43,899.72Z" transform="translate(-737.73 -792.38)"/><path class="cls-5" d="M1244.91,1111.81S1233,1215,1314.36,1292.23c0,0-7.49,11.92-15.32,15.32C1299,1307.55,1224,1239.39,1244.91,1111.81Z" transform="translate(-737.73 -792.38)"/><path class="cls-5" d="M1140.74,1280s-10.72,45.34,31.41,57.6v91.91s-5.82-49.17-16.31-74.75C1155.84,1354.76,1096.32,1322.74,1140.74,1280Z" transform="translate(-737.73 -792.38)"/><path class="cls-5" d="M1269.43,1339.13s-45.2,57.44-55.92,86.55l1.53,7.66S1230.83,1392.29,1269.43,1339.13Z" transform="translate(-737.73 -792.38)"/><polygon class="cls-4" points="464.98 526.4 464.62 537.15 457.84 537.15 457.84 524.36 464.98 526.4"/></g><g id="Layer_1" data-name="Layer 1"><text class="cls-6" transform="translate(0 1054.79)">S<tspan class="cls-7" x="103.53" y="0">k</tspan><tspan x="205.59" y="0">ioneti</tspan><tspan class="cls-8" x="710.42" y="0">z</tspan><tspan class="cls-9" x="805.33" y="0">y</tspan></text><rect class="cls-10" x="118.86" y="905.68" width="18.27" height="149.1"/><rect class="cls-10" x="220.91" y="953.15" width="18.49" height="101.64"/><rect class="cls-10" x="676.59" y="953.15" width="18.51" height="101.64"/></g></svg>