<svg width="25" height="24" viewBox="0 0 25 24" fill="none" xmlns="http://www.w3.org/2000/svg">
<path d="M9.5 20.2499H5C4.80109 20.2499 4.61032 20.1709 4.46967 20.0302C4.32902 19.8896 4.25 19.6988 4.25 19.4999V15.3105C4.25 15.2121 4.2694 15.1145 4.30709 15.0235C4.34478 14.9325 4.40003 14.8499 4.46967 14.7802L15.7197 3.53022C15.8603 3.38956 16.0511 3.31055 16.25 3.31055C16.4489 3.31055 16.6397 3.38956 16.7803 3.53022L20.9697 7.71956C21.1103 7.86021 21.1893 8.05097 21.1893 8.24989C21.1893 8.4488 21.1103 8.63956 20.9697 8.78022L9.5 20.2499Z" stroke="#CCF7FF" stroke-width="2" stroke-linecap="round" stroke-linejoin="round"/>
<path d="M13.25 6L18.5 11.25" stroke="#CCF7FF" stroke-width="2" stroke-linecap="round" stroke-linejoin="round"/>
<path d="M20.7501 20.2501H9.50013L4.29785 15.0479" stroke="#CCF7FF" stroke-width="2" stroke-linecap="round" stroke-linejoin="round"/>
</svg>
