<svg width="27" height="27" viewBox="0 0 27 27" fill="none" xmlns="http://www.w3.org/2000/svg">
<path d="M20.2461 9.00024C22.1101 9.00024 23.6211 7.48921 23.6211 5.62524C23.6211 3.76128 22.1101 2.25024 20.2461 2.25024C18.3821 2.25024 16.8711 3.76128 16.8711 5.62524C16.8711 7.48921 18.3821 9.00024 20.2461 9.00024Z" stroke="white" stroke-width="1.63836" stroke-linecap="round" stroke-linejoin="round"/>
<path d="M6.74609 16.8752C8.61005 16.8752 10.1211 15.3642 10.1211 13.5002C10.1211 11.6363 8.61005 10.1252 6.74609 10.1252C4.88213 10.1252 3.37109 11.6363 3.37109 13.5002C3.37109 15.3642 4.88213 16.8752 6.74609 16.8752Z" stroke="white" stroke-width="1.63836" stroke-linecap="round" stroke-linejoin="round"/>
<path d="M20.2461 24.75C22.1101 24.75 23.6211 23.239 23.6211 21.375C23.6211 19.511 22.1101 18 20.2461 18C18.3821 18 16.8711 19.511 16.8711 21.375C16.8711 23.239 18.3821 24.75 20.2461 24.75Z" stroke="white" stroke-width="1.63836" stroke-linecap="round" stroke-linejoin="round"/>
<path d="M9.66406 15.199L17.3478 19.6765" stroke="white" stroke-width="1.63836" stroke-linecap="round" stroke-linejoin="round"/>
<path d="M17.3366 7.32397L9.66406 11.8015" stroke="white" stroke-width="1.63836" stroke-linecap="round" stroke-linejoin="round"/>
</svg>
